G75*
G70*
%OFA0B0*%
%FSLAX24Y24*%
%IPPOS*%
%LPD*%
%AMOC8*
5,1,8,0,0,1.08239X$1,22.5*
%
%ADD10C,0.0000*%
%ADD11R,0.0660X0.0660*%
%ADD12C,0.0660*%
%ADD13OC8,0.0600*%
%ADD14R,0.0600X0.0600*%
%ADD15R,0.0554X0.0554*%
%ADD16C,0.0554*%
%ADD17R,0.0515X0.0515*%
%ADD18C,0.0515*%
%ADD19C,0.0866*%
%ADD20C,0.0669*%
%ADD21R,0.0945X0.0945*%
%ADD22C,0.0160*%
%ADD23C,0.0317*%
%ADD24C,0.0240*%
D10*
X001633Y001315D02*
X001633Y013697D01*
X028557Y013697D01*
X028557Y001315D01*
X001633Y001315D01*
X002204Y002322D02*
X002206Y002363D01*
X002212Y002404D01*
X002222Y002444D01*
X002235Y002483D01*
X002252Y002520D01*
X002273Y002556D01*
X002297Y002590D01*
X002324Y002621D01*
X002353Y002649D01*
X002386Y002675D01*
X002420Y002697D01*
X002457Y002716D01*
X002495Y002731D01*
X002535Y002743D01*
X002575Y002751D01*
X002616Y002755D01*
X002658Y002755D01*
X002699Y002751D01*
X002739Y002743D01*
X002779Y002731D01*
X002817Y002716D01*
X002853Y002697D01*
X002888Y002675D01*
X002921Y002649D01*
X002950Y002621D01*
X002977Y002590D01*
X003001Y002556D01*
X003022Y002520D01*
X003039Y002483D01*
X003052Y002444D01*
X003062Y002404D01*
X003068Y002363D01*
X003070Y002322D01*
X003068Y002281D01*
X003062Y002240D01*
X003052Y002200D01*
X003039Y002161D01*
X003022Y002124D01*
X003001Y002088D01*
X002977Y002054D01*
X002950Y002023D01*
X002921Y001995D01*
X002888Y001969D01*
X002854Y001947D01*
X002817Y001928D01*
X002779Y001913D01*
X002739Y001901D01*
X002699Y001893D01*
X002658Y001889D01*
X002616Y001889D01*
X002575Y001893D01*
X002535Y001901D01*
X002495Y001913D01*
X002457Y001928D01*
X002421Y001947D01*
X002386Y001969D01*
X002353Y001995D01*
X002324Y002023D01*
X002297Y002054D01*
X002273Y002088D01*
X002252Y002124D01*
X002235Y002161D01*
X002222Y002200D01*
X002212Y002240D01*
X002206Y002281D01*
X002204Y002322D01*
X027094Y002322D02*
X027096Y002363D01*
X027102Y002404D01*
X027112Y002444D01*
X027125Y002483D01*
X027142Y002520D01*
X027163Y002556D01*
X027187Y002590D01*
X027214Y002621D01*
X027243Y002649D01*
X027276Y002675D01*
X027310Y002697D01*
X027347Y002716D01*
X027385Y002731D01*
X027425Y002743D01*
X027465Y002751D01*
X027506Y002755D01*
X027548Y002755D01*
X027589Y002751D01*
X027629Y002743D01*
X027669Y002731D01*
X027707Y002716D01*
X027743Y002697D01*
X027778Y002675D01*
X027811Y002649D01*
X027840Y002621D01*
X027867Y002590D01*
X027891Y002556D01*
X027912Y002520D01*
X027929Y002483D01*
X027942Y002444D01*
X027952Y002404D01*
X027958Y002363D01*
X027960Y002322D01*
X027958Y002281D01*
X027952Y002240D01*
X027942Y002200D01*
X027929Y002161D01*
X027912Y002124D01*
X027891Y002088D01*
X027867Y002054D01*
X027840Y002023D01*
X027811Y001995D01*
X027778Y001969D01*
X027744Y001947D01*
X027707Y001928D01*
X027669Y001913D01*
X027629Y001901D01*
X027589Y001893D01*
X027548Y001889D01*
X027506Y001889D01*
X027465Y001893D01*
X027425Y001901D01*
X027385Y001913D01*
X027347Y001928D01*
X027311Y001947D01*
X027276Y001969D01*
X027243Y001995D01*
X027214Y002023D01*
X027187Y002054D01*
X027163Y002088D01*
X027142Y002124D01*
X027125Y002161D01*
X027112Y002200D01*
X027102Y002240D01*
X027096Y002281D01*
X027094Y002322D01*
X027094Y012322D02*
X027096Y012363D01*
X027102Y012404D01*
X027112Y012444D01*
X027125Y012483D01*
X027142Y012520D01*
X027163Y012556D01*
X027187Y012590D01*
X027214Y012621D01*
X027243Y012649D01*
X027276Y012675D01*
X027310Y012697D01*
X027347Y012716D01*
X027385Y012731D01*
X027425Y012743D01*
X027465Y012751D01*
X027506Y012755D01*
X027548Y012755D01*
X027589Y012751D01*
X027629Y012743D01*
X027669Y012731D01*
X027707Y012716D01*
X027743Y012697D01*
X027778Y012675D01*
X027811Y012649D01*
X027840Y012621D01*
X027867Y012590D01*
X027891Y012556D01*
X027912Y012520D01*
X027929Y012483D01*
X027942Y012444D01*
X027952Y012404D01*
X027958Y012363D01*
X027960Y012322D01*
X027958Y012281D01*
X027952Y012240D01*
X027942Y012200D01*
X027929Y012161D01*
X027912Y012124D01*
X027891Y012088D01*
X027867Y012054D01*
X027840Y012023D01*
X027811Y011995D01*
X027778Y011969D01*
X027744Y011947D01*
X027707Y011928D01*
X027669Y011913D01*
X027629Y011901D01*
X027589Y011893D01*
X027548Y011889D01*
X027506Y011889D01*
X027465Y011893D01*
X027425Y011901D01*
X027385Y011913D01*
X027347Y011928D01*
X027311Y011947D01*
X027276Y011969D01*
X027243Y011995D01*
X027214Y012023D01*
X027187Y012054D01*
X027163Y012088D01*
X027142Y012124D01*
X027125Y012161D01*
X027112Y012200D01*
X027102Y012240D01*
X027096Y012281D01*
X027094Y012322D01*
D11*
X016990Y002667D03*
D12*
X017990Y002667D03*
X018990Y002667D03*
X019990Y002667D03*
X020990Y002667D03*
X020700Y005966D03*
X020685Y010791D03*
X002575Y010791D03*
X002590Y005966D03*
D13*
X023443Y008772D03*
X024443Y008772D03*
X024443Y009772D03*
X023443Y009772D03*
X024443Y007772D03*
D14*
X023443Y007772D03*
D15*
X023169Y012166D03*
D16*
X024169Y012166D03*
X025169Y012166D03*
X026169Y012166D03*
X026169Y011166D03*
X025169Y011166D03*
X024169Y011166D03*
X023169Y011166D03*
D17*
X015383Y002611D03*
X011119Y002604D03*
X006821Y002593D03*
D18*
X006034Y002593D03*
X005246Y002593D03*
X004459Y002593D03*
X008756Y002604D03*
X009544Y002604D03*
X010331Y002604D03*
X013021Y002611D03*
X013808Y002611D03*
X014596Y002611D03*
D19*
X023814Y003573D03*
X026570Y003573D03*
D20*
X026176Y002589D03*
X024208Y002589D03*
D21*
X022448Y002486D03*
X022448Y004455D03*
D22*
X021574Y004455D01*
X021243Y004786D01*
X021639Y004967D02*
X021698Y004967D01*
X021698Y004982D02*
X021698Y004836D01*
X021678Y004856D01*
X021678Y004873D01*
X021612Y005033D01*
X021490Y005155D01*
X021330Y005222D01*
X021156Y005222D01*
X020996Y005155D01*
X020874Y005033D01*
X020808Y004873D01*
X020808Y004700D01*
X020874Y004540D01*
X020996Y004417D01*
X021156Y004351D01*
X021174Y004351D01*
X021372Y004152D01*
X021504Y004098D01*
X021698Y004098D01*
X021698Y003927D01*
X021741Y003826D01*
X021818Y003748D01*
X021920Y003706D01*
X022975Y003706D01*
X023077Y003748D01*
X023147Y003817D01*
X023104Y003714D01*
X023104Y003432D01*
X023212Y003171D01*
X023412Y002971D01*
X023661Y002868D01*
X023596Y002710D01*
X023596Y002467D01*
X023689Y002242D01*
X023861Y002070D01*
X024086Y001977D01*
X024329Y001977D01*
X024554Y002070D01*
X024726Y002242D01*
X024819Y002467D01*
X024819Y002710D01*
X024726Y002935D01*
X024554Y003107D01*
X024411Y003166D01*
X024416Y003171D01*
X024524Y003432D01*
X024524Y003714D01*
X024416Y003975D01*
X024216Y004175D01*
X023955Y004283D01*
X023673Y004283D01*
X023412Y004175D01*
X023212Y003975D01*
X023197Y003939D01*
X023197Y004982D01*
X023155Y005084D01*
X023077Y005162D01*
X022975Y005204D01*
X021920Y005204D01*
X021818Y005162D01*
X021741Y005084D01*
X021698Y004982D01*
X021782Y005126D02*
X021519Y005126D01*
X020967Y005126D02*
X019726Y005126D01*
X019749Y005070D02*
X019683Y005230D01*
X019617Y005296D01*
X019637Y005296D01*
X019797Y005362D01*
X019919Y005485D01*
X019985Y005645D01*
X019985Y005818D01*
X019919Y005978D01*
X019797Y006100D01*
X019637Y006166D01*
X019463Y006166D01*
X019304Y006100D01*
X019291Y006088D01*
X015675Y006088D01*
X015663Y006100D01*
X015503Y006166D01*
X015330Y006166D01*
X015170Y006100D01*
X015047Y005978D01*
X014981Y005818D01*
X014981Y005645D01*
X015047Y005485D01*
X015170Y005362D01*
X015330Y005296D01*
X015503Y005296D01*
X015663Y005362D01*
X015675Y005374D01*
X017940Y005374D01*
X017886Y005352D01*
X017764Y005230D01*
X017697Y005070D01*
X017697Y004897D01*
X017764Y004737D01*
X017886Y004614D01*
X018046Y004548D01*
X018219Y004548D01*
X018379Y004614D01*
X018391Y004626D01*
X019055Y004626D01*
X019067Y004614D01*
X019227Y004548D01*
X019400Y004548D01*
X019560Y004614D01*
X019683Y004737D01*
X019749Y004897D01*
X019749Y005070D01*
X019749Y004967D02*
X020847Y004967D01*
X020808Y004809D02*
X019713Y004809D01*
X019597Y004650D02*
X020828Y004650D01*
X020922Y004492D02*
X014631Y004492D01*
X014631Y004463D02*
X014631Y004637D01*
X014565Y004797D01*
X014442Y004919D01*
X014282Y004985D01*
X014109Y004985D01*
X013949Y004919D01*
X013937Y004907D01*
X011817Y004907D01*
X011805Y004919D01*
X011645Y004985D01*
X011471Y004985D01*
X011311Y004919D01*
X011189Y004797D01*
X011123Y004637D01*
X011123Y004463D01*
X011135Y004434D01*
X010485Y004434D01*
X010497Y004463D01*
X010497Y004637D01*
X010431Y004797D01*
X010419Y004809D01*
X011201Y004809D01*
X011128Y004650D02*
X010492Y004650D01*
X010497Y004492D02*
X011123Y004492D01*
X011558Y004550D02*
X014196Y004550D01*
X014577Y004333D02*
X021191Y004333D01*
X021350Y004175D02*
X014427Y004175D01*
X014442Y004181D02*
X014565Y004304D01*
X014631Y004463D01*
X014625Y004650D02*
X017850Y004650D01*
X017734Y004809D02*
X014553Y004809D01*
X014326Y004967D02*
X017697Y004967D01*
X017721Y005126D02*
X010419Y005126D01*
X010419Y005284D02*
X017818Y005284D01*
X018133Y004983D02*
X019314Y004983D01*
X019628Y005284D02*
X028280Y005284D01*
X028280Y005126D02*
X023113Y005126D01*
X023197Y004967D02*
X028280Y004967D01*
X028280Y004809D02*
X023197Y004809D01*
X023197Y004650D02*
X028280Y004650D01*
X028280Y004492D02*
X023197Y004492D01*
X023197Y004333D02*
X028280Y004333D01*
X028280Y004175D02*
X026972Y004175D01*
X026711Y004283D01*
X026429Y004283D01*
X026168Y004175D01*
X025968Y003975D01*
X025860Y003714D01*
X025860Y003432D01*
X025968Y003171D01*
X026050Y003089D01*
X025979Y003066D01*
X025906Y003029D01*
X025841Y002981D01*
X025784Y002924D01*
X025736Y002858D01*
X025699Y002786D01*
X025674Y002709D01*
X025661Y002629D01*
X025661Y002589D01*
X026176Y002589D01*
X026176Y002589D01*
X026691Y002589D01*
X026691Y002629D01*
X026678Y002709D01*
X026653Y002786D01*
X026616Y002858D01*
X026613Y002863D01*
X026711Y002863D01*
X026972Y002971D01*
X027172Y003171D01*
X027280Y003432D01*
X027280Y003714D01*
X027172Y003975D01*
X026972Y004175D01*
X027130Y004016D02*
X028280Y004016D01*
X028280Y003858D02*
X027220Y003858D01*
X027280Y003699D02*
X028280Y003699D01*
X028280Y003541D02*
X027280Y003541D01*
X027259Y003382D02*
X028280Y003382D01*
X028280Y003224D02*
X027194Y003224D01*
X027066Y003065D02*
X028280Y003065D01*
X028280Y002907D02*
X027946Y002907D01*
X027929Y002924D02*
X027668Y003032D01*
X027386Y003032D01*
X027125Y002924D01*
X026925Y002724D01*
X026817Y002463D01*
X026817Y002181D01*
X026925Y001920D01*
X027125Y001720D01*
X027386Y001612D01*
X027668Y001612D01*
X027929Y001720D01*
X028129Y001920D01*
X028237Y002181D01*
X028237Y002463D01*
X028129Y002724D01*
X027929Y002924D01*
X028105Y002748D02*
X028280Y002748D01*
X028280Y002590D02*
X028185Y002590D01*
X028237Y002431D02*
X028280Y002431D01*
X028280Y002273D02*
X028237Y002273D01*
X028210Y002114D02*
X028280Y002114D01*
X028280Y001956D02*
X028144Y001956D01*
X028007Y001797D02*
X028280Y001797D01*
X028280Y001639D02*
X027733Y001639D01*
X027321Y001639D02*
X002843Y001639D01*
X002778Y001612D02*
X002495Y001612D01*
X002235Y001720D01*
X002035Y001920D01*
X001927Y002181D01*
X001927Y002463D01*
X002035Y002724D01*
X002235Y002924D01*
X002495Y003032D01*
X002778Y003032D01*
X003039Y002924D01*
X003239Y002724D01*
X003347Y002463D01*
X003347Y002181D01*
X003239Y001920D01*
X003039Y001720D01*
X002778Y001612D01*
X002430Y001639D02*
X001910Y001639D01*
X001910Y001592D02*
X001910Y013420D01*
X028280Y013420D01*
X028280Y001592D01*
X001910Y001592D01*
X001910Y001797D02*
X002157Y001797D01*
X002020Y001956D02*
X001910Y001956D01*
X001910Y002114D02*
X001954Y002114D01*
X001927Y002273D02*
X001910Y002273D01*
X001910Y002431D02*
X001927Y002431D01*
X001910Y002590D02*
X001979Y002590D01*
X001910Y002748D02*
X002059Y002748D01*
X001910Y002907D02*
X002218Y002907D01*
X001910Y003065D02*
X004990Y003065D01*
X004943Y003046D02*
X004793Y002896D01*
X004788Y002883D01*
X004744Y002927D01*
X004688Y002967D01*
X004627Y002998D01*
X004561Y003020D01*
X004493Y003030D01*
X004459Y003030D01*
X004459Y002593D01*
X004459Y002156D01*
X004493Y002156D01*
X004561Y002166D01*
X004627Y002188D01*
X004688Y002219D01*
X004744Y002259D01*
X004788Y002303D01*
X004793Y002290D01*
X004943Y002140D01*
X005140Y002059D01*
X005352Y002059D01*
X005549Y002140D01*
X005640Y002231D01*
X005731Y002140D01*
X005927Y002059D01*
X006140Y002059D01*
X006336Y002140D01*
X006352Y002156D01*
X006407Y002101D01*
X006508Y002059D01*
X007133Y002059D01*
X007235Y002101D01*
X007313Y002179D01*
X007355Y002280D01*
X007355Y002906D01*
X007327Y002973D01*
X008520Y002973D01*
X008471Y002937D01*
X008423Y002889D01*
X008382Y002833D01*
X008351Y002772D01*
X008330Y002706D01*
X008319Y002638D01*
X008319Y002604D01*
X008756Y002604D01*
X008756Y002604D01*
X008319Y002604D01*
X008319Y002569D01*
X008330Y002501D01*
X008351Y002436D01*
X008382Y002374D01*
X008423Y002319D01*
X008471Y002270D01*
X008527Y002229D01*
X008588Y002198D01*
X008654Y002177D01*
X008722Y002166D01*
X008756Y002166D01*
X008756Y002604D01*
X008756Y002604D01*
X008756Y002166D01*
X008791Y002166D01*
X008859Y002177D01*
X008924Y002198D01*
X008986Y002229D01*
X009041Y002270D01*
X009085Y002314D01*
X009091Y002301D01*
X009241Y002151D01*
X009437Y002069D01*
X009650Y002069D01*
X009846Y002151D01*
X009937Y002242D01*
X010029Y002151D01*
X010225Y002069D01*
X010437Y002069D01*
X010634Y002151D01*
X010649Y002166D01*
X010704Y002111D01*
X010806Y002069D01*
X011431Y002069D01*
X011533Y002111D01*
X011611Y002189D01*
X011653Y002291D01*
X011653Y002916D01*
X011629Y002973D01*
X012774Y002973D01*
X012736Y002945D01*
X012687Y002896D01*
X012647Y002841D01*
X012616Y002779D01*
X012594Y002714D01*
X012583Y002646D01*
X012583Y002612D01*
X013021Y002612D01*
X013021Y002611D01*
X013021Y002174D01*
X013055Y002174D01*
X013123Y002185D01*
X013189Y002206D01*
X013250Y002237D01*
X013306Y002278D01*
X013350Y002322D01*
X013355Y002309D01*
X013506Y002159D01*
X013702Y002077D01*
X013915Y002077D01*
X014111Y002159D01*
X014202Y002250D01*
X014293Y002159D01*
X014489Y002077D01*
X014702Y002077D01*
X014898Y002159D01*
X014914Y002174D01*
X014969Y002119D01*
X015071Y002077D01*
X015696Y002077D01*
X015797Y002119D01*
X015875Y002197D01*
X015917Y002299D01*
X015917Y002924D01*
X015875Y003026D01*
X015797Y003104D01*
X015696Y003146D01*
X015071Y003146D01*
X014969Y003104D01*
X014914Y003049D01*
X014898Y003064D01*
X014702Y003146D01*
X014489Y003146D01*
X014293Y003064D01*
X014202Y002973D01*
X014111Y003064D01*
X013915Y003146D01*
X013702Y003146D01*
X013587Y003098D01*
X013647Y003243D01*
X013647Y003416D01*
X013581Y003576D01*
X013458Y003699D01*
X013405Y003721D01*
X013425Y003721D01*
X013437Y003709D01*
X013597Y003642D01*
X013771Y003642D01*
X013931Y003709D01*
X014053Y003831D01*
X014119Y003991D01*
X014119Y004115D01*
X014282Y004115D01*
X014442Y004181D01*
X014119Y004016D02*
X021698Y004016D01*
X021727Y003858D02*
X014064Y003858D01*
X013908Y003699D02*
X023104Y003699D01*
X023104Y003541D02*
X013595Y003541D01*
X013647Y003382D02*
X023124Y003382D01*
X023190Y003224D02*
X021233Y003224D01*
X021334Y003182D02*
X021111Y003274D01*
X020870Y003274D01*
X020646Y003182D01*
X020476Y003011D01*
X020436Y002916D01*
X020426Y002935D01*
X020379Y003000D01*
X020322Y003056D01*
X020258Y003104D01*
X020186Y003140D01*
X020110Y003165D01*
X020030Y003177D01*
X019990Y003177D01*
X019950Y003177D01*
X019871Y003165D01*
X019794Y003140D01*
X019723Y003104D01*
X019658Y003056D01*
X019601Y003000D01*
X019554Y002935D01*
X019544Y002916D01*
X019505Y003011D01*
X019334Y003182D01*
X019111Y003274D01*
X018870Y003274D01*
X018646Y003182D01*
X018490Y003026D01*
X018334Y003182D01*
X018111Y003274D01*
X017870Y003274D01*
X017646Y003182D01*
X017574Y003109D01*
X017555Y003154D01*
X017477Y003232D01*
X017375Y003274D01*
X016605Y003274D01*
X016503Y003232D01*
X016426Y003154D01*
X016383Y003052D01*
X016383Y002282D01*
X016426Y002181D01*
X016503Y002103D01*
X016605Y002061D01*
X017375Y002061D01*
X017477Y002103D01*
X017555Y002181D01*
X017574Y002226D01*
X017646Y002153D01*
X017870Y002061D01*
X018111Y002061D01*
X018334Y002153D01*
X018490Y002309D01*
X018646Y002153D01*
X018870Y002061D01*
X019111Y002061D01*
X019334Y002153D01*
X019505Y002324D01*
X019544Y002419D01*
X019554Y002400D01*
X019601Y002335D01*
X019658Y002278D01*
X019723Y002231D01*
X019794Y002195D01*
X019871Y002170D01*
X019950Y002157D01*
X019990Y002157D01*
X019990Y002667D01*
X019990Y002667D01*
X019990Y002157D01*
X020030Y002157D01*
X020110Y002170D01*
X020186Y002195D01*
X020258Y002231D01*
X020322Y002278D01*
X020379Y002335D01*
X020426Y002400D01*
X020436Y002419D01*
X020476Y002324D01*
X020646Y002153D01*
X020870Y002061D01*
X021111Y002061D01*
X021334Y002153D01*
X021505Y002324D01*
X021597Y002547D01*
X021597Y002788D01*
X021505Y003011D01*
X021334Y003182D01*
X021451Y003065D02*
X021829Y003065D01*
X021831Y003069D02*
X021808Y003028D01*
X021795Y002982D01*
X021795Y002566D01*
X022368Y002566D01*
X022368Y002406D01*
X022528Y002406D01*
X022528Y002566D01*
X023100Y002566D01*
X023100Y002982D01*
X023088Y003028D01*
X023064Y003069D01*
X023031Y003103D01*
X022990Y003126D01*
X022944Y003139D01*
X022528Y003139D01*
X022528Y002566D01*
X022368Y002566D01*
X022368Y003139D01*
X021952Y003139D01*
X021906Y003126D01*
X021865Y003103D01*
X021831Y003069D01*
X021795Y002907D02*
X021548Y002907D01*
X021597Y002748D02*
X021795Y002748D01*
X021795Y002590D02*
X021597Y002590D01*
X021549Y002431D02*
X022368Y002431D01*
X022368Y002406D02*
X021795Y002406D01*
X021795Y001990D01*
X021808Y001944D01*
X021831Y001903D01*
X021865Y001870D01*
X021906Y001846D01*
X021952Y001834D01*
X022368Y001834D01*
X022368Y002406D01*
X022368Y002273D02*
X022528Y002273D01*
X022528Y002406D02*
X022528Y001834D01*
X022944Y001834D01*
X022990Y001846D01*
X023031Y001870D01*
X023064Y001903D01*
X023088Y001944D01*
X023100Y001990D01*
X023100Y002406D01*
X022528Y002406D01*
X022528Y002431D02*
X023611Y002431D01*
X023596Y002590D02*
X023100Y002590D01*
X023100Y002748D02*
X023612Y002748D01*
X023567Y002907D02*
X023100Y002907D01*
X023067Y003065D02*
X023318Y003065D01*
X022528Y003065D02*
X022368Y003065D01*
X022368Y002907D02*
X022528Y002907D01*
X022528Y002748D02*
X022368Y002748D01*
X022368Y002590D02*
X022528Y002590D01*
X023100Y002273D02*
X023677Y002273D01*
X023817Y002114D02*
X023100Y002114D01*
X023091Y001956D02*
X026910Y001956D01*
X026845Y002114D02*
X026379Y002114D01*
X026374Y002112D02*
X026446Y002148D01*
X026511Y002196D01*
X026569Y002253D01*
X026616Y002319D01*
X026653Y002391D01*
X026678Y002468D01*
X026691Y002548D01*
X026691Y002589D01*
X026176Y002589D01*
X026176Y002589D01*
X025661Y002589D01*
X025661Y002548D01*
X025674Y002468D01*
X025699Y002391D01*
X025736Y002319D01*
X025784Y002253D01*
X025841Y002196D01*
X025906Y002148D01*
X025979Y002112D01*
X026056Y002087D01*
X026136Y002074D01*
X026176Y002074D01*
X026176Y002589D01*
X026176Y002589D01*
X026176Y002074D01*
X026217Y002074D01*
X026297Y002087D01*
X026374Y002112D01*
X026176Y002114D02*
X026176Y002114D01*
X026176Y002273D02*
X026176Y002273D01*
X026176Y002431D02*
X026176Y002431D01*
X026583Y002273D02*
X026817Y002273D01*
X026817Y002431D02*
X026666Y002431D01*
X026691Y002590D02*
X026870Y002590D01*
X026950Y002748D02*
X026665Y002748D01*
X026817Y002907D02*
X027108Y002907D01*
X025978Y003065D02*
X024596Y003065D01*
X024738Y002907D02*
X025771Y002907D01*
X025687Y002748D02*
X024803Y002748D01*
X024819Y002590D02*
X025661Y002590D01*
X025686Y002431D02*
X024804Y002431D01*
X024739Y002273D02*
X025769Y002273D01*
X025974Y002114D02*
X024598Y002114D01*
X024438Y003224D02*
X025946Y003224D01*
X025880Y003382D02*
X024503Y003382D01*
X024524Y003541D02*
X025860Y003541D01*
X025860Y003699D02*
X024524Y003699D01*
X024464Y003858D02*
X025919Y003858D01*
X026009Y004016D02*
X024375Y004016D01*
X024216Y004175D02*
X026168Y004175D01*
X028280Y005443D02*
X021023Y005443D01*
X021044Y005451D02*
X021215Y005622D01*
X021307Y005845D01*
X021307Y006087D01*
X021215Y006310D01*
X021122Y006402D01*
X022502Y006402D01*
X022511Y006398D01*
X025487Y006398D01*
X025618Y006452D01*
X026370Y007204D01*
X026370Y007204D01*
X026421Y007255D01*
X026470Y007304D01*
X026471Y007305D01*
X026498Y007370D01*
X026525Y007436D01*
X026525Y007507D01*
X026525Y007578D01*
X026521Y010735D01*
X026639Y010852D01*
X026723Y011056D01*
X026723Y011276D01*
X026639Y011480D01*
X026483Y011636D01*
X026410Y011666D01*
X026483Y011696D01*
X026639Y011852D01*
X026723Y012056D01*
X026723Y012276D01*
X026639Y012480D01*
X026483Y012636D01*
X026279Y012720D01*
X026137Y012720D01*
X025579Y013278D01*
X025448Y013332D01*
X014833Y013332D01*
X014702Y013278D01*
X013851Y012427D01*
X013797Y012296D01*
X013797Y011736D01*
X013785Y011723D01*
X013719Y011563D01*
X013719Y011390D01*
X013785Y011230D01*
X013849Y011167D01*
X012880Y011167D01*
X012868Y011179D01*
X012708Y011245D01*
X012534Y011245D01*
X012374Y011179D01*
X012252Y011056D01*
X012186Y010897D01*
X012186Y010723D01*
X012252Y010563D01*
X012374Y010441D01*
X012534Y010375D01*
X012708Y010375D01*
X012868Y010441D01*
X012880Y010453D01*
X014646Y010453D01*
X014658Y010441D01*
X014818Y010375D01*
X014991Y010375D01*
X015151Y010441D01*
X015273Y010563D01*
X015340Y010723D01*
X015340Y010897D01*
X015311Y010965D01*
X020100Y010965D01*
X020078Y010912D01*
X020078Y010671D01*
X020171Y010448D01*
X020341Y010277D01*
X020564Y010185D01*
X020806Y010185D01*
X021029Y010277D01*
X021200Y010448D01*
X021292Y010671D01*
X021292Y010912D01*
X021270Y010965D01*
X022328Y010965D01*
X022380Y010960D01*
X022398Y010965D01*
X022416Y010965D01*
X022465Y010985D01*
X022516Y011001D01*
X022531Y011012D01*
X022547Y011019D01*
X022585Y011057D01*
X022615Y011081D01*
X022615Y011056D01*
X022700Y010852D01*
X022855Y010696D01*
X023059Y010612D01*
X023279Y010612D01*
X023483Y010696D01*
X023639Y010852D01*
X023669Y010926D01*
X023700Y010852D01*
X023855Y010696D01*
X024059Y010612D01*
X024279Y010612D01*
X024483Y010696D01*
X024639Y010852D01*
X024669Y010926D01*
X024700Y010852D01*
X024823Y010729D01*
X024823Y010071D01*
X024642Y010252D01*
X024463Y010252D01*
X024463Y009792D01*
X024423Y009792D01*
X024423Y010252D01*
X024244Y010252D01*
X024012Y010019D01*
X023682Y010349D01*
X023204Y010349D01*
X022866Y010011D01*
X022866Y009946D01*
X020385Y009946D01*
X020253Y009892D01*
X020071Y009710D01*
X020054Y009710D01*
X019894Y009643D01*
X019772Y009521D01*
X019705Y009361D01*
X019705Y009188D01*
X019733Y009120D01*
X017879Y009120D01*
X017786Y009159D01*
X017613Y009159D01*
X017453Y009092D01*
X017331Y008970D01*
X017264Y008810D01*
X017264Y008637D01*
X017331Y008477D01*
X017453Y008354D01*
X017613Y008288D01*
X017786Y008288D01*
X017879Y008326D01*
X022028Y008326D01*
X022028Y007471D01*
X022082Y007340D01*
X022307Y007115D01*
X017293Y007115D01*
X017281Y007128D01*
X017121Y007194D01*
X016948Y007194D01*
X016788Y007128D01*
X016665Y007005D01*
X016599Y006845D01*
X016599Y006672D01*
X016665Y006512D01*
X016788Y006389D01*
X016948Y006323D01*
X017121Y006323D01*
X017281Y006389D01*
X017293Y006402D01*
X020278Y006402D01*
X020186Y006310D01*
X020093Y006087D01*
X020093Y005845D01*
X020186Y005622D01*
X020356Y005451D01*
X020579Y005359D01*
X020821Y005359D01*
X021044Y005451D01*
X021194Y005601D02*
X028280Y005601D01*
X028280Y005760D02*
X021272Y005760D01*
X021307Y005918D02*
X028280Y005918D01*
X028280Y006077D02*
X021307Y006077D01*
X021245Y006235D02*
X028280Y006235D01*
X028280Y006394D02*
X021130Y006394D01*
X020270Y006394D02*
X017285Y006394D01*
X016783Y006394D02*
X010419Y006394D01*
X010419Y006552D02*
X016648Y006552D01*
X016599Y006711D02*
X010419Y006711D01*
X010419Y006869D02*
X016609Y006869D01*
X016688Y007028D02*
X010419Y007028D01*
X010419Y007186D02*
X016929Y007186D01*
X017139Y007186D02*
X022236Y007186D01*
X022080Y007345D02*
X010419Y007345D01*
X010419Y007434D02*
X011981Y008996D01*
X015866Y008996D01*
X015878Y008984D01*
X016038Y008918D01*
X016211Y008918D01*
X016371Y008984D01*
X016494Y009107D01*
X016560Y009267D01*
X016560Y009440D01*
X016494Y009600D01*
X016371Y009722D01*
X020084Y009722D01*
X020242Y009881D02*
X001910Y009881D01*
X001910Y010039D02*
X022895Y010039D01*
X023053Y010198D02*
X020838Y010198D01*
X020533Y010198D02*
X001910Y010198D01*
X001910Y010356D02*
X002306Y010356D01*
X002308Y010355D02*
X002379Y010319D01*
X002455Y010294D01*
X002535Y010281D01*
X002575Y010281D01*
X002615Y010281D01*
X002694Y010294D01*
X002771Y010319D01*
X002842Y010355D01*
X002907Y010402D01*
X002964Y010459D01*
X003011Y010524D01*
X003048Y010596D01*
X003072Y010672D01*
X003085Y010751D01*
X003085Y010791D01*
X002575Y010791D01*
X002575Y010281D01*
X002575Y010791D01*
X002575Y010791D01*
X002575Y010791D01*
X002065Y010791D01*
X002065Y010751D01*
X002077Y010672D01*
X002102Y010596D01*
X002139Y010524D01*
X002186Y010459D01*
X002243Y010402D01*
X002308Y010355D01*
X002145Y010515D02*
X001910Y010515D01*
X001910Y010673D02*
X002077Y010673D01*
X002065Y010791D02*
X002575Y010791D01*
X002575Y010791D01*
X003085Y010791D01*
X003085Y010832D01*
X012186Y010832D01*
X012206Y010673D02*
X003073Y010673D01*
X003085Y010832D02*
X003072Y010911D01*
X003048Y010987D01*
X003011Y011059D01*
X002964Y011124D01*
X002907Y011180D01*
X002842Y011228D01*
X002771Y011264D01*
X002694Y011289D01*
X002615Y011301D01*
X002575Y011301D01*
X002575Y010791D01*
X002575Y010791D01*
X002575Y011301D01*
X002535Y011301D01*
X002455Y011289D01*
X002379Y011264D01*
X002308Y011228D01*
X002243Y011180D01*
X002186Y011124D01*
X002139Y011059D01*
X002102Y010987D01*
X002077Y010911D01*
X002065Y010832D01*
X001910Y010832D01*
X002065Y010832D02*
X002065Y010791D01*
X002104Y010990D02*
X001910Y010990D01*
X001910Y011149D02*
X002211Y011149D01*
X001910Y011307D02*
X013753Y011307D01*
X013719Y011466D02*
X001910Y011466D01*
X001910Y011624D02*
X013744Y011624D01*
X013797Y011783D02*
X001910Y011783D01*
X001910Y011941D02*
X013797Y011941D01*
X013797Y012100D02*
X001910Y012100D01*
X001910Y012258D02*
X013797Y012258D01*
X013847Y012417D02*
X001910Y012417D01*
X001910Y012575D02*
X014000Y012575D01*
X014158Y012734D02*
X001910Y012734D01*
X001910Y012892D02*
X014317Y012892D01*
X014475Y013051D02*
X001910Y013051D01*
X001910Y013209D02*
X014634Y013209D01*
X014904Y012975D02*
X014154Y012225D01*
X014154Y011477D01*
X014564Y011624D02*
X014591Y011624D01*
X014572Y011605D02*
X014523Y011723D01*
X014511Y011736D01*
X014511Y012077D01*
X015052Y012618D01*
X022850Y012618D01*
X022823Y012611D01*
X022782Y012587D01*
X022748Y012554D01*
X022724Y012513D01*
X022712Y012467D01*
X022712Y012175D01*
X023161Y012175D01*
X023161Y012158D01*
X022712Y012158D01*
X022712Y012033D01*
X022707Y012033D01*
X022658Y012013D01*
X022607Y011997D01*
X022593Y011986D01*
X022576Y011979D01*
X022539Y011941D01*
X021278Y011941D01*
X021297Y011923D02*
X021175Y012045D01*
X021015Y012111D01*
X020841Y012111D01*
X020681Y012045D01*
X020669Y012033D01*
X015788Y012033D01*
X015785Y012041D01*
X015663Y012163D01*
X015503Y012229D01*
X015330Y012229D01*
X015170Y012163D01*
X015047Y012041D01*
X014981Y011881D01*
X014981Y011757D01*
X014818Y011757D01*
X014658Y011691D01*
X014572Y011605D01*
X014904Y011322D02*
X022345Y011322D01*
X022778Y011676D01*
X024589Y011676D01*
X024668Y011676D01*
X025180Y011164D01*
X025180Y009038D01*
X024898Y008756D01*
X024443Y008772D01*
X023960Y008251D02*
X024963Y008251D01*
X025672Y008999D01*
X025672Y011676D01*
X026164Y012168D01*
X026202Y012166D01*
X026169Y012166D01*
X026164Y012171D01*
X026164Y012188D01*
X025377Y012975D01*
X014904Y012975D01*
X015009Y012575D02*
X022770Y012575D01*
X022712Y012417D02*
X014851Y012417D01*
X014692Y012258D02*
X022712Y012258D01*
X022712Y012100D02*
X021043Y012100D01*
X020813Y012100D02*
X015726Y012100D01*
X015416Y011794D02*
X015534Y011676D01*
X020928Y011676D01*
X021363Y011679D02*
X021363Y011763D01*
X021297Y011923D01*
X021355Y011783D02*
X022345Y011783D01*
X022218Y011679D02*
X021363Y011679D01*
X022218Y011679D02*
X022539Y011941D01*
X022482Y010990D02*
X022642Y010990D01*
X022720Y010832D02*
X021292Y010832D01*
X021292Y010673D02*
X022911Y010673D01*
X023427Y010673D02*
X023911Y010673D01*
X023720Y010832D02*
X023618Y010832D01*
X024427Y010673D02*
X024823Y010673D01*
X024823Y010515D02*
X021227Y010515D01*
X021108Y010356D02*
X024823Y010356D01*
X024823Y010198D02*
X024696Y010198D01*
X024463Y010198D02*
X024423Y010198D01*
X024423Y010039D02*
X024463Y010039D01*
X024463Y009881D02*
X024423Y009881D01*
X024190Y010198D02*
X023833Y010198D01*
X023991Y010039D02*
X024032Y010039D01*
X023455Y009818D02*
X023290Y009589D01*
X020456Y009589D01*
X020141Y009274D01*
X019705Y009247D02*
X016552Y009247D01*
X016475Y009088D02*
X017449Y009088D01*
X017314Y008930D02*
X016240Y008930D01*
X016010Y008930D02*
X011915Y008930D01*
X011756Y008771D02*
X017264Y008771D01*
X017274Y008613D02*
X011598Y008613D01*
X011439Y008454D02*
X017353Y008454D01*
X017594Y008296D02*
X011281Y008296D01*
X011122Y008137D02*
X022028Y008137D01*
X022028Y007979D02*
X010964Y007979D01*
X010805Y007820D02*
X022028Y007820D01*
X022028Y007662D02*
X010647Y007662D01*
X010488Y007503D02*
X022028Y007503D01*
X022385Y007542D02*
X022700Y007227D01*
X024235Y007227D01*
X024432Y007424D01*
X024443Y007452D01*
X024443Y007772D01*
X023960Y008251D02*
X023504Y007795D01*
X023467Y007795D01*
X023443Y007772D01*
X022385Y007542D02*
X022385Y008723D01*
X022028Y008296D02*
X017805Y008296D01*
X016125Y009353D02*
X011834Y009353D01*
X010062Y007582D01*
X010062Y004550D01*
X009639Y004434D02*
X005463Y004434D01*
X005451Y004447D01*
X005291Y004513D01*
X005118Y004513D01*
X004958Y004447D01*
X004835Y004324D01*
X004769Y004164D01*
X004769Y003991D01*
X004835Y003831D01*
X004958Y003709D01*
X005118Y003642D01*
X005291Y003642D01*
X005451Y003709D01*
X005463Y003721D01*
X006641Y003721D01*
X006587Y003699D01*
X006465Y003576D01*
X006398Y003416D01*
X006398Y003243D01*
X006455Y003105D01*
X006407Y003085D01*
X006352Y003030D01*
X006336Y003046D01*
X006140Y003127D01*
X005927Y003127D01*
X005731Y003046D01*
X005640Y002955D01*
X005549Y003046D01*
X005352Y003127D01*
X005140Y003127D01*
X004943Y003046D01*
X004804Y002907D02*
X004764Y002907D01*
X004459Y002907D02*
X004459Y002907D01*
X004459Y003030D02*
X004424Y003030D01*
X004356Y003020D01*
X004291Y002998D01*
X004229Y002967D01*
X004174Y002927D01*
X004125Y002878D01*
X004085Y002822D01*
X004053Y002761D01*
X004032Y002695D01*
X004021Y002627D01*
X004021Y002593D01*
X004459Y002593D01*
X004459Y002593D01*
X004459Y002593D01*
X004459Y002156D01*
X004424Y002156D01*
X004356Y002166D01*
X004291Y002188D01*
X004229Y002219D01*
X004174Y002259D01*
X004125Y002308D01*
X004085Y002364D01*
X004053Y002425D01*
X004032Y002491D01*
X004021Y002559D01*
X004021Y002593D01*
X004459Y002593D01*
X004459Y003030D01*
X004154Y002907D02*
X003056Y002907D01*
X003214Y002748D02*
X004049Y002748D01*
X004021Y002590D02*
X003294Y002590D01*
X003347Y002431D02*
X004051Y002431D01*
X004160Y002273D02*
X003347Y002273D01*
X003319Y002114D02*
X005006Y002114D01*
X004811Y002273D02*
X004757Y002273D01*
X004459Y002273D02*
X004459Y002273D01*
X004459Y002431D02*
X004459Y002431D01*
X004459Y002590D02*
X004459Y002590D01*
X004459Y002593D02*
X004459Y002593D01*
X004459Y002748D02*
X004459Y002748D01*
X005502Y003065D02*
X005777Y003065D01*
X006290Y003065D02*
X006387Y003065D01*
X006406Y003224D02*
X001910Y003224D01*
X001910Y003382D02*
X006398Y003382D01*
X006450Y003541D02*
X001910Y003541D01*
X001910Y003699D02*
X004981Y003699D01*
X004824Y003858D02*
X001910Y003858D01*
X001910Y004016D02*
X004769Y004016D01*
X004773Y004175D02*
X001910Y004175D01*
X001910Y004333D02*
X004844Y004333D01*
X005067Y004492D02*
X001910Y004492D01*
X001910Y004650D02*
X009632Y004650D01*
X009627Y004637D02*
X009627Y004463D01*
X009639Y004434D01*
X009627Y004492D02*
X005342Y004492D01*
X005204Y004078D02*
X013684Y004078D01*
X013460Y003699D02*
X013457Y003699D01*
X012857Y003673D02*
X011097Y003673D01*
X011653Y002907D02*
X012697Y002907D01*
X012605Y002748D02*
X011653Y002748D01*
X011653Y002590D02*
X012583Y002590D01*
X012583Y002577D02*
X012594Y002509D01*
X012616Y002444D01*
X012647Y002382D01*
X012687Y002326D01*
X012736Y002278D01*
X012792Y002237D01*
X012853Y002206D01*
X012919Y002185D01*
X012987Y002174D01*
X013021Y002174D01*
X013021Y002611D01*
X013021Y002611D01*
X012583Y002611D01*
X012583Y002577D01*
X012622Y002431D02*
X011653Y002431D01*
X011645Y002273D02*
X012743Y002273D01*
X013021Y002273D02*
X013021Y002273D01*
X013021Y002431D02*
X013021Y002431D01*
X013021Y002590D02*
X013021Y002590D01*
X013299Y002273D02*
X013391Y002273D01*
X013613Y002114D02*
X011536Y002114D01*
X010701Y002114D02*
X010546Y002114D01*
X010116Y002114D02*
X009759Y002114D01*
X009329Y002114D02*
X007249Y002114D01*
X007352Y002273D02*
X008469Y002273D01*
X008353Y002431D02*
X007355Y002431D01*
X007355Y002590D02*
X008319Y002590D01*
X008343Y002748D02*
X007355Y002748D01*
X007355Y002907D02*
X008441Y002907D01*
X008756Y002590D02*
X008756Y002590D01*
X008756Y002431D02*
X008756Y002431D01*
X008756Y002273D02*
X008756Y002273D01*
X009044Y002273D02*
X009119Y002273D01*
X006834Y003330D02*
X013211Y003330D01*
X013639Y003224D02*
X016495Y003224D01*
X016389Y003065D02*
X015836Y003065D01*
X015917Y002907D02*
X016383Y002907D01*
X016383Y002748D02*
X015917Y002748D01*
X015917Y002590D02*
X016383Y002590D01*
X016383Y002431D02*
X015917Y002431D01*
X015907Y002273D02*
X016387Y002273D01*
X016492Y002114D02*
X015785Y002114D01*
X014981Y002114D02*
X014792Y002114D01*
X014400Y002114D02*
X014004Y002114D01*
X014109Y003065D02*
X014295Y003065D01*
X014897Y003065D02*
X014930Y003065D01*
X017485Y003224D02*
X017748Y003224D01*
X018233Y003224D02*
X018748Y003224D01*
X018530Y003065D02*
X018451Y003065D01*
X019233Y003224D02*
X020748Y003224D01*
X020530Y003065D02*
X020310Y003065D01*
X019990Y003065D02*
X019990Y003065D01*
X019990Y003177D02*
X019990Y002667D01*
X019990Y003177D01*
X019990Y002907D02*
X019990Y002907D01*
X019990Y002748D02*
X019990Y002748D01*
X019990Y002667D02*
X019990Y002667D01*
X019990Y002590D02*
X019990Y002590D01*
X019990Y002431D02*
X019990Y002431D01*
X019990Y002273D02*
X019990Y002273D01*
X020315Y002273D02*
X020527Y002273D01*
X020740Y002114D02*
X019241Y002114D01*
X019454Y002273D02*
X019666Y002273D01*
X018740Y002114D02*
X018241Y002114D01*
X018454Y002273D02*
X018527Y002273D01*
X017740Y002114D02*
X017489Y002114D01*
X019451Y003065D02*
X019670Y003065D01*
X021241Y002114D02*
X021795Y002114D01*
X021804Y001956D02*
X003254Y001956D01*
X003116Y001797D02*
X027048Y001797D01*
X023253Y004016D02*
X023197Y004016D01*
X023197Y004175D02*
X023412Y004175D01*
X020377Y005443D02*
X019877Y005443D01*
X019967Y005601D02*
X020206Y005601D01*
X020129Y005760D02*
X019985Y005760D01*
X019944Y005918D02*
X020093Y005918D01*
X020093Y006077D02*
X019820Y006077D01*
X020155Y006235D02*
X010419Y006235D01*
X010419Y006077D02*
X015146Y006077D01*
X015023Y005918D02*
X010419Y005918D01*
X010419Y005760D02*
X014981Y005760D01*
X014999Y005601D02*
X010419Y005601D01*
X010419Y005443D02*
X015089Y005443D01*
X015412Y005731D02*
X015412Y005731D01*
X019550Y005731D01*
X020694Y005969D02*
X020697Y005966D01*
X020700Y005966D01*
X022578Y006759D02*
X022582Y006755D01*
X025416Y006755D01*
X026168Y007507D01*
X026164Y011125D01*
X026164Y011132D01*
X026169Y011166D01*
X026723Y011149D02*
X028280Y011149D01*
X028280Y011307D02*
X026710Y011307D01*
X026645Y011466D02*
X028280Y011466D01*
X028280Y011624D02*
X027698Y011624D01*
X027668Y011612D02*
X027929Y011720D01*
X028129Y011920D01*
X028237Y012181D01*
X028237Y012463D01*
X028129Y012724D01*
X027929Y012924D01*
X027668Y013032D01*
X027386Y013032D01*
X027125Y012924D01*
X026925Y012724D01*
X026817Y012463D01*
X026817Y012181D01*
X026925Y011920D01*
X027125Y011720D01*
X027386Y011612D01*
X027668Y011612D01*
X027356Y011624D02*
X026495Y011624D01*
X026569Y011783D02*
X027062Y011783D01*
X026916Y011941D02*
X026676Y011941D01*
X026723Y012100D02*
X026851Y012100D01*
X026817Y012258D02*
X026723Y012258D01*
X026665Y012417D02*
X026817Y012417D01*
X026864Y012575D02*
X026544Y012575D01*
X026935Y012734D02*
X026123Y012734D01*
X025965Y012892D02*
X027094Y012892D01*
X027961Y012892D02*
X028280Y012892D01*
X028280Y012734D02*
X028119Y012734D01*
X028191Y012575D02*
X028280Y012575D01*
X028280Y012417D02*
X028237Y012417D01*
X028237Y012258D02*
X028280Y012258D01*
X028280Y012100D02*
X028204Y012100D01*
X028138Y011941D02*
X028280Y011941D01*
X028280Y011783D02*
X027992Y011783D01*
X028280Y010990D02*
X026696Y010990D01*
X026618Y010832D02*
X028280Y010832D01*
X028280Y010673D02*
X026522Y010673D01*
X026522Y010515D02*
X028280Y010515D01*
X028280Y010356D02*
X026522Y010356D01*
X026522Y010198D02*
X028280Y010198D01*
X028280Y010039D02*
X026522Y010039D01*
X026522Y009881D02*
X028280Y009881D01*
X028280Y009722D02*
X026523Y009722D01*
X026523Y009564D02*
X028280Y009564D01*
X028280Y009405D02*
X026523Y009405D01*
X026523Y009247D02*
X028280Y009247D01*
X028280Y009088D02*
X026523Y009088D01*
X026523Y008930D02*
X028280Y008930D01*
X028280Y008771D02*
X026524Y008771D01*
X026524Y008613D02*
X028280Y008613D01*
X028280Y008454D02*
X026524Y008454D01*
X026524Y008296D02*
X028280Y008296D01*
X028280Y008137D02*
X026524Y008137D01*
X026524Y007979D02*
X028280Y007979D01*
X028280Y007820D02*
X026524Y007820D01*
X026525Y007662D02*
X028280Y007662D01*
X028280Y007503D02*
X026525Y007503D01*
X026525Y007436D02*
X026525Y007436D01*
X026525Y007436D01*
X026487Y007345D02*
X028280Y007345D01*
X028280Y007186D02*
X026352Y007186D01*
X026471Y007305D02*
X026471Y007305D01*
X026525Y007578D02*
X026525Y007578D01*
X026194Y007028D02*
X028280Y007028D01*
X028280Y006869D02*
X026035Y006869D01*
X025877Y006711D02*
X028280Y006711D01*
X028280Y006552D02*
X025718Y006552D01*
X022578Y006759D02*
X017034Y006759D01*
X015414Y005733D02*
X015412Y005731D01*
X014065Y004967D02*
X011688Y004967D01*
X011428Y004967D02*
X010419Y004967D01*
X010419Y004809D02*
X010419Y007434D01*
X009705Y007503D02*
X001910Y007503D01*
X001910Y007662D02*
X009709Y007662D01*
X009705Y007653D02*
X009705Y004809D01*
X009693Y004797D01*
X009627Y004637D01*
X009705Y004809D02*
X001910Y004809D01*
X001910Y004967D02*
X009705Y004967D01*
X009705Y005126D02*
X001910Y005126D01*
X001910Y005284D02*
X009705Y005284D01*
X009705Y005443D02*
X002913Y005443D01*
X002934Y005451D02*
X003104Y005622D01*
X003197Y005845D01*
X003197Y006087D01*
X003104Y006310D01*
X002934Y006480D01*
X002711Y006573D01*
X002469Y006573D01*
X002246Y006480D01*
X002075Y006310D01*
X001983Y006087D01*
X001983Y005845D01*
X002075Y005622D01*
X002246Y005451D01*
X002469Y005359D01*
X002711Y005359D01*
X002934Y005451D01*
X003083Y005601D02*
X009705Y005601D01*
X009705Y005760D02*
X003161Y005760D01*
X003197Y005918D02*
X009705Y005918D01*
X009705Y006077D02*
X003197Y006077D01*
X003135Y006235D02*
X009705Y006235D01*
X009705Y006394D02*
X003020Y006394D01*
X002760Y006552D02*
X009705Y006552D01*
X009705Y006711D02*
X001910Y006711D01*
X001910Y006869D02*
X009705Y006869D01*
X009705Y007028D02*
X001910Y007028D01*
X001910Y007186D02*
X009705Y007186D01*
X009705Y007345D02*
X001910Y007345D01*
X001910Y007820D02*
X009796Y007820D01*
X009759Y007784D02*
X009705Y007653D01*
X009759Y007784D02*
X011531Y009555D01*
X011631Y009656D01*
X011763Y009710D01*
X015866Y009710D01*
X015878Y009722D01*
X016038Y009789D01*
X016211Y009789D01*
X016371Y009722D01*
X016509Y009564D02*
X019814Y009564D01*
X019724Y009405D02*
X016560Y009405D01*
X015878Y009722D02*
X001910Y009722D01*
X001910Y009564D02*
X011539Y009564D01*
X011381Y009405D02*
X001910Y009405D01*
X001910Y009247D02*
X011222Y009247D01*
X011064Y009088D02*
X001910Y009088D01*
X001910Y008930D02*
X010905Y008930D01*
X010747Y008771D02*
X001910Y008771D01*
X001910Y008613D02*
X010588Y008613D01*
X010430Y008454D02*
X001910Y008454D01*
X001910Y008296D02*
X010271Y008296D01*
X010113Y008137D02*
X001910Y008137D01*
X001910Y007979D02*
X009954Y007979D01*
X012301Y010515D02*
X003004Y010515D01*
X002844Y010356D02*
X020262Y010356D01*
X020143Y010515D02*
X015225Y010515D01*
X015319Y010673D02*
X020078Y010673D01*
X020078Y010832D02*
X015340Y010832D01*
X014904Y010810D02*
X012621Y010810D01*
X012224Y010990D02*
X003046Y010990D01*
X002939Y011149D02*
X012344Y011149D01*
X014511Y011783D02*
X014981Y011783D01*
X015006Y011941D02*
X014511Y011941D01*
X014534Y012100D02*
X015106Y012100D01*
X023443Y009772D02*
X023455Y009818D01*
X024618Y010832D02*
X024720Y010832D01*
X025169Y011154D02*
X024668Y011676D01*
X025169Y011166D02*
X025169Y011154D01*
X026164Y012168D02*
X026184Y012188D01*
X025806Y013051D02*
X028280Y013051D01*
X028280Y013209D02*
X025648Y013209D01*
X028280Y013368D02*
X001910Y013368D01*
X002575Y011149D02*
X002575Y011149D01*
X002575Y010990D02*
X002575Y010990D01*
X002575Y010832D02*
X002575Y010832D01*
X002575Y010673D02*
X002575Y010673D01*
X002575Y010515D02*
X002575Y010515D01*
X002575Y010356D02*
X002575Y010356D01*
X002420Y006552D02*
X001910Y006552D01*
X001910Y006394D02*
X002160Y006394D01*
X002045Y006235D02*
X001910Y006235D01*
X001910Y006077D02*
X001983Y006077D01*
X001983Y005918D02*
X001910Y005918D01*
X001910Y005760D02*
X002018Y005760D01*
X002096Y005601D02*
X001910Y005601D01*
X001910Y005443D02*
X002267Y005443D01*
X005428Y003699D02*
X006588Y003699D01*
X006393Y002114D02*
X006274Y002114D01*
X005793Y002114D02*
X005487Y002114D01*
X021454Y002273D02*
X021795Y002273D01*
X022368Y002114D02*
X022528Y002114D01*
X022528Y001956D02*
X022368Y001956D01*
D23*
X021243Y004786D03*
X019550Y005731D03*
X019235Y006282D03*
X017034Y006759D03*
X015416Y005731D03*
X014196Y004550D03*
X013684Y004078D03*
X012857Y003673D03*
X013211Y003330D03*
X011097Y003673D03*
X011558Y004550D03*
X010062Y004550D03*
X006834Y003330D03*
X005204Y004078D03*
X008763Y006322D03*
X011322Y007030D03*
X015259Y008448D03*
X016125Y009353D03*
X017700Y008723D03*
X020141Y009274D03*
X022385Y008723D03*
X017227Y010692D03*
X015416Y011794D03*
X014904Y011322D03*
X014154Y011477D03*
X014904Y010810D03*
X012621Y010810D03*
X020928Y011676D03*
X021715Y011873D03*
X019314Y004983D03*
X018133Y004983D03*
D24*
X017700Y008723D02*
X022385Y008723D01*
M02*
