G75*
G70*
%OFA0B0*%
%FSLAX24Y24*%
%IPPOS*%
%LPD*%
%AMOC8*
5,1,8,0,0,1.08239X$1,22.5*
%
%ADD10C,0.0000*%
%ADD11R,0.0500X0.0220*%
%ADD12R,0.0220X0.0500*%
%ADD13R,0.0551X0.0748*%
%ADD14R,0.0512X0.0591*%
%ADD15R,0.0591X0.0512*%
%ADD16R,0.0394X0.0551*%
%ADD17R,0.0472X0.0472*%
%ADD18R,0.0660X0.0660*%
%ADD19C,0.0660*%
%ADD20OC8,0.0600*%
%ADD21R,0.0600X0.0600*%
%ADD22R,0.0554X0.0554*%
%ADD23C,0.0554*%
%ADD24R,0.0515X0.0515*%
%ADD25C,0.0515*%
%ADD26C,0.0866*%
%ADD27C,0.0669*%
%ADD28R,0.0866X0.0236*%
%ADD29R,0.0450X0.0400*%
%ADD30C,0.0160*%
%ADD31C,0.0317*%
%ADD32C,0.0240*%
%ADD33C,0.0400*%
D10*
X001633Y001315D02*
X001633Y013697D01*
X028557Y013697D01*
X028557Y001315D01*
X001633Y001315D01*
X002204Y002322D02*
X002206Y002363D01*
X002212Y002404D01*
X002222Y002444D01*
X002235Y002483D01*
X002252Y002520D01*
X002273Y002556D01*
X002297Y002590D01*
X002324Y002621D01*
X002353Y002649D01*
X002386Y002675D01*
X002420Y002697D01*
X002457Y002716D01*
X002495Y002731D01*
X002535Y002743D01*
X002575Y002751D01*
X002616Y002755D01*
X002658Y002755D01*
X002699Y002751D01*
X002739Y002743D01*
X002779Y002731D01*
X002817Y002716D01*
X002853Y002697D01*
X002888Y002675D01*
X002921Y002649D01*
X002950Y002621D01*
X002977Y002590D01*
X003001Y002556D01*
X003022Y002520D01*
X003039Y002483D01*
X003052Y002444D01*
X003062Y002404D01*
X003068Y002363D01*
X003070Y002322D01*
X003068Y002281D01*
X003062Y002240D01*
X003052Y002200D01*
X003039Y002161D01*
X003022Y002124D01*
X003001Y002088D01*
X002977Y002054D01*
X002950Y002023D01*
X002921Y001995D01*
X002888Y001969D01*
X002854Y001947D01*
X002817Y001928D01*
X002779Y001913D01*
X002739Y001901D01*
X002699Y001893D01*
X002658Y001889D01*
X002616Y001889D01*
X002575Y001893D01*
X002535Y001901D01*
X002495Y001913D01*
X002457Y001928D01*
X002421Y001947D01*
X002386Y001969D01*
X002353Y001995D01*
X002324Y002023D01*
X002297Y002054D01*
X002273Y002088D01*
X002252Y002124D01*
X002235Y002161D01*
X002222Y002200D01*
X002212Y002240D01*
X002206Y002281D01*
X002204Y002322D01*
X027094Y002322D02*
X027096Y002363D01*
X027102Y002404D01*
X027112Y002444D01*
X027125Y002483D01*
X027142Y002520D01*
X027163Y002556D01*
X027187Y002590D01*
X027214Y002621D01*
X027243Y002649D01*
X027276Y002675D01*
X027310Y002697D01*
X027347Y002716D01*
X027385Y002731D01*
X027425Y002743D01*
X027465Y002751D01*
X027506Y002755D01*
X027548Y002755D01*
X027589Y002751D01*
X027629Y002743D01*
X027669Y002731D01*
X027707Y002716D01*
X027743Y002697D01*
X027778Y002675D01*
X027811Y002649D01*
X027840Y002621D01*
X027867Y002590D01*
X027891Y002556D01*
X027912Y002520D01*
X027929Y002483D01*
X027942Y002444D01*
X027952Y002404D01*
X027958Y002363D01*
X027960Y002322D01*
X027958Y002281D01*
X027952Y002240D01*
X027942Y002200D01*
X027929Y002161D01*
X027912Y002124D01*
X027891Y002088D01*
X027867Y002054D01*
X027840Y002023D01*
X027811Y001995D01*
X027778Y001969D01*
X027744Y001947D01*
X027707Y001928D01*
X027669Y001913D01*
X027629Y001901D01*
X027589Y001893D01*
X027548Y001889D01*
X027506Y001889D01*
X027465Y001893D01*
X027425Y001901D01*
X027385Y001913D01*
X027347Y001928D01*
X027311Y001947D01*
X027276Y001969D01*
X027243Y001995D01*
X027214Y002023D01*
X027187Y002054D01*
X027163Y002088D01*
X027142Y002124D01*
X027125Y002161D01*
X027112Y002200D01*
X027102Y002240D01*
X027096Y002281D01*
X027094Y002322D01*
X027094Y012322D02*
X027096Y012363D01*
X027102Y012404D01*
X027112Y012444D01*
X027125Y012483D01*
X027142Y012520D01*
X027163Y012556D01*
X027187Y012590D01*
X027214Y012621D01*
X027243Y012649D01*
X027276Y012675D01*
X027310Y012697D01*
X027347Y012716D01*
X027385Y012731D01*
X027425Y012743D01*
X027465Y012751D01*
X027506Y012755D01*
X027548Y012755D01*
X027589Y012751D01*
X027629Y012743D01*
X027669Y012731D01*
X027707Y012716D01*
X027743Y012697D01*
X027778Y012675D01*
X027811Y012649D01*
X027840Y012621D01*
X027867Y012590D01*
X027891Y012556D01*
X027912Y012520D01*
X027929Y012483D01*
X027942Y012444D01*
X027952Y012404D01*
X027958Y012363D01*
X027960Y012322D01*
X027958Y012281D01*
X027952Y012240D01*
X027942Y012200D01*
X027929Y012161D01*
X027912Y012124D01*
X027891Y012088D01*
X027867Y012054D01*
X027840Y012023D01*
X027811Y011995D01*
X027778Y011969D01*
X027744Y011947D01*
X027707Y011928D01*
X027669Y011913D01*
X027629Y011901D01*
X027589Y011893D01*
X027548Y011889D01*
X027506Y011889D01*
X027465Y011893D01*
X027425Y011901D01*
X027385Y011913D01*
X027347Y011928D01*
X027311Y011947D01*
X027276Y011969D01*
X027243Y011995D01*
X027214Y012023D01*
X027187Y012054D01*
X027163Y012088D01*
X027142Y012124D01*
X027125Y012161D01*
X027112Y012200D01*
X027102Y012240D01*
X027096Y012281D01*
X027094Y012322D01*
D11*
X016946Y009551D03*
X016946Y009236D03*
X016946Y008921D03*
X016946Y008606D03*
X016946Y008291D03*
X016946Y007976D03*
X016946Y007661D03*
X016946Y007346D03*
X013566Y007346D03*
X013566Y007661D03*
X013566Y007976D03*
X013566Y008291D03*
X013566Y008606D03*
X013566Y008921D03*
X013566Y009236D03*
X013566Y009551D03*
D12*
X014154Y010139D03*
X014469Y010139D03*
X014784Y010139D03*
X015099Y010139D03*
X015414Y010139D03*
X015729Y010139D03*
X016044Y010139D03*
X016359Y010139D03*
X016359Y006759D03*
X016044Y006759D03*
X015729Y006759D03*
X015414Y006759D03*
X015099Y006759D03*
X014784Y006759D03*
X014469Y006759D03*
X014154Y006759D03*
D13*
X018523Y008365D03*
X019468Y008365D03*
X019468Y010097D03*
X018523Y010097D03*
D14*
X018609Y011041D03*
X019357Y011041D03*
X019370Y007426D03*
X018622Y007426D03*
X016894Y005001D03*
X016146Y005001D03*
X016158Y003983D03*
X016906Y003983D03*
D15*
X022070Y005475D03*
X022070Y006223D03*
X022070Y007247D03*
X022070Y007995D03*
X022088Y010305D03*
X022088Y011053D03*
X011571Y008634D03*
X011571Y007886D03*
X009453Y006084D03*
X009453Y005336D03*
X007306Y005357D03*
X007306Y006105D03*
X008125Y007889D03*
X008125Y008637D03*
X005204Y008644D03*
X005204Y007896D03*
D16*
X010808Y005250D03*
X011556Y005250D03*
X011182Y006116D03*
D17*
X006589Y007837D03*
X006589Y008664D03*
D18*
X016990Y002667D03*
D19*
X017990Y002667D03*
X018990Y002667D03*
X019990Y002667D03*
X020990Y002667D03*
X020700Y005966D03*
X020685Y010791D03*
X002575Y010791D03*
X002590Y005966D03*
D20*
X023443Y008772D03*
X024443Y008772D03*
X024443Y009772D03*
X023443Y009772D03*
X024443Y007772D03*
D21*
X023443Y007772D03*
D22*
X023169Y012166D03*
D23*
X024169Y012166D03*
X025169Y012166D03*
X026169Y012166D03*
X026169Y011166D03*
X025169Y011166D03*
X024169Y011166D03*
X023169Y011166D03*
D24*
X015383Y002611D03*
X011119Y002604D03*
X006821Y002593D03*
D25*
X006034Y002593D03*
X005246Y002593D03*
X004459Y002593D03*
X008756Y002604D03*
X009544Y002604D03*
X010331Y002604D03*
X013021Y002611D03*
X013808Y002611D03*
X014596Y002611D03*
D26*
X023814Y003573D03*
X026570Y003573D03*
D27*
X026176Y002589D03*
X024208Y002589D03*
D28*
X023645Y004902D03*
X023645Y005402D03*
X023645Y005902D03*
X023645Y006402D03*
X025692Y006402D03*
X025692Y005902D03*
X025692Y005402D03*
X025692Y004902D03*
D29*
X006013Y005421D03*
X005213Y005771D03*
X006013Y006121D03*
D30*
X005511Y006136D02*
X005511Y006376D01*
X005553Y006477D01*
X005616Y006540D01*
X005616Y006555D01*
X005536Y006555D01*
X005132Y006151D01*
X005193Y006151D01*
X005193Y005791D01*
X005233Y005791D01*
X005233Y006151D01*
X005462Y006151D01*
X005508Y006138D01*
X005511Y006136D01*
X005511Y006235D02*
X005217Y006235D01*
X005233Y006077D02*
X005193Y006077D01*
X005193Y005918D02*
X005233Y005918D01*
X005193Y005791D02*
X004808Y005791D01*
X004808Y005827D01*
X004667Y005685D01*
X004491Y005613D01*
X003095Y005613D01*
X002934Y005451D01*
X002711Y005359D01*
X002469Y005359D01*
X002246Y005451D01*
X002075Y005622D01*
X001983Y005845D01*
X001983Y006087D01*
X002075Y006310D01*
X002246Y006480D01*
X002469Y006573D01*
X002711Y006573D01*
X002771Y006548D01*
X002815Y006566D01*
X002822Y006566D01*
X002827Y006568D01*
X002916Y006566D01*
X004199Y006566D01*
X004703Y007070D01*
X004703Y007454D01*
X004674Y007483D01*
X004632Y007585D01*
X004632Y008207D01*
X004674Y008309D01*
X004729Y008364D01*
X004729Y008365D01*
X004729Y008596D01*
X005156Y008596D01*
X005156Y008692D01*
X004729Y008692D01*
X004729Y008924D01*
X004741Y008970D01*
X004765Y009011D01*
X004798Y009044D01*
X004839Y009068D01*
X004885Y009080D01*
X005156Y009080D01*
X005156Y008692D01*
X005252Y008692D01*
X005679Y008692D01*
X005679Y008924D01*
X005667Y008970D01*
X005643Y009011D01*
X005610Y009044D01*
X005569Y009068D01*
X005523Y009080D01*
X005252Y009080D01*
X005252Y008692D01*
X005252Y008596D01*
X005679Y008596D01*
X005679Y008365D01*
X005679Y008364D01*
X005734Y008309D01*
X005776Y008207D01*
X005776Y007585D01*
X005734Y007483D01*
X005656Y007406D01*
X005656Y007349D01*
X006240Y007349D01*
X006196Y007367D01*
X006118Y007444D01*
X006076Y007546D01*
X006076Y008129D01*
X006118Y008231D01*
X006196Y008308D01*
X006211Y008315D01*
X006209Y008318D01*
X006185Y008359D01*
X006173Y008404D01*
X006173Y008626D01*
X006551Y008626D01*
X006551Y008702D01*
X006173Y008702D01*
X006173Y008924D01*
X006185Y008970D01*
X006209Y009011D01*
X006242Y009045D01*
X006283Y009068D01*
X006329Y009080D01*
X006551Y009080D01*
X006551Y008702D01*
X006627Y008702D01*
X007005Y008702D01*
X007005Y008924D01*
X006993Y008970D01*
X006969Y009011D01*
X006936Y009045D01*
X006895Y009068D01*
X006849Y009080D01*
X006627Y009080D01*
X006627Y008702D01*
X006627Y008626D01*
X007005Y008626D01*
X007005Y008404D01*
X006993Y008359D01*
X006969Y008318D01*
X006967Y008315D01*
X006982Y008308D01*
X007045Y008246D01*
X007572Y008246D01*
X007579Y008263D01*
X007553Y008326D01*
X007553Y008948D01*
X007595Y009050D01*
X007673Y009128D01*
X007774Y009170D01*
X008153Y009170D01*
X010095Y011112D01*
X010227Y011167D01*
X012362Y011167D01*
X012374Y011179D01*
X012534Y011245D01*
X012708Y011245D01*
X012868Y011179D01*
X012990Y011056D01*
X013056Y010897D01*
X013056Y010723D01*
X012990Y010563D01*
X012868Y010441D01*
X012708Y010375D01*
X012534Y010375D01*
X012374Y010441D01*
X012362Y010453D01*
X010445Y010453D01*
X008697Y008705D01*
X008697Y008326D01*
X008671Y008263D01*
X008697Y008200D01*
X008697Y007578D01*
X008655Y007476D01*
X008577Y007398D01*
X008475Y007356D01*
X007774Y007356D01*
X007673Y007398D01*
X007595Y007476D01*
X007572Y007532D01*
X007096Y007532D01*
X007060Y007444D01*
X006982Y007367D01*
X006939Y007349D01*
X009783Y007349D01*
X009783Y008364D01*
X009781Y008439D01*
X009783Y008443D01*
X009783Y008448D01*
X009812Y008517D01*
X009838Y008586D01*
X009842Y008589D01*
X009844Y008594D01*
X009896Y008646D01*
X010669Y009455D01*
X010670Y009460D01*
X010723Y009512D01*
X010774Y009566D01*
X010779Y009568D01*
X010782Y009572D01*
X010851Y009600D01*
X010919Y009630D01*
X010923Y009630D01*
X010928Y009632D01*
X011002Y009632D01*
X011076Y009634D01*
X011081Y009632D01*
X013040Y009632D01*
X013040Y009716D01*
X013082Y009818D01*
X013160Y009896D01*
X013209Y009916D01*
X013209Y012219D01*
X013263Y012351D01*
X014169Y013256D01*
X014269Y013357D01*
X014400Y013411D01*
X024352Y013411D01*
X024484Y013357D01*
X025120Y012720D01*
X025279Y012720D01*
X025483Y012636D01*
X025639Y012480D01*
X025669Y012407D01*
X025700Y012480D01*
X025855Y012636D01*
X026059Y012720D01*
X026279Y012720D01*
X026483Y012636D01*
X026639Y012480D01*
X026723Y012276D01*
X026723Y012056D01*
X026639Y011852D01*
X026483Y011696D01*
X026410Y011666D01*
X026483Y011636D01*
X026639Y011480D01*
X026723Y011276D01*
X026723Y011056D01*
X026639Y010852D01*
X026483Y010696D01*
X026279Y010612D01*
X026059Y010612D01*
X025855Y010696D01*
X025700Y010852D01*
X025669Y010926D01*
X025639Y010852D01*
X025483Y010696D01*
X025279Y010612D01*
X025059Y010612D01*
X024965Y010651D01*
X024962Y010643D01*
X024942Y010586D01*
X024935Y010578D01*
X024931Y010568D01*
X024888Y010525D01*
X024643Y010251D01*
X024923Y009971D01*
X024923Y009792D01*
X024463Y009792D01*
X024463Y009752D01*
X024923Y009752D01*
X024923Y009573D01*
X024690Y009340D01*
X024918Y009113D01*
X025166Y009113D01*
X025297Y009059D01*
X025397Y008958D01*
X025397Y008958D01*
X027136Y007219D01*
X027190Y007088D01*
X027190Y005188D01*
X027136Y005057D01*
X026679Y004600D01*
X026548Y004546D01*
X026272Y004546D01*
X026180Y004507D01*
X025204Y004507D01*
X025102Y004550D01*
X025024Y004628D01*
X024982Y004729D01*
X024982Y005076D01*
X025014Y005152D01*
X024982Y005229D01*
X024982Y005461D01*
X024620Y005100D01*
X024489Y005046D01*
X024257Y005046D01*
X024258Y005044D01*
X024258Y004902D01*
X023645Y004902D01*
X023645Y004902D01*
X023645Y004604D01*
X024101Y004604D01*
X024147Y004617D01*
X024188Y004640D01*
X024222Y004674D01*
X024245Y004715D01*
X024258Y004761D01*
X024258Y004902D01*
X023645Y004902D01*
X023645Y004902D01*
X023645Y004604D01*
X023188Y004604D01*
X023142Y004617D01*
X023101Y004640D01*
X023067Y004674D01*
X023044Y004715D01*
X023031Y004761D01*
X023031Y004902D01*
X023645Y004902D01*
X023645Y004902D01*
X023645Y004902D01*
X023645Y005007D01*
X023645Y005007D01*
X023645Y004902D01*
X023031Y004902D01*
X023031Y005044D01*
X023032Y005046D01*
X022583Y005046D01*
X022522Y004985D01*
X022420Y004943D01*
X021904Y004943D01*
X021678Y004717D01*
X021678Y004700D01*
X021612Y004540D01*
X021490Y004417D01*
X021330Y004351D01*
X021156Y004351D01*
X020996Y004417D01*
X020874Y004540D01*
X020808Y004700D01*
X020808Y004873D01*
X020874Y005033D01*
X020996Y005155D01*
X021156Y005222D01*
X021174Y005222D01*
X021498Y005546D01*
X021498Y005786D01*
X021524Y005849D01*
X021498Y005912D01*
X021498Y006153D01*
X021162Y006489D01*
X021162Y006362D01*
X021215Y006310D01*
X021307Y006087D01*
X021307Y005845D01*
X021215Y005622D01*
X021044Y005451D01*
X020821Y005359D01*
X020579Y005359D01*
X020356Y005451D01*
X020186Y005622D01*
X020109Y005806D01*
X019985Y005674D01*
X019985Y005645D01*
X019919Y005485D01*
X019874Y005440D01*
X022375Y002938D01*
X023132Y002938D01*
X023484Y002941D01*
X023412Y002971D01*
X023212Y003171D01*
X023104Y003432D01*
X023104Y003714D01*
X023212Y003975D01*
X023412Y004175D01*
X023673Y004283D01*
X023955Y004283D01*
X024216Y004175D01*
X024416Y003975D01*
X024524Y003714D01*
X024524Y003432D01*
X024416Y003171D01*
X024411Y003166D01*
X024554Y003107D01*
X024726Y002935D01*
X024819Y002710D01*
X024819Y002467D01*
X024726Y002242D01*
X024554Y002070D01*
X024329Y001977D01*
X024086Y001977D01*
X023861Y002070D01*
X023703Y002229D01*
X023205Y002225D01*
X023204Y002225D01*
X023134Y002225D01*
X023064Y002224D01*
X023063Y002225D01*
X022156Y002225D01*
X022025Y002279D01*
X021925Y002379D01*
X021597Y002707D01*
X021597Y002547D01*
X021505Y002324D01*
X021334Y002153D01*
X021111Y002061D01*
X020870Y002061D01*
X020646Y002153D01*
X020476Y002324D01*
X020436Y002419D01*
X020426Y002400D01*
X020379Y002335D01*
X020322Y002278D01*
X020258Y002231D01*
X020186Y002195D01*
X020110Y002170D01*
X020030Y002157D01*
X019990Y002157D01*
X019990Y002667D01*
X019990Y002667D01*
X019990Y002157D01*
X019950Y002157D01*
X019871Y002170D01*
X019794Y002195D01*
X019723Y002231D01*
X019658Y002278D01*
X019601Y002335D01*
X019554Y002400D01*
X019544Y002419D01*
X019505Y002324D01*
X019334Y002153D01*
X019111Y002061D01*
X018870Y002061D01*
X018646Y002153D01*
X018490Y002309D01*
X018334Y002153D01*
X018111Y002061D01*
X017870Y002061D01*
X017646Y002153D01*
X017574Y002226D01*
X017555Y002181D01*
X017477Y002103D01*
X017388Y002066D01*
X017388Y001992D01*
X017388Y001992D01*
X017388Y001991D01*
X017358Y001919D01*
X017328Y001846D01*
X017328Y001846D01*
X017327Y001845D01*
X017272Y001790D01*
X017217Y001734D01*
X017216Y001734D01*
X017216Y001733D01*
X017144Y001703D01*
X017072Y001673D01*
X017071Y001673D01*
X017070Y001673D01*
X016992Y001673D01*
X016914Y001673D01*
X016913Y001673D01*
X005180Y001673D01*
X005034Y001733D01*
X004922Y001845D01*
X004862Y001991D01*
X004862Y002222D01*
X004793Y002290D01*
X004788Y002303D01*
X004744Y002259D01*
X004688Y002219D01*
X004627Y002188D01*
X004561Y002166D01*
X004493Y002156D01*
X004459Y002156D01*
X004459Y002593D01*
X004459Y002593D01*
X004459Y002593D01*
X004459Y003030D01*
X004493Y003030D01*
X004561Y003020D01*
X004627Y002998D01*
X004688Y002967D01*
X004744Y002927D01*
X004788Y002883D01*
X004793Y002896D01*
X004943Y003046D01*
X004980Y003061D01*
X006451Y004532D01*
X006597Y004593D01*
X009056Y004593D01*
X009056Y004823D01*
X009001Y004846D01*
X008923Y004924D01*
X008881Y005025D01*
X008881Y005647D01*
X008923Y005749D01*
X008978Y005804D01*
X008978Y005805D01*
X008978Y006036D01*
X009405Y006036D01*
X009405Y006132D01*
X008978Y006132D01*
X008978Y006364D01*
X008990Y006410D01*
X009014Y006451D01*
X009047Y006484D01*
X009088Y006508D01*
X009134Y006520D01*
X009405Y006520D01*
X009405Y006132D01*
X009501Y006132D01*
X009501Y006520D01*
X009772Y006520D01*
X009783Y006517D01*
X009783Y006555D01*
X007799Y006555D01*
X007836Y006518D01*
X007878Y006416D01*
X007878Y005794D01*
X007836Y005692D01*
X007781Y005638D01*
X007781Y005637D01*
X007781Y005405D01*
X007354Y005405D01*
X007354Y005309D01*
X007354Y004921D01*
X007625Y004921D01*
X007671Y004934D01*
X007712Y004957D01*
X007745Y004991D01*
X007769Y005032D01*
X007781Y005078D01*
X007781Y005309D01*
X007354Y005309D01*
X007258Y005309D01*
X007258Y004921D01*
X006987Y004921D01*
X006941Y004934D01*
X006900Y004957D01*
X006867Y004991D01*
X006843Y005032D01*
X006831Y005078D01*
X006831Y005309D01*
X007258Y005309D01*
X007258Y005405D01*
X006831Y005405D01*
X006831Y005637D01*
X006831Y005638D01*
X006776Y005692D01*
X006769Y005708D01*
X006501Y005708D01*
X006515Y005676D01*
X006515Y005165D01*
X006473Y005064D01*
X006395Y004986D01*
X006370Y004976D01*
X006370Y004840D01*
X006316Y004709D01*
X005640Y004033D01*
X005640Y003991D01*
X005573Y003831D01*
X005451Y003709D01*
X005291Y003642D01*
X005118Y003642D01*
X004958Y003709D01*
X004835Y003831D01*
X004769Y003991D01*
X004769Y004164D01*
X004835Y004324D01*
X004958Y004447D01*
X005106Y004508D01*
X005607Y005010D01*
X005553Y005064D01*
X005511Y005165D01*
X005511Y005405D01*
X005508Y005403D01*
X005462Y005391D01*
X005233Y005391D01*
X005233Y005751D01*
X005193Y005751D01*
X004808Y005751D01*
X004808Y005547D01*
X004820Y005501D01*
X004844Y005460D01*
X004878Y005427D01*
X004919Y005403D01*
X004964Y005391D01*
X005193Y005391D01*
X005193Y005751D01*
X005193Y005791D01*
X005193Y005760D02*
X004741Y005760D01*
X004808Y005601D02*
X003083Y005601D01*
X002913Y005443D02*
X004861Y005443D01*
X005193Y005443D02*
X005233Y005443D01*
X005233Y005601D02*
X005193Y005601D01*
X005511Y005284D02*
X001910Y005284D01*
X001910Y005126D02*
X005528Y005126D01*
X005565Y004967D02*
X001910Y004967D01*
X001910Y004809D02*
X005406Y004809D01*
X005248Y004650D02*
X001910Y004650D01*
X001910Y004492D02*
X005067Y004492D01*
X004844Y004333D02*
X001910Y004333D01*
X001910Y004175D02*
X004773Y004175D01*
X004769Y004016D02*
X001910Y004016D01*
X001910Y003858D02*
X004824Y003858D01*
X004981Y003699D02*
X001910Y003699D01*
X001910Y003541D02*
X005460Y003541D01*
X005428Y003699D02*
X005618Y003699D01*
X005584Y003858D02*
X005777Y003858D01*
X005640Y004016D02*
X005935Y004016D01*
X005782Y004175D02*
X006094Y004175D01*
X005940Y004333D02*
X006252Y004333D01*
X006099Y004492D02*
X006411Y004492D01*
X006257Y004650D02*
X009056Y004650D01*
X009056Y004809D02*
X006357Y004809D01*
X006370Y004967D02*
X006890Y004967D01*
X006831Y005126D02*
X006498Y005126D01*
X006515Y005284D02*
X006831Y005284D01*
X007258Y005284D02*
X007354Y005284D01*
X007354Y005126D02*
X007258Y005126D01*
X007258Y004967D02*
X007354Y004967D01*
X007722Y004967D02*
X008905Y004967D01*
X008881Y005126D02*
X007781Y005126D01*
X007781Y005284D02*
X008881Y005284D01*
X008881Y005443D02*
X007781Y005443D01*
X007781Y005601D02*
X008881Y005601D01*
X008934Y005760D02*
X007864Y005760D01*
X007878Y005918D02*
X008978Y005918D01*
X008978Y006235D02*
X007878Y006235D01*
X007878Y006077D02*
X009405Y006077D01*
X009405Y006235D02*
X009501Y006235D01*
X009501Y006394D02*
X009405Y006394D01*
X009783Y006552D02*
X007802Y006552D01*
X007878Y006394D02*
X008986Y006394D01*
X010577Y006394D02*
X010806Y006394D01*
X010806Y006415D02*
X010806Y006134D01*
X011164Y006134D01*
X011164Y006097D01*
X010806Y006097D01*
X010806Y005816D01*
X010809Y005802D01*
X010577Y005802D01*
X010577Y008210D01*
X010999Y008652D01*
X010999Y008323D01*
X011041Y008221D01*
X011096Y008166D01*
X011096Y008165D01*
X011096Y007934D01*
X011523Y007934D01*
X011523Y007838D01*
X011096Y007838D01*
X011096Y007606D01*
X011108Y007560D01*
X011132Y007519D01*
X011165Y007486D01*
X011206Y007462D01*
X011252Y007450D01*
X011523Y007450D01*
X011523Y007838D01*
X011619Y007838D01*
X011619Y007934D01*
X012046Y007934D01*
X012046Y008165D01*
X012046Y008166D01*
X012101Y008221D01*
X012113Y008249D01*
X013088Y008249D01*
X013082Y008243D01*
X013040Y008141D01*
X013040Y008018D01*
X012787Y008018D01*
X012656Y007964D01*
X012301Y007609D01*
X012200Y007508D01*
X012146Y007377D01*
X012146Y004451D01*
X011509Y003814D01*
X011466Y003919D01*
X011343Y004042D01*
X011183Y004108D01*
X011010Y004108D01*
X010850Y004042D01*
X010728Y003919D01*
X010661Y003759D01*
X010661Y003738D01*
X010084Y003147D01*
X010035Y003099D01*
X010034Y003097D01*
X010033Y003095D01*
X010010Y003038D01*
X009937Y002966D01*
X009846Y003057D01*
X009650Y003138D01*
X009437Y003138D01*
X009241Y003057D01*
X009091Y002906D01*
X009085Y002893D01*
X009041Y002937D01*
X008986Y002978D01*
X008924Y003009D01*
X008859Y003030D01*
X008791Y003041D01*
X008756Y003041D01*
X008722Y003041D01*
X008654Y003030D01*
X008588Y003009D01*
X008527Y002978D01*
X008471Y002937D01*
X008423Y002889D01*
X008382Y002833D01*
X008351Y002772D01*
X008330Y002706D01*
X008319Y002638D01*
X008319Y002604D01*
X008756Y002604D01*
X008756Y003041D01*
X008756Y002604D01*
X008756Y002604D01*
X008756Y002604D01*
X008319Y002604D01*
X008319Y002569D01*
X008330Y002501D01*
X008341Y002467D01*
X007355Y002467D01*
X007355Y002906D01*
X007313Y003007D01*
X007235Y003085D01*
X007208Y003096D01*
X007269Y003243D01*
X007269Y003416D01*
X007224Y003524D01*
X009464Y003524D01*
X009595Y003578D01*
X010131Y004115D01*
X010148Y004115D01*
X010308Y004181D01*
X010431Y004304D01*
X010497Y004463D01*
X010497Y004637D01*
X010455Y004739D01*
X010556Y004697D01*
X011060Y004697D01*
X011162Y004739D01*
X011167Y004745D01*
X011123Y004637D01*
X011123Y004463D01*
X011189Y004304D01*
X011311Y004181D01*
X011471Y004115D01*
X011645Y004115D01*
X011805Y004181D01*
X011927Y004304D01*
X011993Y004463D01*
X011993Y004637D01*
X011939Y004768D01*
X011988Y004817D01*
X012030Y004919D01*
X012030Y005580D01*
X011988Y005682D01*
X011910Y005760D01*
X011808Y005802D01*
X011555Y005802D01*
X011559Y005816D01*
X011559Y006097D01*
X011201Y006097D01*
X011201Y006134D01*
X011559Y006134D01*
X011559Y006415D01*
X011547Y006461D01*
X011523Y006502D01*
X011490Y006535D01*
X011449Y006559D01*
X011403Y006571D01*
X011201Y006571D01*
X011201Y006134D01*
X011164Y006134D01*
X011164Y006571D01*
X010962Y006571D01*
X010916Y006559D01*
X010875Y006535D01*
X010841Y006502D01*
X010818Y006461D01*
X010806Y006415D01*
X010904Y006552D02*
X010577Y006552D01*
X010577Y006711D02*
X012146Y006711D01*
X012146Y006869D02*
X010577Y006869D01*
X010577Y007028D02*
X012146Y007028D01*
X012146Y007186D02*
X010577Y007186D01*
X010577Y007345D02*
X012146Y007345D01*
X011977Y007486D02*
X012010Y007519D01*
X012034Y007560D01*
X012046Y007606D01*
X012046Y007838D01*
X011619Y007838D01*
X011619Y007450D01*
X011890Y007450D01*
X011936Y007462D01*
X011977Y007486D01*
X011994Y007503D02*
X012198Y007503D01*
X012046Y007662D02*
X012354Y007662D01*
X012512Y007820D02*
X012046Y007820D01*
X012070Y007897D02*
X011558Y007897D01*
X011523Y007820D02*
X011619Y007820D01*
X011619Y007662D02*
X011523Y007662D01*
X011523Y007503D02*
X011619Y007503D01*
X011148Y007503D02*
X010577Y007503D01*
X010577Y007662D02*
X011096Y007662D01*
X011096Y007820D02*
X010577Y007820D01*
X010577Y007979D02*
X011096Y007979D01*
X011096Y008137D02*
X010577Y008137D01*
X010659Y008296D02*
X011010Y008296D01*
X010999Y008454D02*
X010810Y008454D01*
X010961Y008613D02*
X010999Y008613D01*
X011571Y008634D02*
X011597Y008660D01*
X011597Y008684D01*
X011675Y008606D01*
X013566Y008606D01*
X014093Y008613D02*
X015162Y008613D01*
X015191Y008584D02*
X015337Y008523D01*
X015689Y008523D01*
X015689Y008211D01*
X015749Y008065D01*
X015861Y007954D01*
X016007Y007893D01*
X016447Y007893D01*
X016420Y007826D01*
X016420Y007703D01*
X014093Y007703D01*
X014093Y007826D01*
X014093Y008141D01*
X014051Y008243D01*
X014003Y008291D01*
X014051Y008339D01*
X014093Y008441D01*
X014093Y008839D01*
X014936Y008839D01*
X015191Y008584D01*
X015004Y008771D02*
X014093Y008771D01*
X014093Y008454D02*
X015689Y008454D01*
X015689Y008296D02*
X014008Y008296D01*
X014093Y008137D02*
X015719Y008137D01*
X015836Y007979D02*
X014093Y007979D01*
X014093Y007820D02*
X016420Y007820D01*
X016946Y007976D02*
X017699Y007976D01*
X017700Y007977D01*
X017704Y008251D01*
X017349Y008606D01*
X016946Y008606D01*
X016946Y008291D02*
X016946Y008290D01*
X017473Y008296D02*
X017594Y008296D01*
X017613Y008288D02*
X017786Y008288D01*
X017946Y008354D01*
X017970Y008378D01*
X017970Y007936D01*
X018012Y007834D01*
X018090Y007756D01*
X018186Y007717D01*
X018186Y007474D01*
X018574Y007474D01*
X018574Y007378D01*
X018186Y007378D01*
X018186Y007127D01*
X018175Y007139D01*
X018175Y007377D01*
X018120Y007508D01*
X018020Y007609D01*
X017665Y007964D01*
X017534Y008018D01*
X017425Y008018D01*
X017431Y008024D01*
X017473Y008126D01*
X017473Y008346D01*
X017613Y008288D01*
X017805Y008296D02*
X017970Y008296D01*
X017970Y008137D02*
X017473Y008137D01*
X017628Y007979D02*
X017970Y007979D01*
X018026Y007820D02*
X017808Y007820D01*
X017699Y007976D02*
X018251Y007424D01*
X018621Y007424D01*
X018622Y007426D01*
X018574Y007378D02*
X018670Y007378D01*
X018670Y006950D01*
X018902Y006950D01*
X018903Y006951D01*
X018958Y006896D01*
X019059Y006854D01*
X019681Y006854D01*
X019783Y006896D01*
X019784Y006896D01*
X019784Y006502D01*
X019469Y006166D01*
X019463Y006166D01*
X019304Y006100D01*
X019258Y006055D01*
X018363Y006950D01*
X018574Y006950D01*
X018574Y007378D01*
X018574Y007345D02*
X018670Y007345D01*
X018670Y007186D02*
X018574Y007186D01*
X018574Y007028D02*
X018670Y007028D01*
X018444Y006869D02*
X019021Y006869D01*
X018603Y006711D02*
X019784Y006711D01*
X019784Y006869D02*
X019719Y006869D01*
X019784Y006552D02*
X018761Y006552D01*
X018920Y006394D02*
X019682Y006394D01*
X019533Y006235D02*
X019078Y006235D01*
X019237Y006077D02*
X019280Y006077D01*
X019550Y005731D02*
X020141Y006361D01*
X020141Y009274D01*
X020020Y009696D02*
X020020Y010526D01*
X019978Y010628D01*
X019900Y010706D01*
X019798Y010748D01*
X019793Y010748D01*
X019793Y010993D01*
X019405Y010993D01*
X019405Y011089D01*
X019309Y011089D01*
X019309Y011516D01*
X019077Y011516D01*
X019077Y011516D01*
X019022Y011571D01*
X018920Y011613D01*
X018298Y011613D01*
X018196Y011571D01*
X018118Y011493D01*
X018076Y011391D01*
X018076Y010692D01*
X018012Y010628D01*
X017970Y010526D01*
X017970Y010050D01*
X017828Y009908D01*
X017324Y009908D01*
X017251Y009938D01*
X016746Y009938D01*
X016746Y010444D01*
X016703Y010545D01*
X016626Y010623D01*
X016524Y010665D01*
X016401Y010665D01*
X016401Y011053D01*
X017493Y012146D01*
X021686Y012146D01*
X022343Y011489D01*
X022136Y011489D01*
X022136Y011101D01*
X022040Y011101D01*
X022040Y011489D01*
X021769Y011489D01*
X021724Y011477D01*
X021682Y011453D01*
X021650Y011421D01*
X021624Y011485D01*
X021363Y011745D01*
X021363Y011763D01*
X021297Y011923D01*
X021175Y012045D01*
X021015Y012111D01*
X020841Y012111D01*
X020681Y012045D01*
X020559Y011923D01*
X020493Y011763D01*
X020493Y011589D01*
X020559Y011429D01*
X020590Y011398D01*
X020564Y011398D01*
X020341Y011306D01*
X020171Y011135D01*
X020078Y010912D01*
X020078Y010671D01*
X020171Y010448D01*
X020208Y010410D01*
X020208Y009710D01*
X020054Y009710D01*
X020020Y009696D01*
X020020Y009722D02*
X020208Y009722D01*
X020208Y009881D02*
X020020Y009881D01*
X020020Y010039D02*
X020208Y010039D01*
X020208Y010198D02*
X020020Y010198D01*
X020020Y010356D02*
X020208Y010356D01*
X020143Y010515D02*
X020020Y010515D01*
X020078Y010673D02*
X019933Y010673D01*
X019793Y010832D02*
X020078Y010832D01*
X020111Y010990D02*
X019793Y010990D01*
X019793Y011089D02*
X019405Y011089D01*
X019405Y011516D01*
X019637Y011516D01*
X019682Y011504D01*
X019723Y011480D01*
X019757Y011446D01*
X019781Y011405D01*
X019793Y011360D01*
X019793Y011089D01*
X019793Y011149D02*
X020184Y011149D01*
X020345Y011307D02*
X019793Y011307D01*
X019405Y011307D02*
X019309Y011307D01*
X019309Y011149D02*
X019405Y011149D01*
X019405Y011466D02*
X019309Y011466D01*
X019738Y011466D02*
X020544Y011466D01*
X020493Y011624D02*
X016971Y011624D01*
X016813Y011466D02*
X018107Y011466D01*
X018076Y011307D02*
X016654Y011307D01*
X016496Y011149D02*
X018076Y011149D01*
X018076Y010990D02*
X016401Y010990D01*
X016401Y010832D02*
X018076Y010832D01*
X018058Y010673D02*
X016401Y010673D01*
X016716Y010515D02*
X017970Y010515D01*
X017970Y010356D02*
X016746Y010356D01*
X016746Y010198D02*
X017970Y010198D01*
X017960Y010039D02*
X016746Y010039D01*
X016361Y010136D02*
X016359Y010139D01*
X016361Y010136D02*
X016361Y009589D01*
X016125Y009353D01*
X016086Y008921D02*
X016086Y008920D01*
X016946Y009236D02*
X018919Y009236D01*
X019432Y008723D01*
X019432Y008401D01*
X019468Y008365D01*
X019468Y007523D01*
X019370Y007426D01*
X018186Y007503D02*
X018122Y007503D01*
X018186Y007662D02*
X017967Y007662D01*
X017818Y007306D02*
X017463Y007661D01*
X016946Y007661D01*
X016946Y007346D02*
X014157Y007346D01*
X013211Y006400D01*
X013211Y003330D01*
X012784Y003224D02*
X011928Y003224D01*
X011770Y003065D02*
X012860Y003065D01*
X012842Y003083D02*
X012895Y003031D01*
X012853Y003017D01*
X012792Y002986D01*
X012736Y002945D01*
X012687Y002896D01*
X012647Y002841D01*
X012616Y002779D01*
X012594Y002714D01*
X012583Y002646D01*
X012583Y002612D01*
X013021Y002612D01*
X013021Y002611D01*
X012583Y002611D01*
X012583Y002577D01*
X012594Y002509D01*
X012608Y002467D01*
X011653Y002467D01*
X011653Y002916D01*
X011644Y002939D01*
X012422Y003717D01*
X012422Y003586D01*
X012488Y003426D01*
X012611Y003304D01*
X012771Y003238D01*
X012778Y003238D01*
X012842Y003083D01*
X012697Y002907D02*
X011653Y002907D01*
X011653Y002748D02*
X012605Y002748D01*
X012583Y002590D02*
X011653Y002590D01*
X011119Y002604D02*
X011119Y002919D01*
X012503Y004303D01*
X012503Y007306D01*
X012858Y007661D01*
X013566Y007661D01*
X013566Y007346D02*
X013134Y007346D01*
X012857Y007070D01*
X012857Y003673D01*
X012422Y003699D02*
X012404Y003699D01*
X012441Y003541D02*
X012245Y003541D01*
X012087Y003382D02*
X012532Y003382D01*
X011553Y003858D02*
X011491Y003858D01*
X011369Y004016D02*
X011712Y004016D01*
X011789Y004175D02*
X011870Y004175D01*
X011939Y004333D02*
X012029Y004333D01*
X011993Y004492D02*
X012146Y004492D01*
X012146Y004650D02*
X011988Y004650D01*
X011980Y004809D02*
X012146Y004809D01*
X012146Y004967D02*
X012030Y004967D01*
X012030Y005126D02*
X012146Y005126D01*
X012146Y005284D02*
X012030Y005284D01*
X011556Y005250D02*
X011556Y004588D01*
X011558Y004589D01*
X011558Y004550D01*
X011177Y004333D02*
X010443Y004333D01*
X010497Y004492D02*
X011123Y004492D01*
X011128Y004650D02*
X010492Y004650D01*
X010455Y004739D02*
X010455Y004739D01*
X010062Y004550D02*
X009393Y003881D01*
X006873Y003881D01*
X006034Y003041D01*
X006034Y002593D01*
X005259Y002582D02*
X005258Y002582D01*
X005246Y002593D01*
X005219Y002620D01*
X005219Y002739D01*
X005259Y002621D02*
X005259Y002582D01*
X004811Y002273D02*
X004757Y002273D01*
X004862Y002114D02*
X003319Y002114D01*
X003347Y002181D02*
X003239Y001920D01*
X003039Y001720D01*
X002778Y001612D01*
X002495Y001612D01*
X002235Y001720D01*
X002035Y001920D01*
X001927Y002181D01*
X001927Y002463D01*
X002035Y002724D01*
X002235Y002924D01*
X002495Y003032D01*
X002778Y003032D01*
X003039Y002924D01*
X003239Y002724D01*
X003347Y002463D01*
X003347Y002181D01*
X003347Y002273D02*
X004160Y002273D01*
X004174Y002259D02*
X004229Y002219D01*
X004291Y002188D01*
X004356Y002166D01*
X004424Y002156D01*
X004459Y002156D01*
X004459Y002593D01*
X004459Y003030D01*
X004424Y003030D01*
X004356Y003020D01*
X004291Y002998D01*
X004229Y002967D01*
X004174Y002927D01*
X004125Y002878D01*
X004085Y002822D01*
X004053Y002761D01*
X004032Y002695D01*
X004021Y002627D01*
X004021Y002593D01*
X004459Y002593D01*
X004021Y002593D01*
X004021Y002559D01*
X004032Y002491D01*
X004053Y002425D01*
X004085Y002364D01*
X004125Y002308D01*
X004174Y002259D01*
X004051Y002431D02*
X003347Y002431D01*
X003294Y002590D02*
X004021Y002590D01*
X004049Y002748D02*
X003214Y002748D01*
X003056Y002907D02*
X004154Y002907D01*
X004459Y002907D02*
X004459Y002907D01*
X004459Y002748D02*
X004459Y002748D01*
X004459Y002593D02*
X004459Y002593D01*
X004459Y002590D02*
X004459Y002590D01*
X004459Y002431D02*
X004459Y002431D01*
X004459Y002273D02*
X004459Y002273D01*
X004876Y001956D02*
X003254Y001956D01*
X003116Y001797D02*
X004970Y001797D01*
X004804Y002907D02*
X004764Y002907D01*
X004984Y003065D02*
X001910Y003065D01*
X001910Y002907D02*
X002218Y002907D01*
X002059Y002748D02*
X001910Y002748D01*
X001910Y002590D02*
X001979Y002590D01*
X001927Y002431D02*
X001910Y002431D01*
X001910Y002273D02*
X001927Y002273D01*
X001910Y002114D02*
X001954Y002114D01*
X001910Y001956D02*
X002020Y001956D01*
X001910Y001797D02*
X002157Y001797D01*
X001910Y001639D02*
X002430Y001639D01*
X002843Y001639D02*
X027321Y001639D01*
X027386Y001612D02*
X027668Y001612D01*
X027929Y001720D01*
X028129Y001920D01*
X028237Y002181D01*
X028237Y002463D01*
X028129Y002724D01*
X027929Y002924D01*
X027668Y003032D01*
X027386Y003032D01*
X027125Y002924D01*
X026925Y002724D01*
X026817Y002463D01*
X026817Y002181D01*
X026925Y001920D01*
X027125Y001720D01*
X027386Y001612D01*
X027733Y001639D02*
X028280Y001639D01*
X028280Y001592D02*
X001910Y001592D01*
X001910Y013420D01*
X028280Y013420D01*
X028280Y001592D01*
X028280Y001797D02*
X028007Y001797D01*
X028144Y001956D02*
X028280Y001956D01*
X028280Y002114D02*
X028210Y002114D01*
X028237Y002273D02*
X028280Y002273D01*
X028280Y002431D02*
X028237Y002431D01*
X028280Y002590D02*
X028185Y002590D01*
X028105Y002748D02*
X028280Y002748D01*
X028280Y002907D02*
X027946Y002907D01*
X028280Y003065D02*
X027066Y003065D01*
X026972Y002971D02*
X027172Y003171D01*
X027280Y003432D01*
X027280Y003714D01*
X027172Y003975D01*
X026972Y004175D01*
X026711Y004283D01*
X026429Y004283D01*
X026168Y004175D01*
X025968Y003975D01*
X025860Y003714D01*
X025860Y003432D01*
X025968Y003171D01*
X026050Y003089D01*
X025979Y003066D01*
X025906Y003029D01*
X025841Y002981D01*
X025784Y002924D01*
X025736Y002858D01*
X025699Y002786D01*
X025674Y002709D01*
X025661Y002629D01*
X025661Y002589D01*
X026176Y002589D01*
X026176Y002589D01*
X026691Y002589D01*
X026691Y002629D01*
X026678Y002709D01*
X026653Y002786D01*
X026616Y002858D01*
X026613Y002863D01*
X026711Y002863D01*
X026972Y002971D01*
X027108Y002907D02*
X026817Y002907D01*
X026950Y002748D02*
X026665Y002748D01*
X026691Y002590D02*
X026870Y002590D01*
X026817Y002431D02*
X026666Y002431D01*
X026678Y002468D02*
X026691Y002548D01*
X026691Y002589D01*
X026176Y002589D01*
X026176Y002589D01*
X025661Y002589D01*
X025661Y002548D01*
X025674Y002468D01*
X025699Y002391D01*
X025736Y002319D01*
X025784Y002253D01*
X025841Y002196D01*
X025906Y002148D01*
X025979Y002112D01*
X026056Y002087D01*
X026136Y002074D01*
X026176Y002074D01*
X026176Y002589D01*
X026176Y002589D01*
X026176Y002074D01*
X026217Y002074D01*
X026297Y002087D01*
X026374Y002112D01*
X026446Y002148D01*
X026511Y002196D01*
X026569Y002253D01*
X026616Y002319D01*
X026653Y002391D01*
X026678Y002468D01*
X026583Y002273D02*
X026817Y002273D01*
X026845Y002114D02*
X026379Y002114D01*
X026176Y002114D02*
X026176Y002114D01*
X026176Y002273D02*
X026176Y002273D01*
X026176Y002431D02*
X026176Y002431D01*
X025974Y002114D02*
X024598Y002114D01*
X024739Y002273D02*
X025769Y002273D01*
X025686Y002431D02*
X024804Y002431D01*
X024819Y002590D02*
X025661Y002590D01*
X025687Y002748D02*
X024803Y002748D01*
X024738Y002907D02*
X025771Y002907D01*
X025978Y003065D02*
X024596Y003065D01*
X024438Y003224D02*
X025946Y003224D01*
X025880Y003382D02*
X024503Y003382D01*
X024524Y003541D02*
X025860Y003541D01*
X025860Y003699D02*
X024524Y003699D01*
X024464Y003858D02*
X025919Y003858D01*
X026009Y004016D02*
X024375Y004016D01*
X024216Y004175D02*
X026168Y004175D01*
X026972Y004175D02*
X028280Y004175D01*
X028280Y004333D02*
X020980Y004333D01*
X020922Y004492D02*
X020822Y004492D01*
X020828Y004650D02*
X020663Y004650D01*
X020808Y004809D02*
X020505Y004809D01*
X020346Y004967D02*
X020847Y004967D01*
X020967Y005126D02*
X020188Y005126D01*
X020029Y005284D02*
X021236Y005284D01*
X021395Y005443D02*
X021023Y005443D01*
X021194Y005601D02*
X021498Y005601D01*
X021498Y005760D02*
X021272Y005760D01*
X021307Y005918D02*
X021498Y005918D01*
X021498Y006077D02*
X021307Y006077D01*
X021245Y006235D02*
X021415Y006235D01*
X021257Y006394D02*
X021162Y006394D01*
X021322Y006834D02*
X021322Y011282D01*
X020928Y011676D01*
X021355Y011783D02*
X022049Y011783D01*
X021890Y011941D02*
X021278Y011941D01*
X021043Y012100D02*
X021732Y012100D01*
X021834Y012503D02*
X022700Y011637D01*
X023699Y011637D01*
X024169Y011166D01*
X024169Y011059D01*
X023684Y010574D01*
X023290Y010574D01*
X022897Y010180D01*
X022897Y008605D01*
X022286Y007995D01*
X022070Y007995D01*
X022818Y008054D02*
X023015Y008251D01*
X023841Y008251D01*
X024274Y007818D01*
X024397Y007818D01*
X024443Y007772D01*
X025692Y006523D01*
X025692Y006402D01*
X025692Y005902D01*
X024918Y005902D01*
X024418Y005402D01*
X023645Y005402D01*
X022339Y005402D01*
X022339Y005422D01*
X022109Y005652D01*
X021243Y004786D01*
X021658Y004650D02*
X023091Y004650D01*
X023031Y004809D02*
X021770Y004809D01*
X021564Y004492D02*
X028280Y004492D01*
X028280Y004650D02*
X026730Y004650D01*
X026888Y004809D02*
X028280Y004809D01*
X028280Y004967D02*
X027047Y004967D01*
X027165Y005126D02*
X028280Y005126D01*
X028280Y005284D02*
X027190Y005284D01*
X026834Y005259D02*
X026834Y007017D01*
X025095Y008756D01*
X024459Y008756D01*
X024443Y008772D01*
X025225Y009088D02*
X028280Y009088D01*
X028280Y008930D02*
X025425Y008930D01*
X025584Y008771D02*
X028280Y008771D01*
X028280Y008613D02*
X025742Y008613D01*
X025901Y008454D02*
X028280Y008454D01*
X028280Y008296D02*
X026059Y008296D01*
X026218Y008137D02*
X028280Y008137D01*
X028280Y007979D02*
X026376Y007979D01*
X026535Y007820D02*
X028280Y007820D01*
X028280Y007662D02*
X026693Y007662D01*
X026852Y007503D02*
X028280Y007503D01*
X028280Y007345D02*
X027010Y007345D01*
X027150Y007186D02*
X028280Y007186D01*
X028280Y007028D02*
X027190Y007028D01*
X027190Y006869D02*
X028280Y006869D01*
X028280Y006711D02*
X027190Y006711D01*
X027190Y006552D02*
X028280Y006552D01*
X028280Y006394D02*
X027190Y006394D01*
X027190Y006235D02*
X028280Y006235D01*
X028280Y006077D02*
X027190Y006077D01*
X027190Y005918D02*
X028280Y005918D01*
X028280Y005760D02*
X027190Y005760D01*
X027190Y005601D02*
X028280Y005601D01*
X028280Y005443D02*
X027190Y005443D01*
X026834Y005259D02*
X026477Y004902D01*
X025692Y004902D01*
X024982Y004967D02*
X024258Y004967D01*
X024258Y004809D02*
X024982Y004809D01*
X025015Y004650D02*
X024198Y004650D01*
X023645Y004650D02*
X023645Y004650D01*
X023645Y004809D02*
X023645Y004809D01*
X023645Y004967D02*
X023645Y004967D01*
X023031Y004967D02*
X022480Y004967D01*
X022339Y005402D02*
X022070Y005475D01*
X022070Y006086D02*
X021322Y006834D01*
X022070Y007247D02*
X022523Y007247D01*
X022818Y007542D01*
X022818Y008054D01*
X023443Y007772D02*
X023465Y007750D01*
X023465Y007643D01*
X024471Y006637D01*
X024471Y006243D01*
X024131Y005902D01*
X023645Y005902D01*
X023645Y006402D02*
X022147Y006402D01*
X022109Y006243D01*
X022089Y006223D01*
X022070Y006223D01*
X022070Y006086D01*
X020700Y005966D02*
X020688Y005978D01*
X020685Y005978D01*
X020129Y005760D02*
X020066Y005760D01*
X019967Y005601D02*
X020206Y005601D01*
X020377Y005443D02*
X019877Y005443D01*
X018960Y005219D02*
X018960Y002698D01*
X018990Y002667D01*
X019544Y002916D02*
X019505Y003011D01*
X019334Y003182D01*
X019316Y003189D01*
X019316Y004476D01*
X020628Y003164D01*
X020476Y003011D01*
X020436Y002916D01*
X020426Y002935D01*
X020379Y003000D01*
X020322Y003056D01*
X020258Y003104D01*
X020186Y003140D01*
X020110Y003165D01*
X020030Y003177D01*
X019990Y003177D01*
X019950Y003177D01*
X019871Y003165D01*
X019794Y003140D01*
X019723Y003104D01*
X019658Y003056D01*
X019601Y003000D01*
X019554Y002935D01*
X019544Y002916D01*
X019451Y003065D02*
X019670Y003065D01*
X019316Y003224D02*
X020569Y003224D01*
X020530Y003065D02*
X020310Y003065D01*
X019990Y003065D02*
X019990Y003065D01*
X019990Y003177D02*
X019990Y002667D01*
X019990Y003177D01*
X019990Y002907D02*
X019990Y002907D01*
X019990Y002748D02*
X019990Y002748D01*
X019990Y002667D02*
X019990Y002667D01*
X019990Y002590D02*
X019990Y002590D01*
X019990Y002431D02*
X019990Y002431D01*
X019990Y002273D02*
X019990Y002273D01*
X020315Y002273D02*
X020527Y002273D01*
X020740Y002114D02*
X019241Y002114D01*
X019454Y002273D02*
X019666Y002273D01*
X018740Y002114D02*
X018241Y002114D01*
X018454Y002273D02*
X018527Y002273D01*
X018015Y002692D02*
X017990Y002667D01*
X018015Y002692D02*
X018015Y002700D01*
X018605Y003290D01*
X018605Y005101D01*
X018093Y005613D01*
X016007Y005613D01*
X015729Y005891D01*
X015729Y006759D01*
X016044Y006759D02*
X016044Y006049D01*
X016164Y005928D01*
X018251Y005928D01*
X018960Y005219D01*
X019314Y004983D02*
X020990Y003307D01*
X020990Y002667D01*
X021549Y002431D02*
X021873Y002431D01*
X021714Y002590D02*
X021597Y002590D01*
X021454Y002273D02*
X022040Y002273D01*
X022227Y002582D02*
X023133Y002582D01*
X024124Y002589D01*
X024208Y002589D01*
X023817Y002114D02*
X021241Y002114D01*
X022227Y002582D02*
X017818Y006991D01*
X017818Y007306D01*
X018175Y007345D02*
X018186Y007345D01*
X018175Y007186D02*
X018186Y007186D01*
X017034Y006759D02*
X017030Y006755D01*
X016362Y006755D01*
X016359Y006759D01*
X015414Y006759D02*
X015414Y005733D01*
X015412Y005731D01*
X015412Y005731D01*
X015416Y005727D01*
X015416Y005731D01*
X015416Y005727D02*
X016142Y005001D01*
X016146Y005001D01*
X016158Y004989D01*
X016158Y004976D01*
X016164Y004983D01*
X016158Y004976D02*
X016158Y003983D01*
X016906Y003983D02*
X016991Y003898D01*
X016912Y004983D02*
X016894Y005001D01*
X016912Y004983D02*
X018133Y004983D01*
X019316Y004333D02*
X019459Y004333D01*
X019316Y004175D02*
X019618Y004175D01*
X019776Y004016D02*
X019316Y004016D01*
X019316Y003858D02*
X019935Y003858D01*
X020093Y003699D02*
X019316Y003699D01*
X019316Y003541D02*
X020252Y003541D01*
X020410Y003382D02*
X019316Y003382D01*
X021139Y004175D02*
X023412Y004175D01*
X023253Y004016D02*
X021297Y004016D01*
X021456Y003858D02*
X023163Y003858D01*
X023104Y003699D02*
X021614Y003699D01*
X021773Y003541D02*
X023104Y003541D01*
X023124Y003382D02*
X021931Y003382D01*
X022090Y003224D02*
X023190Y003224D01*
X023318Y003065D02*
X022248Y003065D01*
X024646Y005126D02*
X025003Y005126D01*
X024982Y005284D02*
X024805Y005284D01*
X024963Y005443D02*
X024982Y005443D01*
X025692Y005402D02*
X026190Y005402D01*
X026440Y005652D01*
X026440Y006834D01*
X025023Y008251D01*
X024235Y008251D01*
X023719Y008767D01*
X023443Y008772D01*
X023954Y009274D01*
X023960Y010023D01*
X024629Y010771D01*
X024629Y011597D01*
X025169Y012159D01*
X025169Y012166D01*
X024281Y013054D01*
X014471Y013054D01*
X013566Y012149D01*
X013566Y009550D01*
X013566Y009550D01*
X013566Y009551D01*
X013145Y009881D02*
X009873Y009881D01*
X010032Y010039D02*
X013209Y010039D01*
X013209Y010198D02*
X010190Y010198D01*
X010349Y010356D02*
X013209Y010356D01*
X013209Y010515D02*
X012941Y010515D01*
X013035Y010673D02*
X013209Y010673D01*
X013209Y010832D02*
X013056Y010832D01*
X013017Y010990D02*
X013209Y010990D01*
X013209Y011149D02*
X012898Y011149D01*
X013209Y011307D02*
X001910Y011307D01*
X001910Y011149D02*
X002211Y011149D01*
X002186Y011124D02*
X002139Y011059D01*
X002102Y010987D01*
X002077Y010911D01*
X002065Y010832D01*
X001910Y010832D01*
X002065Y010832D02*
X002065Y010791D01*
X002065Y010751D01*
X002077Y010672D01*
X002102Y010596D01*
X002139Y010524D01*
X002186Y010459D01*
X002243Y010402D01*
X002308Y010355D01*
X002379Y010319D01*
X002455Y010294D01*
X002535Y010281D01*
X002575Y010281D01*
X002615Y010281D01*
X002694Y010294D01*
X002771Y010319D01*
X002842Y010355D01*
X002907Y010402D01*
X002964Y010459D01*
X003011Y010524D01*
X003048Y010596D01*
X003072Y010672D01*
X003085Y010751D01*
X003085Y010791D01*
X002575Y010791D01*
X002575Y010281D01*
X002575Y010791D01*
X002575Y010791D01*
X002575Y010791D01*
X002065Y010791D01*
X002575Y010791D01*
X002575Y010791D01*
X003085Y010791D01*
X003085Y010832D01*
X009815Y010832D01*
X009973Y010990D02*
X003046Y010990D01*
X003048Y010987D02*
X003011Y011059D01*
X002964Y011124D01*
X002907Y011180D01*
X002842Y011228D01*
X002771Y011264D01*
X002694Y011289D01*
X002615Y011301D01*
X002575Y011301D01*
X002575Y010791D01*
X002575Y010791D01*
X002575Y011301D01*
X002535Y011301D01*
X002455Y011289D01*
X002379Y011264D01*
X002308Y011228D01*
X002243Y011180D01*
X002186Y011124D01*
X002104Y010990D02*
X001910Y010990D01*
X001910Y010673D02*
X002077Y010673D01*
X002145Y010515D02*
X001910Y010515D01*
X001910Y010356D02*
X002306Y010356D01*
X002575Y010356D02*
X002575Y010356D01*
X002575Y010515D02*
X002575Y010515D01*
X002575Y010673D02*
X002575Y010673D01*
X002575Y010832D02*
X002575Y010832D01*
X002575Y010990D02*
X002575Y010990D01*
X002575Y011149D02*
X002575Y011149D01*
X002939Y011149D02*
X010183Y011149D01*
X010298Y010810D02*
X008125Y008637D01*
X008697Y008613D02*
X009863Y008613D01*
X009786Y008454D02*
X008697Y008454D01*
X008684Y008296D02*
X009783Y008296D01*
X009783Y008137D02*
X008697Y008137D01*
X008697Y007979D02*
X009783Y007979D01*
X009783Y007820D02*
X008697Y007820D01*
X008697Y007662D02*
X009783Y007662D01*
X009783Y007503D02*
X008666Y007503D01*
X008125Y007889D02*
X006641Y007889D01*
X006589Y007837D01*
X006076Y007820D02*
X005776Y007820D01*
X005776Y007662D02*
X006076Y007662D01*
X006094Y007503D02*
X005742Y007503D01*
X005204Y007896D02*
X005180Y007896D01*
X005180Y007897D01*
X004632Y007820D02*
X001910Y007820D01*
X001910Y007662D02*
X004632Y007662D01*
X004666Y007503D02*
X001910Y007503D01*
X001910Y007345D02*
X004703Y007345D01*
X004703Y007186D02*
X001910Y007186D01*
X001910Y007028D02*
X004660Y007028D01*
X004502Y006869D02*
X001910Y006869D01*
X001910Y006711D02*
X004343Y006711D01*
X005180Y006952D02*
X005219Y006912D01*
X005534Y006552D02*
X005616Y006552D01*
X005519Y006394D02*
X005375Y006394D01*
X006515Y005601D02*
X006831Y005601D01*
X006831Y005443D02*
X006515Y005443D01*
X006013Y005421D02*
X006013Y004911D01*
X005180Y004078D01*
X005204Y004078D01*
X005301Y003382D02*
X001910Y003382D01*
X001910Y003224D02*
X005143Y003224D01*
X006834Y003330D02*
X006834Y002582D01*
X006822Y002593D01*
X006821Y002593D01*
X007355Y002590D02*
X008319Y002590D01*
X008343Y002748D02*
X007355Y002748D01*
X007355Y002907D02*
X008441Y002907D01*
X008756Y002907D02*
X008756Y002907D01*
X008756Y002748D02*
X008756Y002748D01*
X009072Y002907D02*
X009091Y002907D01*
X009262Y003065D02*
X007255Y003065D01*
X007261Y003224D02*
X010158Y003224D01*
X010021Y003065D02*
X009826Y003065D01*
X010337Y002897D02*
X010337Y002597D01*
X010331Y002604D01*
X010337Y002597D02*
X010337Y002582D01*
X010337Y002897D02*
X011097Y003673D01*
X010702Y003858D02*
X009874Y003858D01*
X010033Y004016D02*
X010824Y004016D01*
X011327Y004175D02*
X010293Y004175D01*
X010623Y003699D02*
X009716Y003699D01*
X009504Y003541D02*
X010468Y003541D01*
X010313Y003382D02*
X007269Y003382D01*
X009511Y002070D02*
X009544Y002076D01*
X013763Y002070D02*
X013804Y002072D01*
X014596Y002611D02*
X014784Y002835D01*
X014784Y006759D01*
X015099Y006759D02*
X015099Y002923D01*
X015383Y002611D01*
X016990Y002667D02*
X016990Y002699D01*
X016991Y002700D01*
X017489Y002114D02*
X017740Y002114D01*
X017373Y001956D02*
X026910Y001956D01*
X027048Y001797D02*
X017280Y001797D01*
X013684Y004078D02*
X013684Y005377D01*
X014154Y005847D01*
X014154Y006759D01*
X014469Y006759D02*
X014469Y004823D01*
X014196Y004550D01*
X012146Y005443D02*
X012030Y005443D01*
X012021Y005601D02*
X012146Y005601D01*
X012146Y005760D02*
X011910Y005760D01*
X012146Y005918D02*
X011559Y005918D01*
X011559Y006077D02*
X012146Y006077D01*
X012146Y006235D02*
X011559Y006235D01*
X011559Y006394D02*
X012146Y006394D01*
X012146Y006552D02*
X011460Y006552D01*
X011201Y006552D02*
X011164Y006552D01*
X011164Y006394D02*
X011201Y006394D01*
X011201Y006235D02*
X011164Y006235D01*
X010806Y006235D02*
X010577Y006235D01*
X010577Y006077D02*
X010806Y006077D01*
X010806Y005918D02*
X010577Y005918D01*
X010761Y005336D02*
X010808Y005250D01*
X007584Y007503D02*
X007084Y007503D01*
X006076Y007979D02*
X005776Y007979D01*
X005776Y008137D02*
X006079Y008137D01*
X006183Y008296D02*
X005739Y008296D01*
X005679Y008454D02*
X006173Y008454D01*
X006173Y008613D02*
X005252Y008613D01*
X005156Y008613D02*
X001910Y008613D01*
X001910Y008771D02*
X004729Y008771D01*
X004730Y008930D02*
X001910Y008930D01*
X001910Y009088D02*
X007633Y009088D01*
X007553Y008930D02*
X007004Y008930D01*
X007005Y008771D02*
X007553Y008771D01*
X007553Y008613D02*
X007005Y008613D01*
X007005Y008454D02*
X007553Y008454D01*
X007565Y008296D02*
X006995Y008296D01*
X006627Y008771D02*
X006551Y008771D01*
X006551Y008930D02*
X006627Y008930D01*
X006174Y008930D02*
X005677Y008930D01*
X005679Y008771D02*
X006173Y008771D01*
X005252Y008771D02*
X005156Y008771D01*
X005156Y008930D02*
X005252Y008930D01*
X004729Y008454D02*
X001910Y008454D01*
X001910Y008296D02*
X004668Y008296D01*
X004632Y008137D02*
X001910Y008137D01*
X001910Y007979D02*
X004632Y007979D01*
X001910Y009247D02*
X008230Y009247D01*
X008388Y009405D02*
X001910Y009405D01*
X001910Y009564D02*
X008547Y009564D01*
X008705Y009722D02*
X001910Y009722D01*
X001910Y009881D02*
X008864Y009881D01*
X009022Y010039D02*
X001910Y010039D01*
X001910Y010198D02*
X009181Y010198D01*
X009339Y010356D02*
X002844Y010356D01*
X003004Y010515D02*
X009498Y010515D01*
X009656Y010673D02*
X003073Y010673D01*
X003085Y010832D02*
X003072Y010911D01*
X003048Y010987D01*
X001910Y011466D02*
X013209Y011466D01*
X013209Y011624D02*
X001910Y011624D01*
X001910Y011783D02*
X013209Y011783D01*
X013209Y011941D02*
X001910Y011941D01*
X001910Y012100D02*
X013209Y012100D01*
X013225Y012258D02*
X001910Y012258D01*
X001910Y012417D02*
X013329Y012417D01*
X013488Y012575D02*
X001910Y012575D01*
X001910Y012734D02*
X013646Y012734D01*
X013805Y012892D02*
X001910Y012892D01*
X001910Y013051D02*
X013963Y013051D01*
X014122Y013209D02*
X001910Y013209D01*
X001910Y013368D02*
X014296Y013368D01*
X015416Y011794D02*
X015414Y011595D01*
X015414Y010139D01*
X015729Y010139D02*
X015729Y011437D01*
X017070Y012778D01*
X023557Y012778D01*
X024169Y012166D01*
X023161Y012158D02*
X022712Y012158D01*
X022712Y012129D01*
X022419Y012422D01*
X022712Y012422D01*
X022712Y012175D01*
X023161Y012175D01*
X023161Y012158D01*
X022712Y012258D02*
X022583Y012258D01*
X022712Y012417D02*
X022424Y012417D01*
X021834Y012503D02*
X017345Y012503D01*
X016044Y011201D01*
X016044Y010139D01*
X015099Y010139D02*
X015099Y010615D01*
X014904Y010810D01*
X014469Y010886D02*
X014469Y010139D01*
X014154Y010139D02*
X014154Y011477D01*
X014469Y010886D02*
X014904Y011322D01*
X017130Y011783D02*
X020501Y011783D01*
X020578Y011941D02*
X017288Y011941D01*
X017447Y012100D02*
X020813Y012100D01*
X021485Y011624D02*
X022207Y011624D01*
X022136Y011466D02*
X022040Y011466D01*
X022040Y011307D02*
X022136Y011307D01*
X022136Y011149D02*
X022040Y011149D01*
X022136Y011101D02*
X022564Y011101D01*
X022564Y011307D01*
X022618Y011284D01*
X022615Y011276D01*
X022615Y011090D01*
X022531Y011005D01*
X022136Y011005D01*
X022136Y011101D01*
X022564Y011149D02*
X022615Y011149D01*
X023169Y011088D02*
X023172Y011086D01*
X022088Y010305D02*
X022077Y010252D01*
X022070Y010259D01*
X021704Y011466D02*
X021632Y011466D01*
X018609Y011041D02*
X018523Y010954D01*
X018523Y010097D01*
X017976Y009551D01*
X016946Y009551D01*
X013684Y009235D02*
X013645Y009235D01*
X013567Y009235D01*
X013566Y009236D01*
X013042Y009722D02*
X009715Y009722D01*
X009556Y009564D02*
X010772Y009564D01*
X010621Y009405D02*
X009398Y009405D01*
X009239Y009247D02*
X010469Y009247D01*
X010318Y009088D02*
X009081Y009088D01*
X008922Y008930D02*
X010167Y008930D01*
X010015Y008771D02*
X008764Y008771D01*
X012046Y008137D02*
X013040Y008137D01*
X012692Y007979D02*
X012046Y007979D01*
X012070Y007897D02*
X012464Y008291D01*
X013566Y008291D01*
X012621Y010810D02*
X010298Y010810D01*
X002782Y006552D02*
X002760Y006552D01*
X002420Y006552D02*
X001910Y006552D01*
X001910Y006394D02*
X002160Y006394D01*
X002045Y006235D02*
X001910Y006235D01*
X001910Y006077D02*
X001983Y006077D01*
X001983Y005918D02*
X001910Y005918D01*
X001910Y005760D02*
X002018Y005760D01*
X002096Y005601D02*
X001910Y005601D01*
X001910Y005443D02*
X002267Y005443D01*
X024456Y013368D02*
X028280Y013368D01*
X028280Y013209D02*
X024631Y013209D01*
X024789Y013051D02*
X028280Y013051D01*
X028280Y012892D02*
X027961Y012892D01*
X027929Y012924D02*
X027668Y013032D01*
X027386Y013032D01*
X027125Y012924D01*
X026925Y012724D01*
X026817Y012463D01*
X026817Y012181D01*
X026925Y011920D01*
X027125Y011720D01*
X027386Y011612D01*
X027668Y011612D01*
X027929Y011720D01*
X028129Y011920D01*
X028237Y012181D01*
X028237Y012463D01*
X028129Y012724D01*
X027929Y012924D01*
X028119Y012734D02*
X028280Y012734D01*
X028280Y012575D02*
X028191Y012575D01*
X028237Y012417D02*
X028280Y012417D01*
X028280Y012258D02*
X028237Y012258D01*
X028204Y012100D02*
X028280Y012100D01*
X028280Y011941D02*
X028138Y011941D01*
X028280Y011783D02*
X027992Y011783D01*
X028280Y011624D02*
X027698Y011624D01*
X027356Y011624D02*
X026495Y011624D01*
X026569Y011783D02*
X027062Y011783D01*
X026916Y011941D02*
X026676Y011941D01*
X026723Y012100D02*
X026851Y012100D01*
X026817Y012258D02*
X026723Y012258D01*
X026665Y012417D02*
X026817Y012417D01*
X026864Y012575D02*
X026544Y012575D01*
X026935Y012734D02*
X025106Y012734D01*
X024948Y012892D02*
X027094Y012892D01*
X025795Y012575D02*
X025544Y012575D01*
X025665Y012417D02*
X025673Y012417D01*
X026645Y011466D02*
X028280Y011466D01*
X028280Y011307D02*
X026710Y011307D01*
X026723Y011149D02*
X028280Y011149D01*
X028280Y010990D02*
X026696Y010990D01*
X026618Y010832D02*
X028280Y010832D01*
X028280Y010673D02*
X026427Y010673D01*
X025911Y010673D02*
X025427Y010673D01*
X025618Y010832D02*
X025720Y010832D01*
X024879Y010515D02*
X028280Y010515D01*
X028280Y010356D02*
X024737Y010356D01*
X024696Y010198D02*
X028280Y010198D01*
X028280Y010039D02*
X024854Y010039D01*
X024923Y009881D02*
X028280Y009881D01*
X028280Y009722D02*
X024923Y009722D01*
X024914Y009564D02*
X028280Y009564D01*
X028280Y009405D02*
X024756Y009405D01*
X024784Y009247D02*
X028280Y009247D01*
X028280Y004016D02*
X027130Y004016D01*
X027220Y003858D02*
X028280Y003858D01*
X028280Y003699D02*
X027280Y003699D01*
X027280Y003541D02*
X028280Y003541D01*
X028280Y003382D02*
X027259Y003382D01*
X027194Y003224D02*
X028280Y003224D01*
D31*
X021243Y004786D03*
X019550Y005731D03*
X019235Y006282D03*
X017034Y006759D03*
X015416Y005731D03*
X014196Y004550D03*
X013684Y004078D03*
X012857Y003673D03*
X013211Y003330D03*
X011097Y003673D03*
X011558Y004550D03*
X010062Y004550D03*
X006834Y003330D03*
X005204Y004078D03*
X008763Y006322D03*
X011322Y007030D03*
X015259Y008448D03*
X016125Y009353D03*
X017700Y008723D03*
X020141Y009274D03*
X022385Y008723D03*
X017227Y010692D03*
X015416Y011794D03*
X014904Y011322D03*
X014154Y011477D03*
X014904Y010810D03*
X012621Y010810D03*
X020928Y011676D03*
X021715Y011873D03*
X019314Y004983D03*
X018133Y004983D03*
D32*
X016991Y003898D02*
X016991Y002700D01*
X016990Y002667D02*
X016990Y002266D01*
X016991Y002070D01*
X013763Y002070D01*
X009511Y002070D01*
X005259Y002070D01*
X005259Y002582D01*
X005219Y002739D02*
X006676Y004196D01*
X009235Y004196D01*
X009453Y004414D01*
X009453Y005336D01*
X010142Y005336D01*
X010761Y005336D01*
X010180Y005377D02*
X010180Y006952D01*
X010180Y008369D01*
X011007Y009235D01*
X013645Y009235D01*
X013566Y009236D02*
X015100Y009236D01*
X015416Y008920D01*
X016086Y008920D01*
X016086Y008290D01*
X016946Y008290D01*
X017502Y008921D02*
X017700Y008723D01*
X017502Y008921D02*
X016946Y008921D01*
X016086Y008921D01*
X010180Y006952D02*
X005967Y006952D01*
X006013Y006906D01*
X006013Y006121D01*
X006028Y006105D01*
X007306Y006105D01*
X005967Y006952D02*
X005180Y006952D01*
X010142Y005336D02*
X010180Y005377D01*
X009544Y002604D02*
X009544Y002076D01*
X013804Y002072D02*
X013808Y002611D01*
X024443Y007772D02*
X024450Y007760D01*
X022385Y008723D02*
X022385Y010180D01*
X022070Y010259D01*
X022088Y010240D02*
X022088Y010305D01*
X022088Y010240D02*
X022327Y010240D01*
X023172Y011086D01*
X023169Y011088D02*
X023169Y011166D01*
D33*
X020685Y010791D02*
X020685Y005978D01*
X020711Y005952D01*
X005219Y006912D02*
X004397Y006089D01*
X002910Y006089D01*
X002590Y005966D01*
X005180Y006952D02*
X005180Y006952D01*
X005180Y007896D01*
M02*
