G75*
G70*
%OFA0B0*%
%FSLAX24Y24*%
%IPPOS*%
%LPD*%
%AMOC8*
5,1,8,0,0,1.08239X$1,22.5*
%
%ADD10C,0.0000*%
%ADD11C,0.0040*%
%ADD12C,0.0090*%
%ADD13C,0.0100*%
%ADD14C,0.0030*%
%ADD15R,0.0787X0.0787*%
%ADD16R,0.0236X0.0236*%
%ADD17R,0.0315X0.0315*%
%ADD18R,0.0394X0.0394*%
%ADD19C,0.0160*%
%ADD20C,0.0120*%
%ADD21R,0.0276X0.0276*%
%ADD22R,0.0472X0.0472*%
%ADD23R,0.0354X0.0354*%
%ADD24C,0.0050*%
%ADD25C,0.0060*%
%ADD26C,0.0080*%
%ADD27C,0.0143*%
%ADD28R,0.0079X0.0079*%
%ADD29C,0.0059*%
D10*
X001633Y001315D02*
X001633Y013697D01*
X028557Y013697D01*
X028557Y001315D01*
X001633Y001315D01*
X002204Y002322D02*
X002206Y002363D01*
X002212Y002404D01*
X002222Y002444D01*
X002235Y002483D01*
X002252Y002520D01*
X002273Y002556D01*
X002297Y002590D01*
X002324Y002621D01*
X002353Y002649D01*
X002386Y002675D01*
X002420Y002697D01*
X002457Y002716D01*
X002495Y002731D01*
X002535Y002743D01*
X002575Y002751D01*
X002616Y002755D01*
X002658Y002755D01*
X002699Y002751D01*
X002739Y002743D01*
X002779Y002731D01*
X002817Y002716D01*
X002853Y002697D01*
X002888Y002675D01*
X002921Y002649D01*
X002950Y002621D01*
X002977Y002590D01*
X003001Y002556D01*
X003022Y002520D01*
X003039Y002483D01*
X003052Y002444D01*
X003062Y002404D01*
X003068Y002363D01*
X003070Y002322D01*
X003068Y002281D01*
X003062Y002240D01*
X003052Y002200D01*
X003039Y002161D01*
X003022Y002124D01*
X003001Y002088D01*
X002977Y002054D01*
X002950Y002023D01*
X002921Y001995D01*
X002888Y001969D01*
X002854Y001947D01*
X002817Y001928D01*
X002779Y001913D01*
X002739Y001901D01*
X002699Y001893D01*
X002658Y001889D01*
X002616Y001889D01*
X002575Y001893D01*
X002535Y001901D01*
X002495Y001913D01*
X002457Y001928D01*
X002421Y001947D01*
X002386Y001969D01*
X002353Y001995D01*
X002324Y002023D01*
X002297Y002054D01*
X002273Y002088D01*
X002252Y002124D01*
X002235Y002161D01*
X002222Y002200D01*
X002212Y002240D01*
X002206Y002281D01*
X002204Y002322D01*
X027094Y002322D02*
X027096Y002363D01*
X027102Y002404D01*
X027112Y002444D01*
X027125Y002483D01*
X027142Y002520D01*
X027163Y002556D01*
X027187Y002590D01*
X027214Y002621D01*
X027243Y002649D01*
X027276Y002675D01*
X027310Y002697D01*
X027347Y002716D01*
X027385Y002731D01*
X027425Y002743D01*
X027465Y002751D01*
X027506Y002755D01*
X027548Y002755D01*
X027589Y002751D01*
X027629Y002743D01*
X027669Y002731D01*
X027707Y002716D01*
X027743Y002697D01*
X027778Y002675D01*
X027811Y002649D01*
X027840Y002621D01*
X027867Y002590D01*
X027891Y002556D01*
X027912Y002520D01*
X027929Y002483D01*
X027942Y002444D01*
X027952Y002404D01*
X027958Y002363D01*
X027960Y002322D01*
X027958Y002281D01*
X027952Y002240D01*
X027942Y002200D01*
X027929Y002161D01*
X027912Y002124D01*
X027891Y002088D01*
X027867Y002054D01*
X027840Y002023D01*
X027811Y001995D01*
X027778Y001969D01*
X027744Y001947D01*
X027707Y001928D01*
X027669Y001913D01*
X027629Y001901D01*
X027589Y001893D01*
X027548Y001889D01*
X027506Y001889D01*
X027465Y001893D01*
X027425Y001901D01*
X027385Y001913D01*
X027347Y001928D01*
X027311Y001947D01*
X027276Y001969D01*
X027243Y001995D01*
X027214Y002023D01*
X027187Y002054D01*
X027163Y002088D01*
X027142Y002124D01*
X027125Y002161D01*
X027112Y002200D01*
X027102Y002240D01*
X027096Y002281D01*
X027094Y002322D01*
X027094Y012322D02*
X027096Y012363D01*
X027102Y012404D01*
X027112Y012444D01*
X027125Y012483D01*
X027142Y012520D01*
X027163Y012556D01*
X027187Y012590D01*
X027214Y012621D01*
X027243Y012649D01*
X027276Y012675D01*
X027310Y012697D01*
X027347Y012716D01*
X027385Y012731D01*
X027425Y012743D01*
X027465Y012751D01*
X027506Y012755D01*
X027548Y012755D01*
X027589Y012751D01*
X027629Y012743D01*
X027669Y012731D01*
X027707Y012716D01*
X027743Y012697D01*
X027778Y012675D01*
X027811Y012649D01*
X027840Y012621D01*
X027867Y012590D01*
X027891Y012556D01*
X027912Y012520D01*
X027929Y012483D01*
X027942Y012444D01*
X027952Y012404D01*
X027958Y012363D01*
X027960Y012322D01*
X027958Y012281D01*
X027952Y012240D01*
X027942Y012200D01*
X027929Y012161D01*
X027912Y012124D01*
X027891Y012088D01*
X027867Y012054D01*
X027840Y012023D01*
X027811Y011995D01*
X027778Y011969D01*
X027744Y011947D01*
X027707Y011928D01*
X027669Y011913D01*
X027629Y011901D01*
X027589Y011893D01*
X027548Y011889D01*
X027506Y011889D01*
X027465Y011893D01*
X027425Y011901D01*
X027385Y011913D01*
X027347Y011928D01*
X027311Y011947D01*
X027276Y011969D01*
X027243Y011995D01*
X027214Y012023D01*
X027187Y012054D01*
X027163Y012088D01*
X027142Y012124D01*
X027125Y012161D01*
X027112Y012200D01*
X027102Y012240D01*
X027096Y012281D01*
X027094Y012322D01*
D11*
X025408Y004569D02*
X025408Y004109D01*
X025255Y004109D02*
X025562Y004109D01*
X025101Y004185D02*
X025101Y004262D01*
X025025Y004339D01*
X024871Y004339D01*
X024794Y004416D01*
X024794Y004492D01*
X024871Y004569D01*
X025025Y004569D01*
X025101Y004492D01*
X025255Y004416D02*
X025408Y004569D01*
X025101Y004185D02*
X025025Y004109D01*
X024871Y004109D01*
X024794Y004185D01*
X019758Y003578D02*
X019681Y003655D01*
X019528Y003655D01*
X019451Y003578D01*
X019451Y003271D01*
X019528Y003194D01*
X019681Y003194D01*
X019758Y003271D01*
X019758Y003424D01*
X019605Y003424D01*
X019298Y003271D02*
X019298Y003578D01*
X019221Y003655D01*
X019067Y003655D01*
X018991Y003578D01*
X018991Y003271D01*
X019067Y003194D01*
X019221Y003194D01*
X019298Y003271D01*
X018837Y003194D02*
X018684Y003348D01*
X018761Y003348D02*
X018530Y003348D01*
X018530Y003194D02*
X018530Y003655D01*
X018761Y003655D01*
X018837Y003578D01*
X018837Y003424D01*
X018761Y003348D01*
X018377Y003424D02*
X018300Y003348D01*
X018070Y003348D01*
X018070Y003194D02*
X018070Y003655D01*
X018300Y003655D01*
X018377Y003578D01*
X018377Y003424D01*
X014687Y003562D02*
X014611Y003639D01*
X014457Y003639D01*
X014380Y003562D01*
X014380Y003255D01*
X014457Y003179D01*
X014611Y003179D01*
X014687Y003255D01*
X014227Y003179D02*
X013920Y003179D01*
X014227Y003486D01*
X014227Y003562D01*
X014150Y003639D01*
X013997Y003639D01*
X013920Y003562D01*
X013766Y003639D02*
X013613Y003639D01*
X013690Y003639D02*
X013690Y003179D01*
X013766Y003179D02*
X013613Y003179D01*
X011257Y003201D02*
X011027Y003201D01*
X010950Y003278D01*
X010950Y003431D01*
X011027Y003508D01*
X011257Y003508D01*
X011257Y003124D01*
X011180Y003048D01*
X011103Y003048D01*
X010797Y003278D02*
X010720Y003201D01*
X010566Y003201D01*
X010490Y003278D01*
X010490Y003431D01*
X010566Y003508D01*
X010720Y003508D01*
X010797Y003431D01*
X010797Y003278D01*
X010336Y003201D02*
X010183Y003201D01*
X010259Y003201D02*
X010259Y003661D01*
X010183Y003661D01*
X009953Y003508D02*
X010029Y003431D01*
X010029Y003201D01*
X009799Y003201D01*
X009722Y003278D01*
X009799Y003354D01*
X010029Y003354D01*
X009953Y003508D02*
X009799Y003508D01*
X009569Y003431D02*
X009569Y003201D01*
X009262Y003201D02*
X009262Y003508D01*
X009492Y003508D01*
X009569Y003431D01*
X009108Y003431D02*
X008802Y003431D01*
X008802Y003508D02*
X008955Y003661D01*
X009108Y003508D01*
X009108Y003201D01*
X008802Y003201D02*
X008802Y003508D01*
X006881Y003211D02*
X006727Y003211D01*
X006804Y003211D02*
X006804Y003671D01*
X006727Y003671D01*
X006574Y003441D02*
X006574Y003211D01*
X006344Y003211D01*
X006267Y003288D01*
X006344Y003364D01*
X006574Y003364D01*
X006574Y003441D02*
X006497Y003518D01*
X006344Y003518D01*
X006113Y003518D02*
X005960Y003518D01*
X006037Y003595D02*
X006037Y003288D01*
X006113Y003211D01*
X005806Y003211D02*
X005653Y003211D01*
X005730Y003211D02*
X005730Y003518D01*
X005653Y003518D01*
X005500Y003518D02*
X005269Y003518D01*
X005193Y003441D01*
X005193Y003288D01*
X005269Y003211D01*
X005500Y003211D01*
X005500Y003134D02*
X005500Y003518D01*
X005730Y003671D02*
X005730Y003748D01*
X004962Y003748D02*
X004962Y003671D01*
X004962Y003518D02*
X004962Y003211D01*
X004886Y003211D02*
X005039Y003211D01*
X004732Y003288D02*
X004732Y003595D01*
X004655Y003671D01*
X004425Y003671D01*
X004425Y003211D01*
X004655Y003211D01*
X004732Y003288D01*
X004886Y003518D02*
X004962Y003518D01*
X005423Y003058D02*
X005500Y003134D01*
X005423Y003058D02*
X005346Y003058D01*
D12*
X005238Y010271D02*
X005014Y010271D01*
X004902Y010383D01*
X004902Y010606D01*
X005014Y010718D01*
X005238Y010718D01*
X005350Y010606D01*
X005350Y010494D01*
X004902Y010494D01*
X004650Y010718D02*
X004314Y010718D01*
X004203Y010606D01*
X004203Y010383D01*
X004314Y010271D01*
X004650Y010271D01*
X004650Y010941D01*
X005602Y010718D02*
X005826Y010271D01*
X006049Y010718D01*
X006302Y010718D02*
X006414Y010718D01*
X006414Y010271D01*
X006302Y010271D02*
X006526Y010271D01*
X006769Y010383D02*
X006880Y010271D01*
X007216Y010271D01*
X007580Y010383D02*
X007692Y010271D01*
X007580Y010383D02*
X007580Y010830D01*
X007468Y010718D02*
X007692Y010718D01*
X007935Y010606D02*
X008047Y010718D01*
X008270Y010718D01*
X008382Y010606D01*
X008382Y010494D01*
X007935Y010494D01*
X007935Y010383D02*
X007935Y010606D01*
X007935Y010383D02*
X008047Y010271D01*
X008270Y010271D01*
X008635Y010271D02*
X008635Y010718D01*
X008858Y010718D02*
X008635Y010494D01*
X008858Y010718D02*
X008970Y010718D01*
X009218Y010383D02*
X009330Y010383D01*
X009330Y010271D01*
X009218Y010271D01*
X009218Y010383D01*
X009568Y010494D02*
X009791Y010718D01*
X009903Y010718D01*
X010151Y010718D02*
X010151Y010383D01*
X010263Y010271D01*
X010598Y010271D01*
X010598Y010718D01*
X009568Y010718D02*
X009568Y010271D01*
X007216Y010718D02*
X006880Y010718D01*
X006769Y010606D01*
X006769Y010383D01*
X006414Y010941D02*
X006414Y011053D01*
D13*
X006609Y011157D02*
X006609Y011917D01*
X007116Y011157D01*
X007116Y011917D01*
X006965Y012301D02*
X006711Y012301D01*
X006584Y012428D01*
X006584Y012681D01*
X006711Y012808D01*
X006965Y012808D01*
X007091Y012681D01*
X007091Y012554D01*
X006584Y012554D01*
X006300Y012301D02*
X005919Y012301D01*
X005793Y012428D01*
X005793Y012681D01*
X005919Y012808D01*
X006300Y012808D01*
X006300Y013061D02*
X006300Y012301D01*
X006198Y011917D02*
X005944Y011917D01*
X005818Y011791D01*
X005818Y011664D01*
X005944Y011537D01*
X006198Y011537D01*
X006325Y011410D01*
X006325Y011283D01*
X006198Y011157D01*
X005944Y011157D01*
X005818Y011283D01*
X006325Y011791D02*
X006198Y011917D01*
X007376Y012808D02*
X007630Y012301D01*
X007883Y012808D01*
X008168Y013061D02*
X008548Y013061D01*
X008675Y012935D01*
X008675Y012428D01*
X008548Y012301D01*
X008168Y012301D01*
X008168Y013061D01*
X008960Y012808D02*
X008960Y012428D01*
X009087Y012301D01*
X009467Y012301D01*
X009467Y012808D01*
X009752Y012808D02*
X009879Y012808D01*
X009879Y012301D01*
X010005Y012301D02*
X009752Y012301D01*
X010280Y012301D02*
X010280Y012808D01*
X010660Y012808D01*
X010787Y012681D01*
X010787Y012301D01*
X011072Y012428D02*
X011198Y012301D01*
X011452Y012301D01*
X011579Y012428D01*
X011579Y012681D01*
X011452Y012808D01*
X011198Y012808D01*
X011072Y012681D01*
X011072Y012428D01*
X010553Y011917D02*
X010300Y011917D01*
X010173Y011791D01*
X010553Y011917D02*
X010680Y011791D01*
X010680Y011664D01*
X010173Y011157D01*
X010680Y011157D01*
X009904Y011157D02*
X009777Y011157D01*
X009777Y011283D01*
X009904Y011283D01*
X009904Y011157D01*
X009492Y011157D02*
X008985Y011157D01*
X009492Y011664D01*
X009492Y011791D01*
X009365Y011917D01*
X009112Y011917D01*
X008985Y011791D01*
X008700Y011664D02*
X008447Y011157D01*
X008193Y011664D01*
X009879Y013061D02*
X009879Y013188D01*
D14*
X011615Y011828D02*
X011615Y011581D01*
X011615Y011459D02*
X011615Y011397D01*
X011553Y011397D01*
X011553Y011459D01*
X011615Y011459D01*
X011615Y011705D02*
X011245Y011705D01*
X011368Y011581D01*
X011368Y011276D02*
X011615Y011152D01*
X011368Y011029D01*
X011430Y010908D02*
X011492Y010908D01*
X011492Y010661D01*
X011553Y010661D02*
X011430Y010661D01*
X011368Y010722D01*
X011368Y010846D01*
X011430Y010908D01*
X011615Y010846D02*
X011615Y010722D01*
X011553Y010661D01*
X011368Y010539D02*
X011368Y010477D01*
X011492Y010354D01*
X011615Y010354D02*
X011368Y010354D01*
X010847Y008478D02*
X010895Y008429D01*
X010895Y008333D01*
X010847Y008284D01*
X010750Y008284D02*
X010702Y008381D01*
X010702Y008429D01*
X010750Y008478D01*
X010847Y008478D01*
X010750Y008284D02*
X010605Y008284D01*
X010605Y008478D01*
X010654Y008183D02*
X010605Y008135D01*
X010605Y008038D01*
X010654Y007990D01*
X010847Y007990D01*
X010895Y008038D01*
X010895Y008135D01*
X010847Y008183D01*
X013337Y006713D02*
X013628Y006713D01*
X013628Y006616D02*
X013628Y006810D01*
X013434Y006616D02*
X013337Y006713D01*
X013337Y006515D02*
X013579Y006515D01*
X013628Y006467D01*
X013628Y006370D01*
X013579Y006322D01*
X013337Y006322D01*
X012446Y006101D02*
X012446Y005908D01*
X012446Y006004D02*
X012156Y006004D01*
X012253Y005908D01*
X012205Y005807D02*
X012156Y005758D01*
X012156Y005661D01*
X012205Y005613D01*
X012398Y005613D01*
X012446Y005661D01*
X012446Y005758D01*
X012398Y005807D01*
X012446Y005513D02*
X012446Y005417D01*
X012446Y005465D02*
X012156Y005465D01*
X012156Y005417D02*
X012156Y005513D01*
X015024Y005102D02*
X015024Y004909D01*
X015073Y004860D01*
X015170Y004860D01*
X015218Y004909D01*
X015319Y004909D02*
X015513Y005102D01*
X015513Y005151D01*
X015319Y005151D01*
X015218Y005102D02*
X015170Y005151D01*
X015073Y005151D01*
X015024Y005102D01*
X015319Y004909D02*
X015319Y004860D01*
X015416Y004133D02*
X015416Y003843D01*
X015512Y003843D02*
X015319Y003843D01*
X015218Y003843D02*
X015121Y003939D01*
X015169Y003939D02*
X015024Y003939D01*
X015024Y003843D02*
X015024Y004133D01*
X015169Y004133D01*
X015218Y004084D01*
X015218Y003988D01*
X015169Y003939D01*
X015319Y004036D02*
X015416Y004133D01*
X015411Y002027D02*
X015508Y001930D01*
X015508Y001737D01*
X015609Y001785D02*
X015657Y001737D01*
X015754Y001737D01*
X015803Y001785D01*
X015803Y001882D01*
X015754Y001930D01*
X015706Y001930D01*
X015609Y001882D01*
X015609Y002027D01*
X015803Y002027D01*
X015508Y001882D02*
X015314Y001882D01*
X015314Y001930D02*
X015314Y001737D01*
X015015Y001882D02*
X014822Y001882D01*
X014967Y002027D01*
X014967Y001737D01*
X014720Y001737D02*
X014720Y001930D01*
X014624Y002027D01*
X014527Y001930D01*
X014527Y001737D01*
X014527Y001882D02*
X014720Y001882D01*
X014207Y001785D02*
X014159Y001737D01*
X014062Y001737D01*
X014014Y001785D01*
X014014Y001979D01*
X014062Y002027D01*
X014159Y002027D01*
X014207Y001979D01*
X013913Y001979D02*
X013864Y002027D01*
X013768Y002027D01*
X013719Y001979D01*
X013719Y001785D01*
X013768Y001737D01*
X013864Y001737D01*
X013913Y001785D01*
X013618Y001834D02*
X013521Y001737D01*
X013425Y001834D01*
X013425Y002027D01*
X013618Y002027D02*
X013618Y001834D01*
X013144Y001785D02*
X013096Y001737D01*
X012951Y001737D01*
X012951Y002027D01*
X013096Y002027D01*
X013144Y001979D01*
X013144Y001785D01*
X012850Y001737D02*
X012850Y002027D01*
X012656Y002027D02*
X012850Y001737D01*
X012656Y001737D02*
X012656Y002027D01*
X012555Y001979D02*
X012507Y002027D01*
X012410Y002027D01*
X012362Y001979D01*
X012362Y001785D01*
X012410Y001737D01*
X012507Y001737D01*
X012555Y001785D01*
X012555Y001882D01*
X012458Y001882D01*
X011551Y001785D02*
X011502Y001737D01*
X011405Y001737D01*
X011357Y001785D01*
X011551Y001979D01*
X011551Y001785D01*
X011551Y001979D02*
X011502Y002027D01*
X011405Y002027D01*
X011357Y001979D01*
X011357Y001785D01*
X011256Y001737D02*
X011256Y001930D01*
X011159Y002027D01*
X011062Y001930D01*
X011062Y001737D01*
X011062Y001882D02*
X011256Y001882D01*
X010763Y001737D02*
X010570Y001737D01*
X010666Y001737D02*
X010666Y002027D01*
X010570Y001930D01*
X010469Y001930D02*
X010469Y001737D01*
X010469Y001882D02*
X010275Y001882D01*
X010275Y001930D02*
X010275Y001737D01*
X009995Y001785D02*
X009946Y001737D01*
X009850Y001737D01*
X009801Y001785D01*
X009801Y001979D01*
X009850Y002027D01*
X009946Y002027D01*
X009995Y001979D01*
X010275Y001930D02*
X010372Y002027D01*
X010469Y001930D01*
X009700Y001979D02*
X009652Y002027D01*
X009555Y002027D01*
X009507Y001979D01*
X009507Y001785D01*
X009555Y001737D01*
X009652Y001737D01*
X009700Y001785D01*
X009406Y001834D02*
X009406Y002027D01*
X009406Y001834D02*
X009309Y001737D01*
X009212Y001834D01*
X009212Y002027D01*
X008932Y001979D02*
X008932Y001785D01*
X008883Y001737D01*
X008738Y001737D01*
X008738Y002027D01*
X008883Y002027D01*
X008932Y001979D01*
X008637Y002027D02*
X008637Y001737D01*
X008444Y002027D01*
X008444Y001737D01*
X008343Y001785D02*
X008294Y001737D01*
X008197Y001737D01*
X008149Y001785D01*
X008149Y001979D01*
X008197Y002027D01*
X008294Y002027D01*
X008343Y001979D01*
X008343Y001882D02*
X008246Y001882D01*
X008343Y001882D02*
X008343Y001785D01*
X007220Y001785D02*
X007171Y001737D01*
X007075Y001737D01*
X007026Y001785D01*
X006925Y001785D02*
X006925Y001979D01*
X006877Y002027D01*
X006732Y002027D01*
X006732Y001737D01*
X006877Y001737D01*
X006925Y001785D01*
X007026Y001979D02*
X007075Y002027D01*
X007171Y002027D01*
X007220Y001979D01*
X007220Y001930D01*
X007171Y001882D01*
X007220Y001834D01*
X007220Y001785D01*
X007171Y001882D02*
X007123Y001882D01*
X006432Y001882D02*
X006432Y001785D01*
X006384Y001737D01*
X006287Y001737D01*
X006239Y001785D01*
X006239Y001882D02*
X006336Y001930D01*
X006384Y001930D01*
X006432Y001882D01*
X006432Y002027D02*
X006239Y002027D01*
X006239Y001882D01*
X006138Y001785D02*
X006089Y001737D01*
X005944Y001737D01*
X005944Y002027D01*
X006089Y002027D01*
X006138Y001979D01*
X006138Y001785D01*
X005664Y001785D02*
X005616Y001737D01*
X005519Y001737D01*
X005471Y001785D01*
X005471Y001979D01*
X005519Y002027D01*
X005616Y002027D01*
X005664Y001979D01*
X005369Y001979D02*
X005321Y002027D01*
X005224Y002027D01*
X005176Y001979D01*
X005176Y001785D01*
X005224Y001737D01*
X005321Y001737D01*
X005369Y001785D01*
X005075Y001834D02*
X005075Y002027D01*
X005075Y001834D02*
X004978Y001737D01*
X004881Y001834D01*
X004881Y002027D01*
X004601Y001979D02*
X004601Y001785D01*
X004553Y001737D01*
X004408Y001737D01*
X004408Y002027D01*
X004553Y002027D01*
X004601Y001979D01*
X004306Y002027D02*
X004306Y001737D01*
X004113Y002027D01*
X004113Y001737D01*
X004012Y001785D02*
X004012Y001882D01*
X003915Y001882D01*
X003818Y001979D02*
X003818Y001785D01*
X003867Y001737D01*
X003963Y001737D01*
X004012Y001785D01*
X004012Y001979D02*
X003963Y002027D01*
X003867Y002027D01*
X003818Y001979D01*
X004449Y005429D02*
X004449Y005536D01*
X004449Y005483D02*
X004769Y005483D01*
X004769Y005536D02*
X004769Y005429D01*
X004716Y005644D02*
X004502Y005644D01*
X004449Y005697D01*
X004449Y005804D01*
X004502Y005858D01*
X004502Y005966D02*
X004449Y006020D01*
X004449Y006127D01*
X004502Y006180D01*
X004556Y006180D01*
X004609Y006127D01*
X004663Y006180D01*
X004716Y006180D01*
X004769Y006127D01*
X004769Y006020D01*
X004716Y005966D01*
X004716Y005858D02*
X004769Y005804D01*
X004769Y005697D01*
X004716Y005644D01*
X004609Y006073D02*
X004609Y006127D01*
X007821Y006097D02*
X007821Y006000D01*
X007869Y005952D01*
X008063Y005952D01*
X007869Y006145D01*
X008063Y006145D01*
X008111Y006097D01*
X008111Y006000D01*
X008063Y005952D01*
X008111Y005850D02*
X008111Y005657D01*
X008111Y005754D02*
X007821Y005754D01*
X007917Y005657D01*
X007869Y005556D02*
X007821Y005507D01*
X007821Y005411D01*
X007869Y005362D01*
X008063Y005362D01*
X008111Y005411D01*
X008111Y005507D01*
X008063Y005556D01*
X008613Y005590D02*
X008662Y005542D01*
X008855Y005542D01*
X008903Y005590D01*
X008903Y005687D01*
X008855Y005736D01*
X008855Y005837D02*
X008903Y005885D01*
X008903Y005982D01*
X008855Y006030D01*
X008807Y006030D01*
X008758Y005982D01*
X008758Y005837D01*
X008855Y005837D01*
X008758Y005837D02*
X008662Y005934D01*
X008613Y006030D01*
X008662Y005736D02*
X008613Y005687D01*
X008613Y005590D01*
X007869Y006145D02*
X007821Y006097D01*
X006124Y007856D02*
X005833Y007856D01*
X006124Y007856D02*
X006124Y008049D01*
X006124Y008151D02*
X005833Y008151D01*
X005833Y008344D01*
X005833Y008445D02*
X005833Y008590D01*
X005882Y008639D01*
X006075Y008639D01*
X006124Y008590D01*
X006124Y008445D01*
X005833Y008445D01*
X005978Y008247D02*
X005978Y008151D01*
X006124Y008151D02*
X006124Y008344D01*
X007195Y008457D02*
X007340Y008312D01*
X007340Y008506D01*
X007195Y008457D02*
X007486Y008457D01*
X007486Y008211D02*
X007389Y008114D01*
X007389Y008163D02*
X007389Y008018D01*
X007486Y008018D02*
X007195Y008018D01*
X007195Y008163D01*
X007244Y008211D01*
X007340Y008211D01*
X007389Y008163D01*
X004657Y008151D02*
X004657Y008054D01*
X004609Y008006D01*
X004415Y008006D01*
X004367Y008054D01*
X004367Y008151D01*
X004415Y008200D01*
X004415Y008301D02*
X004367Y008349D01*
X004367Y008446D01*
X004415Y008494D01*
X004464Y008494D01*
X004512Y008446D01*
X004560Y008494D01*
X004609Y008494D01*
X004657Y008446D01*
X004657Y008349D01*
X004609Y008301D01*
X004609Y008200D02*
X004657Y008151D01*
X004512Y008397D02*
X004512Y008446D01*
X015314Y001930D02*
X015411Y002027D01*
X016574Y002027D02*
X016574Y001834D01*
X016671Y001737D01*
X016768Y001834D01*
X016768Y002027D01*
X016869Y001979D02*
X016869Y001785D01*
X016917Y001737D01*
X017014Y001737D01*
X017062Y001785D01*
X017164Y001785D02*
X017212Y001737D01*
X017309Y001737D01*
X017357Y001785D01*
X017164Y001785D02*
X017164Y001979D01*
X017212Y002027D01*
X017309Y002027D01*
X017357Y001979D01*
X017062Y001979D02*
X017014Y002027D01*
X016917Y002027D01*
X016869Y001979D01*
X017755Y002027D02*
X017949Y002027D01*
X017852Y002027D02*
X017852Y001737D01*
X018050Y001737D02*
X018243Y002027D01*
X018050Y002027D02*
X018243Y001737D01*
X018700Y001737D02*
X018700Y002027D01*
X018845Y002027D01*
X018894Y001979D01*
X018894Y001882D01*
X018845Y001834D01*
X018700Y001834D01*
X018797Y001834D02*
X018894Y001737D01*
X018995Y001737D02*
X019188Y002027D01*
X018995Y002027D02*
X019188Y001737D01*
X019566Y001785D02*
X019615Y001737D01*
X019711Y001737D01*
X019760Y001785D01*
X019760Y001882D01*
X019663Y001882D01*
X019566Y001979D02*
X019566Y001785D01*
X019566Y001979D02*
X019615Y002027D01*
X019711Y002027D01*
X019760Y001979D01*
X019861Y002027D02*
X020055Y001737D01*
X020055Y002027D01*
X020156Y002027D02*
X020301Y002027D01*
X020349Y001979D01*
X020349Y001785D01*
X020301Y001737D01*
X020156Y001737D01*
X020156Y002027D01*
X019861Y002027D02*
X019861Y001737D01*
X020669Y001737D02*
X020814Y001737D01*
X020862Y001785D01*
X020862Y001979D01*
X020814Y002027D01*
X020669Y002027D01*
X020669Y001737D01*
X021060Y001737D02*
X021060Y002027D01*
X020963Y002027D02*
X021157Y002027D01*
X021258Y002027D02*
X021403Y002027D01*
X021452Y001979D01*
X021452Y001882D01*
X021403Y001834D01*
X021258Y001834D01*
X021355Y001834D02*
X021452Y001737D01*
X021258Y001737D02*
X021258Y002027D01*
X021758Y004305D02*
X021758Y004450D01*
X021806Y004498D01*
X021903Y004498D01*
X021951Y004450D01*
X021951Y004305D01*
X021951Y004401D02*
X022048Y004498D01*
X022000Y004599D02*
X022048Y004648D01*
X022048Y004744D01*
X022000Y004793D01*
X021951Y004793D01*
X021903Y004744D01*
X021903Y004599D01*
X022000Y004599D01*
X021903Y004599D02*
X021806Y004696D01*
X021758Y004793D01*
X021758Y004305D02*
X022048Y004305D01*
X024327Y006914D02*
X024424Y006914D01*
X024375Y006914D02*
X024375Y007205D01*
X024327Y007205D02*
X024424Y007205D01*
X024523Y007156D02*
X024572Y007205D01*
X024668Y007205D01*
X024717Y007156D01*
X024818Y007156D02*
X024866Y007205D01*
X024963Y007205D01*
X025011Y007156D01*
X025011Y007108D01*
X024818Y006914D01*
X025011Y006914D01*
X024717Y006963D02*
X024668Y006914D01*
X024572Y006914D01*
X024523Y006963D01*
X024523Y007156D01*
X026866Y007579D02*
X026990Y007455D01*
X026866Y007579D02*
X027236Y007579D01*
X027236Y007702D02*
X027236Y007455D01*
X027682Y007670D02*
X027929Y007670D01*
X027991Y007732D01*
X027929Y007854D02*
X027867Y007916D01*
X027867Y008101D01*
X027806Y008101D02*
X027991Y008101D01*
X027991Y007916D01*
X027929Y007854D01*
X027744Y007916D02*
X027744Y008039D01*
X027806Y008101D01*
X027806Y008222D02*
X027744Y008284D01*
X027744Y008469D01*
X027682Y008591D02*
X027620Y008652D01*
X027620Y008776D01*
X027682Y008838D01*
X027806Y008838D01*
X027867Y008776D01*
X027744Y008776D01*
X027744Y008652D01*
X027867Y008652D01*
X027867Y008776D01*
X027929Y008838D02*
X027991Y008776D01*
X027991Y008652D01*
X027929Y008591D01*
X027682Y008591D01*
X027867Y008408D02*
X027867Y008284D01*
X027806Y008222D01*
X027991Y008222D02*
X027991Y008408D01*
X027929Y008469D01*
X027867Y008408D01*
X027236Y008560D02*
X027236Y008807D01*
X027236Y008684D02*
X026866Y008684D01*
X026990Y008560D01*
X026866Y008439D02*
X027236Y008192D01*
X027175Y008071D02*
X027236Y008009D01*
X027236Y007885D01*
X027175Y007824D01*
X027113Y007824D01*
X027051Y007885D01*
X027051Y008009D01*
X027113Y008071D01*
X027175Y008071D01*
X027051Y008009D02*
X026990Y008071D01*
X026928Y008071D01*
X026866Y008009D01*
X026866Y007885D01*
X026928Y007824D01*
X026990Y007824D01*
X027051Y007885D01*
X027744Y007732D02*
X027744Y007609D01*
X027744Y007487D02*
X027744Y007302D01*
X027806Y007240D01*
X027867Y007302D01*
X027867Y007425D01*
X027929Y007487D01*
X027991Y007425D01*
X027991Y007240D01*
X027991Y007119D02*
X027744Y007119D01*
X027991Y007119D02*
X027991Y006934D01*
X027929Y006872D01*
X027744Y006872D01*
X027744Y008959D02*
X027744Y009144D01*
X027806Y009206D01*
X027991Y009206D01*
X027991Y009327D02*
X027620Y009327D01*
X027744Y009327D02*
X027744Y009513D01*
X027806Y009574D01*
X027929Y009574D01*
X027991Y009513D01*
X027991Y009327D01*
X027991Y009696D02*
X027991Y009819D01*
X027991Y009757D02*
X027620Y009757D01*
X027620Y009696D01*
X027744Y009941D02*
X027991Y010188D01*
X027991Y010310D02*
X027991Y010371D01*
X027929Y010371D01*
X027929Y010310D01*
X027991Y010310D01*
X027991Y010494D02*
X027744Y010494D01*
X027867Y010494D02*
X027744Y010617D01*
X027744Y010679D01*
X027744Y010801D02*
X027929Y010801D01*
X027991Y010862D01*
X027991Y011048D01*
X027744Y011048D01*
X027236Y010955D02*
X027236Y010832D01*
X027175Y010770D01*
X027051Y010770D02*
X026990Y010894D01*
X026990Y010955D01*
X027051Y011017D01*
X027175Y011017D01*
X027236Y010955D01*
X027051Y010770D02*
X026866Y010770D01*
X026866Y011017D01*
X027236Y010649D02*
X027236Y010402D01*
X027236Y010525D02*
X026866Y010525D01*
X026990Y010402D01*
X026928Y010280D02*
X027175Y010034D01*
X027236Y010095D01*
X027236Y010219D01*
X027175Y010280D01*
X026928Y010280D01*
X026866Y010219D01*
X026866Y010095D01*
X026928Y010034D01*
X027175Y010034D01*
X027236Y009912D02*
X027236Y009665D01*
X026990Y009912D01*
X026928Y009912D01*
X026866Y009850D01*
X026866Y009727D01*
X026928Y009665D01*
X026866Y009544D02*
X027236Y009297D01*
X027175Y009176D02*
X026928Y009176D01*
X027175Y008929D01*
X027236Y008990D01*
X027236Y009114D01*
X027175Y009176D01*
X026928Y009176D02*
X026866Y009114D01*
X026866Y008990D01*
X026928Y008929D01*
X027175Y008929D01*
X027744Y008959D02*
X027991Y008959D01*
X027991Y009941D02*
X027744Y010188D01*
X022280Y011632D02*
X022232Y011584D01*
X022039Y011584D01*
X021990Y011632D01*
X021990Y011729D01*
X022039Y011777D01*
X022039Y011879D02*
X022087Y011879D01*
X022135Y011927D01*
X022135Y012024D01*
X022184Y012072D01*
X022232Y012072D01*
X022280Y012024D01*
X022280Y011927D01*
X022232Y011879D01*
X022184Y011879D01*
X022135Y011927D01*
X022135Y012024D02*
X022087Y012072D01*
X022039Y012072D01*
X021990Y012024D01*
X021990Y011927D01*
X022039Y011879D01*
X022232Y011777D02*
X022280Y011729D01*
X022280Y011632D01*
X017962Y011243D02*
X017962Y011049D01*
X017769Y011243D01*
X017720Y011243D01*
X017672Y011194D01*
X017672Y011098D01*
X017720Y011049D01*
X017720Y010948D02*
X017672Y010900D01*
X017672Y010803D01*
X017720Y010755D01*
X017914Y010755D01*
X017962Y010803D01*
X017962Y010900D01*
X017914Y010948D01*
X017959Y009492D02*
X017959Y009299D01*
X017959Y009395D02*
X017668Y009395D01*
X017765Y009299D01*
X017717Y009198D02*
X017910Y009198D01*
X017959Y009149D01*
X017959Y009052D01*
X017910Y009004D01*
X017717Y009004D01*
X017668Y009052D01*
X017668Y009149D01*
X017717Y009198D01*
X017862Y009101D02*
X017959Y009198D01*
X017937Y007694D02*
X017937Y007501D01*
X017937Y007598D02*
X017647Y007598D01*
X017744Y007501D01*
X017695Y007400D02*
X017647Y007351D01*
X017647Y007255D01*
X017695Y007206D01*
X017889Y007206D01*
X017937Y007255D01*
X017937Y007351D01*
X017889Y007400D01*
X021679Y008596D02*
X021679Y008741D01*
X021727Y008789D01*
X021824Y008789D01*
X021873Y008741D01*
X021873Y008596D01*
X021969Y008596D02*
X021679Y008596D01*
X021873Y008693D02*
X021969Y008789D01*
X021921Y008891D02*
X021969Y008939D01*
X021969Y009036D01*
X021921Y009084D01*
X021824Y009084D01*
X021776Y009036D01*
X021776Y008987D01*
X021824Y008891D01*
X021679Y008891D01*
X021679Y009084D01*
D15*
X004274Y011991D03*
D16*
X004471Y011361D03*
X003723Y011164D03*
D17*
X003408Y011637D03*
D18*
X003645Y012621D03*
D19*
X003684Y012582D02*
X004078Y012188D01*
D20*
X004471Y012188D02*
X004865Y012582D01*
D21*
X004845Y012562D03*
D22*
X003645Y012621D03*
D23*
X004845Y012562D03*
D24*
X004679Y009989D02*
X004679Y009914D01*
X004679Y009764D02*
X004679Y009463D01*
X004604Y009463D02*
X004754Y009463D01*
X004986Y009539D02*
X005061Y009463D01*
X004986Y009539D02*
X004986Y009839D01*
X004911Y009764D02*
X005061Y009764D01*
X005218Y009689D02*
X005293Y009764D01*
X005443Y009764D01*
X005518Y009689D01*
X005518Y009463D01*
X005218Y009463D02*
X005218Y009914D01*
X004679Y009764D02*
X004604Y009764D01*
X004444Y009764D02*
X004444Y009539D01*
X004368Y009463D01*
X004293Y009539D01*
X004218Y009463D01*
X004143Y009539D01*
X004143Y009764D01*
X006138Y009839D02*
X006138Y009539D01*
X006213Y009463D01*
X006364Y009463D01*
X006439Y009539D01*
X006439Y009839D01*
X006364Y009914D01*
X006213Y009914D01*
X006138Y009839D01*
X006599Y009914D02*
X006899Y009914D01*
X006749Y009914D02*
X006749Y009463D01*
X007059Y009463D02*
X007059Y009764D01*
X007209Y009914D01*
X007359Y009764D01*
X007359Y009463D01*
X007359Y009689D02*
X007059Y009689D01*
X007980Y009764D02*
X008205Y009764D01*
X008280Y009689D01*
X008280Y009539D01*
X008205Y009463D01*
X007980Y009463D01*
X007980Y009914D01*
X008440Y009689D02*
X008515Y009764D01*
X008665Y009764D01*
X008741Y009689D01*
X008741Y009539D01*
X008665Y009463D01*
X008515Y009463D01*
X008440Y009539D01*
X008440Y009689D01*
X008901Y009689D02*
X008901Y009539D01*
X008976Y009463D01*
X009126Y009463D01*
X009201Y009539D01*
X009201Y009689D01*
X009126Y009764D01*
X008976Y009764D01*
X008901Y009689D01*
X009361Y009764D02*
X009511Y009764D01*
X009436Y009839D02*
X009436Y009539D01*
X009511Y009463D01*
X009668Y009463D02*
X009818Y009463D01*
X009743Y009463D02*
X009743Y009914D01*
X009668Y009914D01*
X009975Y009689D02*
X009975Y009539D01*
X010050Y009463D01*
X010200Y009463D01*
X010275Y009539D01*
X010275Y009689D01*
X010200Y009764D01*
X010050Y009764D01*
X009975Y009689D01*
X010435Y009539D02*
X010510Y009614D01*
X010736Y009614D01*
X010736Y009689D02*
X010736Y009463D01*
X010510Y009463D01*
X010435Y009539D01*
X010661Y009764D02*
X010736Y009689D01*
X010661Y009764D02*
X010510Y009764D01*
X010896Y009689D02*
X010896Y009539D01*
X010971Y009463D01*
X011196Y009463D01*
X011196Y009914D01*
X011196Y009764D02*
X010971Y009764D01*
X010896Y009689D01*
X011356Y009689D02*
X011356Y009539D01*
X011431Y009463D01*
X011581Y009463D01*
X011656Y009614D02*
X011356Y009614D01*
X011356Y009689D02*
X011431Y009764D01*
X011581Y009764D01*
X011656Y009689D01*
X011656Y009614D01*
X011816Y009614D02*
X011967Y009764D01*
X012042Y009764D01*
X011816Y009764D02*
X011816Y009463D01*
X005713Y006346D02*
X005363Y006346D01*
X005363Y006046D01*
X005863Y005846D02*
X005863Y005696D01*
X005363Y005496D02*
X005363Y005196D01*
X005713Y005196D01*
D25*
X013876Y007069D02*
X016497Y007069D01*
X016636Y007208D01*
X016636Y009828D01*
X013876Y009828D01*
X013876Y007069D01*
X016195Y007369D02*
X016197Y007392D01*
X016203Y007415D01*
X016212Y007436D01*
X016225Y007456D01*
X016241Y007473D01*
X016259Y007487D01*
X016279Y007498D01*
X016301Y007506D01*
X016324Y007510D01*
X016348Y007510D01*
X016371Y007506D01*
X016393Y007498D01*
X016413Y007487D01*
X016431Y007473D01*
X016447Y007456D01*
X016460Y007436D01*
X016469Y007415D01*
X016475Y007392D01*
X016477Y007369D01*
X016475Y007346D01*
X016469Y007323D01*
X016460Y007302D01*
X016447Y007282D01*
X016431Y007265D01*
X016413Y007251D01*
X016393Y007240D01*
X016371Y007232D01*
X016348Y007228D01*
X016324Y007228D01*
X016301Y007232D01*
X016279Y007240D01*
X016259Y007251D01*
X016241Y007265D01*
X016225Y007282D01*
X016212Y007302D01*
X016203Y007323D01*
X016197Y007346D01*
X016195Y007369D01*
D26*
X018877Y008089D02*
X019113Y008089D01*
X019645Y008818D02*
X019645Y009645D01*
X018346Y009645D02*
X018346Y008818D01*
X018877Y010373D02*
X019113Y010373D01*
D27*
X018916Y010038D03*
D28*
X006589Y008290D03*
D29*
X012150Y011271D02*
X012320Y011101D01*
X012567Y011303D01*
X012667Y011252D01*
X012808Y011593D01*
X012755Y011621D01*
X012708Y011659D01*
X012670Y011706D01*
X012641Y011759D01*
X012624Y011817D01*
X012618Y011877D01*
X012625Y011940D01*
X012644Y012000D01*
X012675Y012055D01*
X012716Y012102D01*
X012767Y012140D01*
X012824Y012167D01*
X012886Y012182D01*
X012949Y012184D01*
X013011Y012172D01*
X013069Y012149D01*
X013122Y012114D01*
X013166Y012069D01*
X013200Y012015D01*
X013223Y011956D01*
X013233Y011894D01*
X013230Y011831D01*
X013214Y011770D01*
X013186Y011713D01*
X013147Y011663D01*
X013099Y011623D01*
X013043Y011593D01*
X013185Y011252D01*
X013284Y011303D01*
X013532Y011101D01*
X013701Y011271D01*
X013500Y011518D01*
X013551Y011618D01*
X013585Y011725D01*
X013903Y011757D01*
X013903Y011997D01*
X013585Y012029D01*
X013551Y012136D01*
X013500Y012235D01*
X013701Y012483D01*
X013532Y012652D01*
X013284Y012451D01*
X013185Y012502D01*
X013078Y012536D01*
X013046Y012854D01*
X012806Y012854D01*
X012773Y012536D01*
X012667Y012502D01*
X012567Y012451D01*
X012320Y012652D01*
X012150Y012483D01*
X012352Y012235D01*
X012300Y012136D01*
X012266Y012029D01*
X011949Y011997D01*
X011949Y011757D01*
X012266Y011725D01*
X012300Y011618D01*
X012352Y011518D01*
X012150Y011271D01*
X012157Y011279D02*
X012537Y011279D01*
X012614Y011279D02*
X012678Y011279D01*
X012702Y011336D02*
X012203Y011336D01*
X012250Y011394D02*
X012726Y011394D01*
X012749Y011451D02*
X012297Y011451D01*
X012344Y011509D02*
X012773Y011509D01*
X012797Y011567D02*
X012327Y011567D01*
X012299Y011624D02*
X012751Y011624D01*
X012690Y011682D02*
X012280Y011682D01*
X012122Y011739D02*
X012652Y011739D01*
X012630Y011797D02*
X011949Y011797D01*
X011949Y011854D02*
X012620Y011854D01*
X012622Y011912D02*
X011949Y011912D01*
X011949Y011969D02*
X012634Y011969D01*
X012659Y012027D02*
X012246Y012027D01*
X012284Y012085D02*
X012701Y012085D01*
X012771Y012142D02*
X012304Y012142D01*
X012333Y012200D02*
X013518Y012200D01*
X013517Y012257D02*
X012334Y012257D01*
X012287Y012315D02*
X013564Y012315D01*
X013611Y012372D02*
X012240Y012372D01*
X012193Y012430D02*
X013658Y012430D01*
X013697Y012487D02*
X013329Y012487D01*
X013400Y012545D02*
X013639Y012545D01*
X013582Y012603D02*
X013471Y012603D01*
X013213Y012487D02*
X012638Y012487D01*
X012522Y012487D02*
X012155Y012487D01*
X012212Y012545D02*
X012451Y012545D01*
X012381Y012603D02*
X012270Y012603D01*
X012774Y012545D02*
X013077Y012545D01*
X013071Y012603D02*
X012780Y012603D01*
X012786Y012660D02*
X013065Y012660D01*
X013059Y012718D02*
X012792Y012718D01*
X012798Y012775D02*
X013054Y012775D01*
X013048Y012833D02*
X012804Y012833D01*
X013079Y012142D02*
X013548Y012142D01*
X013567Y012085D02*
X013150Y012085D01*
X013193Y012027D02*
X013605Y012027D01*
X013903Y011969D02*
X013218Y011969D01*
X013230Y011912D02*
X013903Y011912D01*
X013903Y011854D02*
X013231Y011854D01*
X013221Y011797D02*
X013903Y011797D01*
X013729Y011739D02*
X013199Y011739D01*
X013161Y011682D02*
X013571Y011682D01*
X013553Y011624D02*
X013101Y011624D01*
X013054Y011567D02*
X013524Y011567D01*
X013507Y011509D02*
X013078Y011509D01*
X013102Y011451D02*
X013554Y011451D01*
X013601Y011394D02*
X013126Y011394D01*
X013150Y011336D02*
X013648Y011336D01*
X013695Y011279D02*
X013314Y011279D01*
X013237Y011279D02*
X013173Y011279D01*
X013384Y011221D02*
X013652Y011221D01*
X013594Y011164D02*
X013455Y011164D01*
X013526Y011106D02*
X013537Y011106D01*
X012467Y011221D02*
X012200Y011221D01*
X012257Y011164D02*
X012396Y011164D01*
X012326Y011106D02*
X012315Y011106D01*
M02*
