%
M48
M72
T01C0.0197
T02C0.0315
T03C0.0320
T04C0.0354
T05C0.0400
T06C0.0472
T07C0.0866
%
T01
X6834Y3330
X5204Y4078
X8763Y6322
X11322Y7030
X15259Y8448
X16125Y9353
X17700Y8723
X20141Y9274
X22385Y8723
X19235Y6282
X19550Y5731
X19314Y4983
X18133Y4983
X15416Y5731
X17034Y6759
X21243Y4786
X14196Y4550
X13684Y4078
X12857Y3673
X13211Y3330
X11097Y3673
X11558Y4550
X10062Y4550
X17227Y10692
X15416Y11794
X14904Y11322
X14154Y11477
X14904Y10810
X12621Y10810
X20928Y11676
X21715Y11873
T02
X20685Y10791
X20700Y5966
X24208Y2589
X26176Y2589
X15383Y2611
X14596Y2611
X13808Y2611
X13021Y2611
X11119Y2604
X10331Y2604
X9544Y2604
X8756Y2604
X6821Y2593
X6034Y2593
X5246Y2593
X4459Y2593
X2590Y5966
X2575Y10791
T03
X16990Y2667
X17990Y2667
X18990Y2667
X19990Y2667
X20990Y2667
T04
X23169Y11166
X24169Y11166
X25169Y11166
X26169Y11166
X26169Y12166
X25169Y12166
X24169Y12166
X23169Y12166
T05
X23443Y9772
X24443Y9772
X24443Y8772
X23443Y8772
X23443Y7772
X24443Y7772
T06
X23814Y3573
X26570Y3573
T07
X2637Y2322
X27527Y2322
X27527Y12322
M30
