G75*
G70*
%OFA0B0*%
%FSLAX24Y24*%
%IPPOS*%
%LPD*%
%AMOC8*
5,1,8,0,0,1.08239X$1,22.5*
%
%ADD10C,0.0000*%
%ADD11C,0.0906*%
%ADD12R,0.0540X0.0260*%
%ADD13R,0.0260X0.0540*%
%ADD14R,0.0591X0.0788*%
%ADD15R,0.0552X0.0631*%
%ADD16R,0.0631X0.0552*%
%ADD17R,0.0434X0.0591*%
%ADD18R,0.0512X0.0512*%
%ADD19R,0.0700X0.0700*%
%ADD20C,0.0700*%
%ADD21OC8,0.0640*%
%ADD22R,0.0640X0.0640*%
%ADD23R,0.0594X0.0594*%
%ADD24C,0.0594*%
%ADD25R,0.0555X0.0555*%
%ADD26C,0.0555*%
%ADD27C,0.0900*%
%ADD28R,0.0906X0.0276*%
%ADD29R,0.0490X0.0440*%
D10*
X001633Y001315D02*
X001633Y013697D01*
X028557Y013697D01*
X028557Y001315D01*
X001633Y001315D01*
X002204Y002322D02*
X002206Y002363D01*
X002212Y002404D01*
X002222Y002444D01*
X002235Y002483D01*
X002252Y002520D01*
X002273Y002556D01*
X002297Y002590D01*
X002324Y002621D01*
X002353Y002649D01*
X002386Y002675D01*
X002420Y002697D01*
X002457Y002716D01*
X002495Y002731D01*
X002535Y002743D01*
X002575Y002751D01*
X002616Y002755D01*
X002658Y002755D01*
X002699Y002751D01*
X002739Y002743D01*
X002779Y002731D01*
X002817Y002716D01*
X002853Y002697D01*
X002888Y002675D01*
X002921Y002649D01*
X002950Y002621D01*
X002977Y002590D01*
X003001Y002556D01*
X003022Y002520D01*
X003039Y002483D01*
X003052Y002444D01*
X003062Y002404D01*
X003068Y002363D01*
X003070Y002322D01*
X003068Y002281D01*
X003062Y002240D01*
X003052Y002200D01*
X003039Y002161D01*
X003022Y002124D01*
X003001Y002088D01*
X002977Y002054D01*
X002950Y002023D01*
X002921Y001995D01*
X002888Y001969D01*
X002854Y001947D01*
X002817Y001928D01*
X002779Y001913D01*
X002739Y001901D01*
X002699Y001893D01*
X002658Y001889D01*
X002616Y001889D01*
X002575Y001893D01*
X002535Y001901D01*
X002495Y001913D01*
X002457Y001928D01*
X002421Y001947D01*
X002386Y001969D01*
X002353Y001995D01*
X002324Y002023D01*
X002297Y002054D01*
X002273Y002088D01*
X002252Y002124D01*
X002235Y002161D01*
X002222Y002200D01*
X002212Y002240D01*
X002206Y002281D01*
X002204Y002322D01*
X027094Y002322D02*
X027096Y002363D01*
X027102Y002404D01*
X027112Y002444D01*
X027125Y002483D01*
X027142Y002520D01*
X027163Y002556D01*
X027187Y002590D01*
X027214Y002621D01*
X027243Y002649D01*
X027276Y002675D01*
X027310Y002697D01*
X027347Y002716D01*
X027385Y002731D01*
X027425Y002743D01*
X027465Y002751D01*
X027506Y002755D01*
X027548Y002755D01*
X027589Y002751D01*
X027629Y002743D01*
X027669Y002731D01*
X027707Y002716D01*
X027743Y002697D01*
X027778Y002675D01*
X027811Y002649D01*
X027840Y002621D01*
X027867Y002590D01*
X027891Y002556D01*
X027912Y002520D01*
X027929Y002483D01*
X027942Y002444D01*
X027952Y002404D01*
X027958Y002363D01*
X027960Y002322D01*
X027958Y002281D01*
X027952Y002240D01*
X027942Y002200D01*
X027929Y002161D01*
X027912Y002124D01*
X027891Y002088D01*
X027867Y002054D01*
X027840Y002023D01*
X027811Y001995D01*
X027778Y001969D01*
X027744Y001947D01*
X027707Y001928D01*
X027669Y001913D01*
X027629Y001901D01*
X027589Y001893D01*
X027548Y001889D01*
X027506Y001889D01*
X027465Y001893D01*
X027425Y001901D01*
X027385Y001913D01*
X027347Y001928D01*
X027311Y001947D01*
X027276Y001969D01*
X027243Y001995D01*
X027214Y002023D01*
X027187Y002054D01*
X027163Y002088D01*
X027142Y002124D01*
X027125Y002161D01*
X027112Y002200D01*
X027102Y002240D01*
X027096Y002281D01*
X027094Y002322D01*
X027094Y012322D02*
X027096Y012363D01*
X027102Y012404D01*
X027112Y012444D01*
X027125Y012483D01*
X027142Y012520D01*
X027163Y012556D01*
X027187Y012590D01*
X027214Y012621D01*
X027243Y012649D01*
X027276Y012675D01*
X027310Y012697D01*
X027347Y012716D01*
X027385Y012731D01*
X027425Y012743D01*
X027465Y012751D01*
X027506Y012755D01*
X027548Y012755D01*
X027589Y012751D01*
X027629Y012743D01*
X027669Y012731D01*
X027707Y012716D01*
X027743Y012697D01*
X027778Y012675D01*
X027811Y012649D01*
X027840Y012621D01*
X027867Y012590D01*
X027891Y012556D01*
X027912Y012520D01*
X027929Y012483D01*
X027942Y012444D01*
X027952Y012404D01*
X027958Y012363D01*
X027960Y012322D01*
X027958Y012281D01*
X027952Y012240D01*
X027942Y012200D01*
X027929Y012161D01*
X027912Y012124D01*
X027891Y012088D01*
X027867Y012054D01*
X027840Y012023D01*
X027811Y011995D01*
X027778Y011969D01*
X027744Y011947D01*
X027707Y011928D01*
X027669Y011913D01*
X027629Y011901D01*
X027589Y011893D01*
X027548Y011889D01*
X027506Y011889D01*
X027465Y011893D01*
X027425Y011901D01*
X027385Y011913D01*
X027347Y011928D01*
X027311Y011947D01*
X027276Y011969D01*
X027243Y011995D01*
X027214Y012023D01*
X027187Y012054D01*
X027163Y012088D01*
X027142Y012124D01*
X027125Y012161D01*
X027112Y012200D01*
X027102Y012240D01*
X027096Y012281D01*
X027094Y012322D01*
D11*
X027527Y012322D03*
X027527Y002322D03*
X002637Y002322D03*
D12*
X013566Y007346D03*
X013566Y007661D03*
X013566Y007976D03*
X013566Y008291D03*
X013566Y008606D03*
X013566Y008921D03*
X013566Y009236D03*
X013566Y009551D03*
X016946Y009551D03*
X016946Y009236D03*
X016946Y008921D03*
X016946Y008606D03*
X016946Y008291D03*
X016946Y007976D03*
X016946Y007661D03*
X016946Y007346D03*
D13*
X016359Y006759D03*
X016044Y006759D03*
X015729Y006759D03*
X015414Y006759D03*
X015099Y006759D03*
X014784Y006759D03*
X014469Y006759D03*
X014154Y006759D03*
X014154Y010139D03*
X014469Y010139D03*
X014784Y010139D03*
X015099Y010139D03*
X015414Y010139D03*
X015729Y010139D03*
X016044Y010139D03*
X016359Y010139D03*
D14*
X018523Y010097D03*
X019468Y010097D03*
X019468Y008365D03*
X018523Y008365D03*
D15*
X018622Y007426D03*
X019370Y007426D03*
X016894Y005001D03*
X016146Y005001D03*
X016158Y003983D03*
X016906Y003983D03*
X018609Y011041D03*
X019357Y011041D03*
D16*
X022088Y011053D03*
X022088Y010305D03*
X022070Y007995D03*
X022070Y007247D03*
X022070Y006223D03*
X022070Y005475D03*
X011571Y007886D03*
X011571Y008634D03*
X008125Y008637D03*
X008125Y007889D03*
X005204Y007896D03*
X005204Y008644D03*
X007306Y006105D03*
X007306Y005357D03*
X009453Y005336D03*
X009453Y006084D03*
D17*
X010808Y005250D03*
X011556Y005250D03*
X011182Y006116D03*
D18*
X006589Y007837D03*
X006589Y008664D03*
D19*
X016990Y002667D03*
D20*
X017990Y002667D03*
X018990Y002667D03*
X019990Y002667D03*
X020990Y002667D03*
X024208Y002589D03*
X026176Y002589D03*
X020700Y005966D03*
X020685Y010791D03*
X002575Y010791D03*
X002590Y005966D03*
D21*
X023443Y008772D03*
X024443Y008772D03*
X024443Y009772D03*
X023443Y009772D03*
X024443Y007772D03*
D22*
X023443Y007772D03*
D23*
X023169Y012166D03*
D24*
X024169Y012166D03*
X025169Y012166D03*
X026169Y012166D03*
X026169Y011166D03*
X025169Y011166D03*
X024169Y011166D03*
X023169Y011166D03*
D25*
X015383Y002611D03*
X011119Y002604D03*
X006821Y002593D03*
D26*
X006034Y002593D03*
X005246Y002593D03*
X004459Y002593D03*
X008756Y002604D03*
X009544Y002604D03*
X010331Y002604D03*
X013021Y002611D03*
X013808Y002611D03*
X014596Y002611D03*
D27*
X023814Y003573D03*
X026570Y003573D03*
D28*
X025692Y004902D03*
X025692Y005402D03*
X025692Y005902D03*
X025692Y006402D03*
X023645Y006402D03*
X023645Y005902D03*
X023645Y005402D03*
X023645Y004902D03*
D29*
X006013Y005421D03*
X005213Y005771D03*
X006013Y006121D03*
M02*
