G75*
G70*
%OFA0B0*%
%FSLAX24Y24*%
%IPPOS*%
%LPD*%
%AMOC8*
5,1,8,0,0,1.08239X$1,22.5*
%
%ADD10C,0.0000*%
%ADD11C,0.0040*%
%ADD12C,0.0079*%
%ADD13C,0.0060*%
%ADD14C,0.0260*%
%ADD15C,0.0050*%
%ADD16R,0.0300X0.0260*%
%ADD17R,0.0260X0.0260*%
%ADD18R,0.0320X0.0260*%
%ADD19C,0.0030*%
%ADD20C,0.0090*%
%ADD21C,0.0080*%
D10*
X001633Y001315D02*
X001633Y013697D01*
X028557Y013697D01*
X028557Y001315D01*
X001633Y001315D01*
X002204Y002322D02*
X002206Y002363D01*
X002212Y002404D01*
X002222Y002444D01*
X002235Y002483D01*
X002252Y002520D01*
X002273Y002556D01*
X002297Y002590D01*
X002324Y002621D01*
X002353Y002649D01*
X002386Y002675D01*
X002420Y002697D01*
X002457Y002716D01*
X002495Y002731D01*
X002535Y002743D01*
X002575Y002751D01*
X002616Y002755D01*
X002658Y002755D01*
X002699Y002751D01*
X002739Y002743D01*
X002779Y002731D01*
X002817Y002716D01*
X002853Y002697D01*
X002888Y002675D01*
X002921Y002649D01*
X002950Y002621D01*
X002977Y002590D01*
X003001Y002556D01*
X003022Y002520D01*
X003039Y002483D01*
X003052Y002444D01*
X003062Y002404D01*
X003068Y002363D01*
X003070Y002322D01*
X003068Y002281D01*
X003062Y002240D01*
X003052Y002200D01*
X003039Y002161D01*
X003022Y002124D01*
X003001Y002088D01*
X002977Y002054D01*
X002950Y002023D01*
X002921Y001995D01*
X002888Y001969D01*
X002854Y001947D01*
X002817Y001928D01*
X002779Y001913D01*
X002739Y001901D01*
X002699Y001893D01*
X002658Y001889D01*
X002616Y001889D01*
X002575Y001893D01*
X002535Y001901D01*
X002495Y001913D01*
X002457Y001928D01*
X002421Y001947D01*
X002386Y001969D01*
X002353Y001995D01*
X002324Y002023D01*
X002297Y002054D01*
X002273Y002088D01*
X002252Y002124D01*
X002235Y002161D01*
X002222Y002200D01*
X002212Y002240D01*
X002206Y002281D01*
X002204Y002322D01*
X027094Y002322D02*
X027096Y002363D01*
X027102Y002404D01*
X027112Y002444D01*
X027125Y002483D01*
X027142Y002520D01*
X027163Y002556D01*
X027187Y002590D01*
X027214Y002621D01*
X027243Y002649D01*
X027276Y002675D01*
X027310Y002697D01*
X027347Y002716D01*
X027385Y002731D01*
X027425Y002743D01*
X027465Y002751D01*
X027506Y002755D01*
X027548Y002755D01*
X027589Y002751D01*
X027629Y002743D01*
X027669Y002731D01*
X027707Y002716D01*
X027743Y002697D01*
X027778Y002675D01*
X027811Y002649D01*
X027840Y002621D01*
X027867Y002590D01*
X027891Y002556D01*
X027912Y002520D01*
X027929Y002483D01*
X027942Y002444D01*
X027952Y002404D01*
X027958Y002363D01*
X027960Y002322D01*
X027958Y002281D01*
X027952Y002240D01*
X027942Y002200D01*
X027929Y002161D01*
X027912Y002124D01*
X027891Y002088D01*
X027867Y002054D01*
X027840Y002023D01*
X027811Y001995D01*
X027778Y001969D01*
X027744Y001947D01*
X027707Y001928D01*
X027669Y001913D01*
X027629Y001901D01*
X027589Y001893D01*
X027548Y001889D01*
X027506Y001889D01*
X027465Y001893D01*
X027425Y001901D01*
X027385Y001913D01*
X027347Y001928D01*
X027311Y001947D01*
X027276Y001969D01*
X027243Y001995D01*
X027214Y002023D01*
X027187Y002054D01*
X027163Y002088D01*
X027142Y002124D01*
X027125Y002161D01*
X027112Y002200D01*
X027102Y002240D01*
X027096Y002281D01*
X027094Y002322D01*
X027094Y012322D02*
X027096Y012363D01*
X027102Y012404D01*
X027112Y012444D01*
X027125Y012483D01*
X027142Y012520D01*
X027163Y012556D01*
X027187Y012590D01*
X027214Y012621D01*
X027243Y012649D01*
X027276Y012675D01*
X027310Y012697D01*
X027347Y012716D01*
X027385Y012731D01*
X027425Y012743D01*
X027465Y012751D01*
X027506Y012755D01*
X027548Y012755D01*
X027589Y012751D01*
X027629Y012743D01*
X027669Y012731D01*
X027707Y012716D01*
X027743Y012697D01*
X027778Y012675D01*
X027811Y012649D01*
X027840Y012621D01*
X027867Y012590D01*
X027891Y012556D01*
X027912Y012520D01*
X027929Y012483D01*
X027942Y012444D01*
X027952Y012404D01*
X027958Y012363D01*
X027960Y012322D01*
X027958Y012281D01*
X027952Y012240D01*
X027942Y012200D01*
X027929Y012161D01*
X027912Y012124D01*
X027891Y012088D01*
X027867Y012054D01*
X027840Y012023D01*
X027811Y011995D01*
X027778Y011969D01*
X027744Y011947D01*
X027707Y011928D01*
X027669Y011913D01*
X027629Y011901D01*
X027589Y011893D01*
X027548Y011889D01*
X027506Y011889D01*
X027465Y011893D01*
X027425Y011901D01*
X027385Y011913D01*
X027347Y011928D01*
X027311Y011947D01*
X027276Y011969D01*
X027243Y011995D01*
X027214Y012023D01*
X027187Y012054D01*
X027163Y012088D01*
X027142Y012124D01*
X027125Y012161D01*
X027112Y012200D01*
X027102Y012240D01*
X027096Y012281D01*
X027094Y012322D01*
D11*
X027102Y007327D02*
X026871Y007327D01*
X026795Y007251D01*
X026795Y007097D01*
X026871Y007020D01*
X027102Y007020D01*
X027102Y006867D02*
X027102Y007327D01*
X027255Y007251D02*
X027332Y007327D01*
X027485Y007327D01*
X027562Y007251D01*
X027562Y007174D01*
X027485Y007097D01*
X027332Y007097D01*
X027255Y007020D01*
X027255Y006944D01*
X027332Y006867D01*
X027485Y006867D01*
X027562Y006944D01*
X027716Y006867D02*
X027869Y006867D01*
X027792Y006867D02*
X027792Y007327D01*
X027716Y007327D02*
X027869Y007327D01*
X026402Y005321D02*
X026402Y005014D01*
X026248Y005168D02*
X026555Y005168D01*
D12*
X028407Y001804D02*
X022507Y001804D01*
X022507Y012804D01*
X028407Y012804D01*
X028407Y001804D01*
D13*
X021490Y002167D02*
X020590Y002167D01*
X020490Y002267D01*
X020390Y002167D01*
X019590Y002167D01*
X019490Y002267D01*
X019390Y002167D01*
X018590Y002167D01*
X018490Y002267D01*
X018390Y002167D01*
X017590Y002167D01*
X017490Y002267D01*
X017390Y002167D01*
X016490Y002167D01*
X016490Y003167D01*
X017390Y003167D01*
X017490Y003067D01*
X017590Y003167D01*
X018390Y003167D01*
X018490Y003067D01*
X018590Y003167D01*
X019390Y003167D01*
X019490Y003067D01*
X019590Y003167D01*
X020390Y003167D01*
X020490Y003067D01*
X020590Y003167D01*
X021490Y003167D01*
X021490Y002167D01*
X025043Y007272D02*
X026143Y007272D01*
X026143Y008272D01*
X026143Y009272D01*
X025043Y009272D01*
X025043Y008272D01*
X025043Y007272D01*
X025043Y008272D02*
X026143Y008272D01*
X026143Y009272D02*
X026143Y010272D01*
X025043Y010272D01*
X025043Y009272D01*
D14*
X026443Y009772D02*
X028293Y009772D01*
X028293Y008772D02*
X026443Y008772D01*
X026443Y007772D02*
X028293Y007772D01*
D15*
X025779Y007922D02*
X025704Y007997D01*
X025553Y007997D01*
X025478Y007922D01*
X025478Y007847D01*
X025779Y007547D01*
X025478Y007547D01*
X025553Y008547D02*
X025553Y008997D01*
X025779Y008772D01*
X025478Y008772D01*
X025553Y009547D02*
X025478Y009622D01*
X025478Y009697D01*
X025553Y009772D01*
X025779Y009772D01*
X025779Y009622D01*
X025704Y009547D01*
X025553Y009547D01*
X025779Y009772D02*
X025628Y009922D01*
X025478Y009997D01*
X021473Y008429D02*
X021473Y013154D01*
X001787Y013154D01*
X001787Y008429D01*
X021473Y008429D01*
X021487Y008328D02*
X001802Y008328D01*
X001802Y003604D01*
X021487Y003604D01*
X021487Y008328D01*
X019913Y007541D02*
X003771Y007541D01*
X003771Y006753D01*
X003377Y006753D01*
X003377Y005178D01*
X003771Y005178D01*
X003771Y004391D01*
X019913Y004391D01*
X019913Y007541D01*
X019504Y009217D02*
X003362Y009217D01*
X003362Y012366D01*
X019504Y012366D01*
X019504Y011579D01*
X019898Y011579D01*
X019898Y010004D01*
X019504Y010004D01*
X019504Y009217D01*
X016171Y003399D02*
X012234Y003399D01*
X012234Y001824D01*
X012234Y001430D01*
X013021Y001430D01*
X013021Y001824D01*
X013415Y001824D01*
X013415Y001430D01*
X014989Y001430D01*
X014989Y001824D01*
X015383Y001824D01*
X015383Y001430D01*
X016171Y001430D01*
X016171Y001824D01*
X016171Y003399D01*
X016171Y001824D02*
X015383Y001824D01*
X014989Y001824D02*
X013415Y001824D01*
X013021Y001824D02*
X012234Y001824D01*
X011906Y001816D02*
X011906Y001423D01*
X011119Y001423D01*
X011119Y001816D01*
X011906Y001816D01*
X011906Y003391D01*
X007969Y003391D01*
X007969Y001816D01*
X007969Y001423D01*
X008756Y001423D01*
X008756Y001816D01*
X009150Y001816D01*
X009150Y001423D01*
X010725Y001423D01*
X010725Y001816D01*
X011119Y001816D01*
X010725Y001816D02*
X009150Y001816D01*
X008756Y001816D02*
X007969Y001816D01*
X007608Y001806D02*
X007608Y001412D01*
X006821Y001412D01*
X006821Y001806D01*
X007608Y001806D01*
X007608Y003380D01*
X003671Y003380D01*
X003671Y001806D01*
X003671Y001412D01*
X004459Y001412D01*
X004459Y001806D01*
X004852Y001806D01*
X004852Y001412D01*
X006427Y001412D01*
X006427Y001806D01*
X006821Y001806D01*
X006427Y001806D02*
X004852Y001806D01*
X004459Y001806D02*
X003671Y001806D01*
D16*
X026293Y007772D03*
X026293Y008772D03*
X026293Y009772D03*
D17*
X024913Y009772D03*
X024913Y008772D03*
X024913Y007772D03*
D18*
X023943Y007772D03*
X023943Y008772D03*
X023943Y009772D03*
D19*
X024026Y012912D02*
X024026Y013282D01*
X024212Y013097D01*
X023965Y013097D01*
X023843Y013282D02*
X023843Y012912D01*
X023596Y012912D01*
X023475Y012974D02*
X023228Y013221D01*
X023228Y012974D01*
X023290Y012912D01*
X023413Y012912D01*
X023475Y012974D01*
X023475Y013221D01*
X023413Y013282D01*
X023290Y013282D01*
X023228Y013221D01*
X023107Y013159D02*
X022983Y013282D01*
X022983Y012912D01*
X022860Y012912D02*
X023107Y012912D01*
X022738Y013097D02*
X022491Y013097D01*
X022615Y012974D02*
X022615Y013221D01*
X024333Y013221D02*
X024395Y013282D01*
X024518Y013282D01*
X024580Y013221D01*
X024701Y013282D02*
X024948Y013282D01*
X024948Y012912D01*
X025070Y012912D02*
X025193Y013035D01*
X025131Y013035D02*
X025317Y013035D01*
X025317Y012912D02*
X025317Y013282D01*
X025131Y013282D01*
X025070Y013221D01*
X025070Y013097D01*
X025131Y013035D01*
X024948Y013097D02*
X024825Y013097D01*
X024580Y012912D02*
X024333Y012912D01*
X024580Y012912D02*
X024333Y013159D01*
X024333Y013221D01*
X025438Y013097D02*
X025438Y012912D01*
X025685Y012912D02*
X025685Y013159D01*
X025500Y013159D01*
X025438Y013097D01*
X023687Y004862D02*
X023735Y004813D01*
X023735Y004620D01*
X023687Y004572D01*
X023590Y004572D01*
X023542Y004620D01*
X023542Y004668D01*
X023590Y004717D01*
X023735Y004717D01*
X023687Y004862D02*
X023590Y004862D01*
X023542Y004813D01*
X023440Y004813D02*
X023392Y004862D01*
X023295Y004862D01*
X023247Y004813D01*
X023247Y004620D01*
X023295Y004572D01*
X023392Y004572D01*
X023440Y004620D01*
D20*
X019349Y010297D02*
X019349Y010972D01*
X019687Y010634D02*
X019011Y010634D01*
X004513Y006124D02*
X003838Y006124D01*
X004176Y006461D02*
X004176Y005786D01*
D21*
X023755Y002982D02*
X023755Y001801D01*
X026629Y001801D01*
X026629Y002982D01*
X025979Y003376D02*
X024404Y003376D01*
M02*
