G75*
G70*
%OFA0B0*%
%FSLAX24Y24*%
%IPPOS*%
%LPD*%
%AMOC8*
5,1,8,0,0,1.08239X$1,22.5*
%
%ADD10C,0.0820*%
%ADD11R,0.0552X0.0395*%
%ADD12R,0.0316X0.0946*%
%ADD13R,0.0395X0.0552*%
%ADD14R,0.0592X0.0592*%
%ADD15R,0.0592X0.0867*%
D10*
X003980Y005380D03*
X004980Y005380D03*
X008260Y008850D03*
X008310Y011080D03*
X008310Y006590D03*
X003580Y009930D03*
X002480Y009930D03*
D11*
X002180Y008384D03*
X002180Y007676D03*
X002180Y007184D03*
X002180Y006476D03*
X002880Y005184D03*
X002880Y004476D03*
X006780Y006476D03*
X006780Y007184D03*
X006780Y007716D03*
X006780Y008424D03*
D12*
X005980Y008854D03*
X005480Y008854D03*
X004980Y008854D03*
X004480Y008854D03*
X003980Y008854D03*
X003480Y008854D03*
X002980Y008854D03*
X002980Y006806D03*
X003480Y006806D03*
X003980Y006806D03*
X004480Y006806D03*
X004980Y006806D03*
X005480Y006806D03*
X005980Y006806D03*
D13*
X006126Y005730D03*
X006834Y005730D03*
X002884Y005730D03*
X002176Y005730D03*
D14*
X005463Y003833D03*
X005463Y002927D03*
X007143Y010177D03*
X007143Y011083D03*
D15*
X003297Y003380D03*
X004977Y010630D03*
M02*
