G75*
G70*
%OFA0B0*%
%FSLAX24Y24*%
%IPPOS*%
%LPD*%
%AMOC8*
5,1,8,0,0,1.08239X$1,22.5*
%
%ADD10C,0.0000*%
%ADD11C,0.0040*%
%ADD12C,0.0030*%
%ADD13C,0.0060*%
%ADD14C,0.0080*%
%ADD15C,0.0143*%
%ADD16C,0.0025*%
%ADD17C,0.0098*%
%ADD18C,0.0050*%
D10*
X000680Y000680D02*
X000680Y012550D01*
X016147Y012550D01*
X016147Y000680D01*
X000680Y000680D01*
X001129Y001680D02*
X001131Y001727D01*
X001137Y001773D01*
X001147Y001819D01*
X001160Y001864D01*
X001178Y001907D01*
X001199Y001949D01*
X001223Y001989D01*
X001251Y002026D01*
X001282Y002061D01*
X001316Y002094D01*
X001352Y002123D01*
X001391Y002149D01*
X001432Y002172D01*
X001475Y002191D01*
X001519Y002207D01*
X001564Y002219D01*
X001610Y002227D01*
X001657Y002231D01*
X001703Y002231D01*
X001750Y002227D01*
X001796Y002219D01*
X001841Y002207D01*
X001885Y002191D01*
X001928Y002172D01*
X001969Y002149D01*
X002008Y002123D01*
X002044Y002094D01*
X002078Y002061D01*
X002109Y002026D01*
X002137Y001989D01*
X002161Y001949D01*
X002182Y001907D01*
X002200Y001864D01*
X002213Y001819D01*
X002223Y001773D01*
X002229Y001727D01*
X002231Y001680D01*
X002229Y001633D01*
X002223Y001587D01*
X002213Y001541D01*
X002200Y001496D01*
X002182Y001453D01*
X002161Y001411D01*
X002137Y001371D01*
X002109Y001334D01*
X002078Y001299D01*
X002044Y001266D01*
X002008Y001237D01*
X001969Y001211D01*
X001928Y001188D01*
X001885Y001169D01*
X001841Y001153D01*
X001796Y001141D01*
X001750Y001133D01*
X001703Y001129D01*
X001657Y001129D01*
X001610Y001133D01*
X001564Y001141D01*
X001519Y001153D01*
X001475Y001169D01*
X001432Y001188D01*
X001391Y001211D01*
X001352Y001237D01*
X001316Y001266D01*
X001282Y001299D01*
X001251Y001334D01*
X001223Y001371D01*
X001199Y001411D01*
X001178Y001453D01*
X001160Y001496D01*
X001147Y001541D01*
X001137Y001587D01*
X001131Y001633D01*
X001129Y001680D01*
X001129Y011580D02*
X001131Y011627D01*
X001137Y011673D01*
X001147Y011719D01*
X001160Y011764D01*
X001178Y011807D01*
X001199Y011849D01*
X001223Y011889D01*
X001251Y011926D01*
X001282Y011961D01*
X001316Y011994D01*
X001352Y012023D01*
X001391Y012049D01*
X001432Y012072D01*
X001475Y012091D01*
X001519Y012107D01*
X001564Y012119D01*
X001610Y012127D01*
X001657Y012131D01*
X001703Y012131D01*
X001750Y012127D01*
X001796Y012119D01*
X001841Y012107D01*
X001885Y012091D01*
X001928Y012072D01*
X001969Y012049D01*
X002008Y012023D01*
X002044Y011994D01*
X002078Y011961D01*
X002109Y011926D01*
X002137Y011889D01*
X002161Y011849D01*
X002182Y011807D01*
X002200Y011764D01*
X002213Y011719D01*
X002223Y011673D01*
X002229Y011627D01*
X002231Y011580D01*
X002229Y011533D01*
X002223Y011487D01*
X002213Y011441D01*
X002200Y011396D01*
X002182Y011353D01*
X002161Y011311D01*
X002137Y011271D01*
X002109Y011234D01*
X002078Y011199D01*
X002044Y011166D01*
X002008Y011137D01*
X001969Y011111D01*
X001928Y011088D01*
X001885Y011069D01*
X001841Y011053D01*
X001796Y011041D01*
X001750Y011033D01*
X001703Y011029D01*
X001657Y011029D01*
X001610Y011033D01*
X001564Y011041D01*
X001519Y011053D01*
X001475Y011069D01*
X001432Y011088D01*
X001391Y011111D01*
X001352Y011137D01*
X001316Y011166D01*
X001282Y011199D01*
X001251Y011234D01*
X001223Y011271D01*
X001199Y011311D01*
X001178Y011353D01*
X001160Y011396D01*
X001147Y011441D01*
X001137Y011487D01*
X001131Y011533D01*
X001129Y011580D01*
X014604Y011580D02*
X014606Y011627D01*
X014612Y011673D01*
X014622Y011719D01*
X014635Y011764D01*
X014653Y011807D01*
X014674Y011849D01*
X014698Y011889D01*
X014726Y011926D01*
X014757Y011961D01*
X014791Y011994D01*
X014827Y012023D01*
X014866Y012049D01*
X014907Y012072D01*
X014950Y012091D01*
X014994Y012107D01*
X015039Y012119D01*
X015085Y012127D01*
X015132Y012131D01*
X015178Y012131D01*
X015225Y012127D01*
X015271Y012119D01*
X015316Y012107D01*
X015360Y012091D01*
X015403Y012072D01*
X015444Y012049D01*
X015483Y012023D01*
X015519Y011994D01*
X015553Y011961D01*
X015584Y011926D01*
X015612Y011889D01*
X015636Y011849D01*
X015657Y011807D01*
X015675Y011764D01*
X015688Y011719D01*
X015698Y011673D01*
X015704Y011627D01*
X015706Y011580D01*
X015704Y011533D01*
X015698Y011487D01*
X015688Y011441D01*
X015675Y011396D01*
X015657Y011353D01*
X015636Y011311D01*
X015612Y011271D01*
X015584Y011234D01*
X015553Y011199D01*
X015519Y011166D01*
X015483Y011137D01*
X015444Y011111D01*
X015403Y011088D01*
X015360Y011069D01*
X015316Y011053D01*
X015271Y011041D01*
X015225Y011033D01*
X015178Y011029D01*
X015132Y011029D01*
X015085Y011033D01*
X015039Y011041D01*
X014994Y011053D01*
X014950Y011069D01*
X014907Y011088D01*
X014866Y011111D01*
X014827Y011137D01*
X014791Y011166D01*
X014757Y011199D01*
X014726Y011234D01*
X014698Y011271D01*
X014674Y011311D01*
X014653Y011353D01*
X014635Y011396D01*
X014622Y011441D01*
X014612Y011487D01*
X014606Y011533D01*
X014604Y011580D01*
X014604Y001680D02*
X014606Y001727D01*
X014612Y001773D01*
X014622Y001819D01*
X014635Y001864D01*
X014653Y001907D01*
X014674Y001949D01*
X014698Y001989D01*
X014726Y002026D01*
X014757Y002061D01*
X014791Y002094D01*
X014827Y002123D01*
X014866Y002149D01*
X014907Y002172D01*
X014950Y002191D01*
X014994Y002207D01*
X015039Y002219D01*
X015085Y002227D01*
X015132Y002231D01*
X015178Y002231D01*
X015225Y002227D01*
X015271Y002219D01*
X015316Y002207D01*
X015360Y002191D01*
X015403Y002172D01*
X015444Y002149D01*
X015483Y002123D01*
X015519Y002094D01*
X015553Y002061D01*
X015584Y002026D01*
X015612Y001989D01*
X015636Y001949D01*
X015657Y001907D01*
X015675Y001864D01*
X015688Y001819D01*
X015698Y001773D01*
X015704Y001727D01*
X015706Y001680D01*
X015704Y001633D01*
X015698Y001587D01*
X015688Y001541D01*
X015675Y001496D01*
X015657Y001453D01*
X015636Y001411D01*
X015612Y001371D01*
X015584Y001334D01*
X015553Y001299D01*
X015519Y001266D01*
X015483Y001237D01*
X015444Y001211D01*
X015403Y001188D01*
X015360Y001169D01*
X015316Y001153D01*
X015271Y001141D01*
X015225Y001133D01*
X015178Y001129D01*
X015132Y001129D01*
X015085Y001133D01*
X015039Y001141D01*
X014994Y001153D01*
X014950Y001169D01*
X014907Y001188D01*
X014866Y001211D01*
X014827Y001237D01*
X014791Y001266D01*
X014757Y001299D01*
X014726Y001334D01*
X014698Y001371D01*
X014674Y001411D01*
X014653Y001453D01*
X014635Y001496D01*
X014622Y001541D01*
X014612Y001587D01*
X014606Y001633D01*
X014604Y001680D01*
D11*
X011009Y001450D02*
X010856Y001450D01*
X010932Y001450D02*
X010932Y001910D01*
X010856Y001910D01*
X010702Y001680D02*
X010625Y001757D01*
X010472Y001757D01*
X010472Y001603D02*
X010702Y001603D01*
X010702Y001680D02*
X010702Y001450D01*
X010472Y001450D01*
X010395Y001527D01*
X010472Y001603D01*
X010242Y001450D02*
X010165Y001527D01*
X010165Y001834D01*
X010088Y001757D02*
X010242Y001757D01*
X009858Y001757D02*
X009858Y001450D01*
X009781Y001450D02*
X009935Y001450D01*
X009628Y001450D02*
X009398Y001450D01*
X009321Y001527D01*
X009321Y001680D01*
X009398Y001757D01*
X009628Y001757D01*
X009628Y001373D01*
X009551Y001297D01*
X009474Y001297D01*
X009167Y001450D02*
X009014Y001450D01*
X009091Y001450D02*
X009091Y001757D01*
X009014Y001757D01*
X009091Y001910D02*
X009091Y001987D01*
X008861Y001834D02*
X008784Y001910D01*
X008554Y001910D01*
X008554Y001450D01*
X008784Y001450D01*
X008861Y001527D01*
X008861Y001834D01*
X009781Y001757D02*
X009858Y001757D01*
X009858Y001910D02*
X009858Y001987D01*
X007160Y006775D02*
X007160Y006928D01*
X007160Y006852D02*
X006700Y006852D01*
X006700Y006928D02*
X006700Y006775D01*
X006776Y007082D02*
X006700Y007159D01*
X006700Y007312D01*
X006776Y007389D01*
X006853Y007389D01*
X007160Y007082D01*
X007160Y007389D01*
X007083Y007542D02*
X007160Y007619D01*
X007160Y007773D01*
X007083Y007849D01*
X006776Y007849D02*
X006700Y007773D01*
X006700Y007619D01*
X006776Y007542D01*
X007083Y007542D01*
X004980Y009648D02*
X004904Y009572D01*
X004827Y009572D01*
X004750Y009725D02*
X004980Y009725D01*
X004980Y009648D02*
X004980Y010032D01*
X004750Y010032D01*
X004673Y009955D01*
X004673Y009802D01*
X004750Y009725D01*
X004520Y009802D02*
X004520Y009955D01*
X004443Y010032D01*
X004290Y010032D01*
X004213Y009955D01*
X004213Y009802D01*
X004290Y009725D01*
X004443Y009725D01*
X004520Y009802D01*
X004060Y009725D02*
X003906Y009725D01*
X003983Y009725D02*
X003983Y010185D01*
X003906Y010185D01*
X003676Y010032D02*
X003753Y009955D01*
X003753Y009725D01*
X003523Y009725D01*
X003446Y009802D01*
X003523Y009878D01*
X003753Y009878D01*
X003676Y010032D02*
X003523Y010032D01*
X003292Y009955D02*
X003292Y009725D01*
X003292Y009955D02*
X003216Y010032D01*
X002985Y010032D01*
X002985Y009725D01*
X002832Y009725D02*
X002832Y010032D01*
X002678Y010185D01*
X002525Y010032D01*
X002525Y009725D01*
X002525Y009955D02*
X002832Y009955D01*
X003060Y003197D02*
X003060Y002890D01*
X003060Y003043D02*
X002600Y003043D01*
X002753Y002890D01*
X002676Y002736D02*
X002600Y002659D01*
X002600Y002506D01*
X002676Y002429D01*
X002753Y002429D01*
X002830Y002506D01*
X002830Y002659D01*
X002907Y002736D01*
X002983Y002736D01*
X003060Y002659D01*
X003060Y002506D01*
X002983Y002429D01*
X014172Y010025D02*
X014326Y010025D01*
X014249Y010025D02*
X014249Y010485D01*
X014172Y010485D02*
X014326Y010485D01*
X014479Y010409D02*
X014479Y010332D01*
X014556Y010255D01*
X014709Y010255D01*
X014786Y010178D01*
X014786Y010102D01*
X014709Y010025D01*
X014556Y010025D01*
X014479Y010102D01*
X014479Y010409D02*
X014556Y010485D01*
X014709Y010485D01*
X014786Y010409D01*
X014940Y010485D02*
X015170Y010485D01*
X015247Y010409D01*
X015247Y010255D01*
X015170Y010178D01*
X014940Y010178D01*
X014940Y010025D02*
X014940Y010485D01*
D12*
X013404Y009274D02*
X013404Y009226D01*
X013356Y009177D01*
X013259Y009177D01*
X013211Y009226D01*
X013211Y009274D01*
X013259Y009322D01*
X013356Y009322D01*
X013404Y009274D01*
X013356Y009177D02*
X013404Y009129D01*
X013404Y009081D01*
X013356Y009032D01*
X013259Y009032D01*
X013211Y009081D01*
X013211Y009129D01*
X013259Y009177D01*
X013109Y009081D02*
X013061Y009032D01*
X012964Y009032D01*
X012916Y009081D01*
X012916Y009274D01*
X012964Y009322D01*
X013061Y009322D01*
X013109Y009274D01*
X012996Y008621D02*
X012996Y008330D01*
X012900Y008330D02*
X013093Y008330D01*
X012900Y008524D02*
X012996Y008621D01*
X012766Y006658D02*
X012621Y006513D01*
X012815Y006513D01*
X012766Y006368D02*
X012766Y006658D01*
X012520Y006610D02*
X012520Y006513D01*
X012471Y006465D01*
X012326Y006465D01*
X012326Y006368D02*
X012326Y006658D01*
X012471Y006658D01*
X012520Y006610D01*
X012423Y006465D02*
X012520Y006368D01*
X011822Y004283D02*
X011822Y003993D01*
X011725Y003993D02*
X011919Y003993D01*
X011725Y004186D02*
X011822Y004283D01*
X011624Y004235D02*
X011624Y004041D01*
X011576Y003993D01*
X011479Y003993D01*
X011431Y004041D01*
X011431Y004235D01*
X011479Y004283D01*
X011576Y004283D01*
X011624Y004235D01*
X011527Y004090D02*
X011624Y003993D01*
X010418Y003889D02*
X010224Y003889D01*
X010321Y003889D02*
X010321Y004180D01*
X010224Y004083D01*
X010123Y004131D02*
X010075Y004180D01*
X009978Y004180D01*
X009930Y004131D01*
X009930Y003938D01*
X009978Y003889D01*
X010075Y003889D01*
X010123Y003938D01*
X009450Y004597D02*
X009305Y004597D01*
X009305Y004888D01*
X009450Y004888D01*
X009498Y004839D01*
X009498Y004646D01*
X009450Y004597D01*
X009204Y004597D02*
X009010Y004597D01*
X009010Y004888D01*
X009204Y004888D01*
X009107Y004742D02*
X009010Y004742D01*
X008909Y004597D02*
X008715Y004597D01*
X008715Y004888D01*
X006287Y005267D02*
X006094Y005267D01*
X006191Y005267D02*
X006191Y005557D01*
X006094Y005460D01*
X005993Y005412D02*
X005944Y005364D01*
X005799Y005364D01*
X005896Y005364D02*
X005993Y005267D01*
X005993Y005412D02*
X005993Y005509D01*
X005944Y005557D01*
X005799Y005557D01*
X005799Y005267D01*
X003067Y004557D02*
X003067Y004509D01*
X002873Y004315D01*
X002873Y004267D01*
X002772Y004315D02*
X002724Y004267D01*
X002627Y004267D01*
X002579Y004315D01*
X002579Y004509D01*
X002627Y004557D01*
X002724Y004557D01*
X002772Y004509D01*
X002873Y004557D02*
X003067Y004557D01*
X002946Y008080D02*
X002849Y008080D01*
X002800Y008128D01*
X002800Y008225D01*
X002946Y008225D01*
X002994Y008176D01*
X002994Y008128D01*
X002946Y008080D01*
X002800Y008225D02*
X002897Y008321D01*
X002994Y008370D01*
X002699Y008321D02*
X002651Y008370D01*
X002554Y008370D01*
X002506Y008321D01*
X002506Y008128D01*
X002554Y008080D01*
X002651Y008080D01*
X002699Y008128D01*
X007444Y008804D02*
X007444Y009094D01*
X007589Y009094D01*
X007637Y009046D01*
X007637Y008949D01*
X007589Y008900D01*
X007444Y008900D01*
X007540Y008900D02*
X007637Y008804D01*
X007738Y008804D02*
X007932Y008997D01*
X007932Y009046D01*
X007883Y009094D01*
X007787Y009094D01*
X007738Y009046D01*
X007738Y008804D02*
X007932Y008804D01*
X008552Y010309D02*
X008649Y010309D01*
X008697Y010358D01*
X008798Y010454D02*
X008992Y010454D01*
X008943Y010309D02*
X008943Y010600D01*
X008798Y010454D01*
X008697Y010551D02*
X008649Y010600D01*
X008552Y010600D01*
X008504Y010551D01*
X008504Y010358D01*
X008552Y010309D01*
X009216Y010364D02*
X009265Y010316D01*
X009361Y010316D01*
X009410Y010364D01*
X009511Y010364D02*
X009559Y010316D01*
X009656Y010316D01*
X009705Y010364D01*
X009705Y010461D01*
X009656Y010509D01*
X009608Y010509D01*
X009511Y010461D01*
X009511Y010606D01*
X009705Y010606D01*
X009410Y010558D02*
X009361Y010606D01*
X009265Y010606D01*
X009216Y010558D01*
X009216Y010364D01*
X009254Y011775D02*
X009351Y011775D01*
X009399Y011823D01*
X009500Y011823D02*
X009549Y011775D01*
X009645Y011775D01*
X009694Y011823D01*
X009694Y011872D01*
X009645Y011920D01*
X009597Y011920D01*
X009645Y011920D02*
X009694Y011968D01*
X009694Y012017D01*
X009645Y012065D01*
X009549Y012065D01*
X009500Y012017D01*
X009399Y012017D02*
X009351Y012065D01*
X009254Y012065D01*
X009206Y012017D01*
X009206Y011823D01*
X009254Y011775D01*
X009010Y011838D02*
X008962Y011790D01*
X008865Y011790D01*
X008817Y011838D01*
X008716Y011790D02*
X008619Y011887D01*
X008667Y011887D02*
X008522Y011887D01*
X008522Y011790D02*
X008522Y012080D01*
X008667Y012080D01*
X008716Y012032D01*
X008716Y011935D01*
X008667Y011887D01*
X008817Y012032D02*
X008865Y012080D01*
X008962Y012080D01*
X009010Y012032D01*
X009010Y011984D01*
X008962Y011935D01*
X009010Y011887D01*
X009010Y011838D01*
X008962Y011935D02*
X008913Y011935D01*
X014907Y003884D02*
X014859Y003836D01*
X014859Y003739D01*
X014907Y003691D01*
X014907Y003589D02*
X014859Y003541D01*
X014859Y003444D01*
X014907Y003396D01*
X015101Y003396D01*
X015149Y003444D01*
X015149Y003541D01*
X015101Y003589D01*
X015149Y003691D02*
X014956Y003884D01*
X014907Y003884D01*
X015149Y003884D02*
X015149Y003691D01*
D13*
X011060Y005800D02*
X008440Y005800D01*
X008300Y005940D01*
X008300Y008560D01*
X011060Y008560D01*
X011060Y005800D01*
X008459Y006100D02*
X008461Y006123D01*
X008467Y006146D01*
X008476Y006167D01*
X008489Y006187D01*
X008505Y006204D01*
X008523Y006218D01*
X008543Y006229D01*
X008565Y006237D01*
X008588Y006241D01*
X008612Y006241D01*
X008635Y006237D01*
X008657Y006229D01*
X008677Y006218D01*
X008695Y006204D01*
X008711Y006187D01*
X008724Y006167D01*
X008733Y006146D01*
X008739Y006123D01*
X008741Y006100D01*
X008739Y006077D01*
X008733Y006054D01*
X008724Y006033D01*
X008711Y006013D01*
X008695Y005996D01*
X008677Y005982D01*
X008657Y005971D01*
X008635Y005963D01*
X008612Y005959D01*
X008588Y005959D01*
X008565Y005963D01*
X008543Y005971D01*
X008523Y005982D01*
X008505Y005996D01*
X008489Y006013D01*
X008476Y006033D01*
X008467Y006054D01*
X008461Y006077D01*
X008459Y006100D01*
X002180Y005780D02*
X002080Y005680D01*
X002180Y005580D01*
X002180Y004780D01*
X002080Y004680D01*
X002180Y004580D01*
X002180Y003780D01*
X002080Y003680D01*
X002180Y003580D01*
X002180Y002680D01*
X001180Y002680D01*
X001180Y003580D01*
X001280Y003680D01*
X001180Y003780D01*
X001180Y004580D01*
X001280Y004680D01*
X001180Y004780D01*
X001180Y005580D01*
X001280Y005680D01*
X001180Y005780D01*
X001180Y006580D01*
X001280Y006680D01*
X001180Y006780D01*
X001180Y007680D01*
X002180Y007680D01*
X002180Y006780D01*
X002080Y006680D01*
X002180Y006580D01*
X002180Y005780D01*
D14*
X004212Y003905D02*
X005005Y003905D01*
X005805Y003555D02*
X005805Y001855D01*
X005005Y001505D02*
X004200Y001505D01*
X003405Y001855D02*
X003405Y003555D01*
X003905Y002705D02*
X003907Y002757D01*
X003913Y002809D01*
X003923Y002861D01*
X003936Y002911D01*
X003953Y002961D01*
X003974Y003009D01*
X003999Y003055D01*
X004027Y003099D01*
X004058Y003141D01*
X004092Y003181D01*
X004129Y003218D01*
X004169Y003252D01*
X004211Y003283D01*
X004255Y003311D01*
X004301Y003336D01*
X004349Y003357D01*
X004399Y003374D01*
X004449Y003387D01*
X004501Y003397D01*
X004553Y003403D01*
X004605Y003405D01*
X004657Y003403D01*
X004709Y003397D01*
X004761Y003387D01*
X004811Y003374D01*
X004861Y003357D01*
X004909Y003336D01*
X004955Y003311D01*
X004999Y003283D01*
X005041Y003252D01*
X005081Y003218D01*
X005118Y003181D01*
X005152Y003141D01*
X005183Y003099D01*
X005211Y003055D01*
X005236Y003009D01*
X005257Y002961D01*
X005274Y002911D01*
X005287Y002861D01*
X005297Y002809D01*
X005303Y002757D01*
X005305Y002705D01*
X005303Y002653D01*
X005297Y002601D01*
X005287Y002549D01*
X005274Y002499D01*
X005257Y002449D01*
X005236Y002401D01*
X005211Y002355D01*
X005183Y002311D01*
X005152Y002269D01*
X005118Y002229D01*
X005081Y002192D01*
X005041Y002158D01*
X004999Y002127D01*
X004955Y002099D01*
X004909Y002074D01*
X004861Y002053D01*
X004811Y002036D01*
X004761Y002023D01*
X004709Y002013D01*
X004657Y002007D01*
X004605Y002005D01*
X004553Y002007D01*
X004501Y002013D01*
X004449Y002023D01*
X004399Y002036D01*
X004349Y002053D01*
X004301Y002074D01*
X004255Y002099D01*
X004211Y002127D01*
X004169Y002158D01*
X004129Y002192D01*
X004092Y002229D01*
X004058Y002269D01*
X004027Y002311D01*
X003999Y002355D01*
X003974Y002401D01*
X003953Y002449D01*
X003936Y002499D01*
X003923Y002549D01*
X003913Y002601D01*
X003907Y002653D01*
X003905Y002705D01*
X011063Y002912D02*
X011063Y003148D01*
X011792Y003680D02*
X012618Y003680D01*
X013347Y003148D02*
X013347Y002912D01*
X012618Y002380D02*
X011792Y002380D01*
D15*
X013012Y003109D03*
D16*
X008989Y004180D02*
X008920Y004111D01*
X008861Y004170D01*
X008930Y004239D01*
X008989Y004180D01*
D17*
X008822Y004337D03*
D18*
X008217Y004967D02*
X006643Y004967D01*
X006249Y004967D01*
X006249Y004180D01*
X006643Y004180D01*
X006643Y004967D01*
X006643Y004180D02*
X006643Y003786D01*
X006249Y003786D01*
X006249Y002211D01*
X006643Y002211D01*
X006643Y001818D01*
X006249Y001818D01*
X006249Y001030D01*
X006643Y001030D01*
X006643Y001818D01*
X006643Y002211D02*
X006643Y003786D01*
X008217Y004967D02*
X008217Y001030D01*
X006643Y001030D01*
X006467Y005893D02*
X002530Y005893D01*
X002530Y007467D01*
X002530Y007861D01*
X003318Y007861D01*
X003318Y007467D01*
X003711Y007467D01*
X003711Y007861D01*
X005286Y007861D01*
X005286Y007467D01*
X005680Y007467D01*
X005680Y007861D01*
X006467Y007861D01*
X006467Y007467D01*
X006467Y005893D01*
X006467Y007467D02*
X005680Y007467D01*
X005286Y007467D02*
X003711Y007467D01*
X003318Y007467D02*
X002530Y007467D01*
X001843Y008193D02*
X001392Y008193D01*
X001392Y008418D01*
X001467Y008493D01*
X001617Y008493D01*
X001692Y008418D01*
X001692Y008193D01*
X001692Y008653D02*
X001692Y008878D01*
X001617Y008953D01*
X001467Y008953D01*
X001392Y008878D01*
X001392Y008653D01*
X001843Y008653D01*
X001692Y008803D02*
X001843Y008953D01*
X001767Y009113D02*
X001843Y009188D01*
X001843Y009338D01*
X001767Y009414D01*
X001467Y009414D01*
X001392Y009338D01*
X001392Y009188D01*
X001467Y009113D01*
X001767Y009113D01*
X001767Y009574D02*
X001467Y009574D01*
X001392Y009649D01*
X001392Y009799D01*
X001467Y009874D01*
X001617Y009874D02*
X001617Y009724D01*
X001617Y009874D02*
X001767Y009874D01*
X001843Y009799D01*
X001843Y009649D01*
X001767Y009574D01*
X002530Y010393D02*
X002530Y011967D01*
X002530Y012361D01*
X003318Y012361D01*
X003318Y011967D01*
X003711Y011967D01*
X003711Y012361D01*
X005286Y012361D01*
X005286Y011967D01*
X005680Y011967D01*
X005680Y012361D01*
X006467Y012361D01*
X006467Y011967D01*
X006467Y010393D01*
X002530Y010393D01*
X002530Y011967D02*
X003318Y011967D01*
X003711Y011967D02*
X005286Y011967D01*
X005680Y011967D02*
X006467Y011967D01*
M02*
