G75*
G70*
%OFA0B0*%
%FSLAX24Y24*%
%IPPOS*%
%LPD*%
%AMOC8*
5,1,8,0,0,1.08239X$1,22.5*
%
%ADD10C,0.0000*%
%ADD11C,0.0040*%
%ADD12C,0.0100*%
%ADD13C,0.0030*%
%ADD14R,0.0313X0.0313*%
%ADD15R,0.0187X0.0187*%
%ADD16R,0.0125X0.0125*%
%ADD17C,0.0070*%
%ADD18R,0.0250X0.0250*%
%ADD19R,0.0375X0.0375*%
%ADD20C,0.0080*%
%ADD21C,0.0059*%
D10*
X000680Y000680D02*
X000680Y012550D01*
X016147Y012550D01*
X016147Y000680D01*
X000680Y000680D01*
X001129Y001680D02*
X001131Y001727D01*
X001137Y001773D01*
X001147Y001819D01*
X001160Y001864D01*
X001178Y001907D01*
X001199Y001949D01*
X001223Y001989D01*
X001251Y002026D01*
X001282Y002061D01*
X001316Y002094D01*
X001352Y002123D01*
X001391Y002149D01*
X001432Y002172D01*
X001475Y002191D01*
X001519Y002207D01*
X001564Y002219D01*
X001610Y002227D01*
X001657Y002231D01*
X001703Y002231D01*
X001750Y002227D01*
X001796Y002219D01*
X001841Y002207D01*
X001885Y002191D01*
X001928Y002172D01*
X001969Y002149D01*
X002008Y002123D01*
X002044Y002094D01*
X002078Y002061D01*
X002109Y002026D01*
X002137Y001989D01*
X002161Y001949D01*
X002182Y001907D01*
X002200Y001864D01*
X002213Y001819D01*
X002223Y001773D01*
X002229Y001727D01*
X002231Y001680D01*
X002229Y001633D01*
X002223Y001587D01*
X002213Y001541D01*
X002200Y001496D01*
X002182Y001453D01*
X002161Y001411D01*
X002137Y001371D01*
X002109Y001334D01*
X002078Y001299D01*
X002044Y001266D01*
X002008Y001237D01*
X001969Y001211D01*
X001928Y001188D01*
X001885Y001169D01*
X001841Y001153D01*
X001796Y001141D01*
X001750Y001133D01*
X001703Y001129D01*
X001657Y001129D01*
X001610Y001133D01*
X001564Y001141D01*
X001519Y001153D01*
X001475Y001169D01*
X001432Y001188D01*
X001391Y001211D01*
X001352Y001237D01*
X001316Y001266D01*
X001282Y001299D01*
X001251Y001334D01*
X001223Y001371D01*
X001199Y001411D01*
X001178Y001453D01*
X001160Y001496D01*
X001147Y001541D01*
X001137Y001587D01*
X001131Y001633D01*
X001129Y001680D01*
X001129Y011580D02*
X001131Y011627D01*
X001137Y011673D01*
X001147Y011719D01*
X001160Y011764D01*
X001178Y011807D01*
X001199Y011849D01*
X001223Y011889D01*
X001251Y011926D01*
X001282Y011961D01*
X001316Y011994D01*
X001352Y012023D01*
X001391Y012049D01*
X001432Y012072D01*
X001475Y012091D01*
X001519Y012107D01*
X001564Y012119D01*
X001610Y012127D01*
X001657Y012131D01*
X001703Y012131D01*
X001750Y012127D01*
X001796Y012119D01*
X001841Y012107D01*
X001885Y012091D01*
X001928Y012072D01*
X001969Y012049D01*
X002008Y012023D01*
X002044Y011994D01*
X002078Y011961D01*
X002109Y011926D01*
X002137Y011889D01*
X002161Y011849D01*
X002182Y011807D01*
X002200Y011764D01*
X002213Y011719D01*
X002223Y011673D01*
X002229Y011627D01*
X002231Y011580D01*
X002229Y011533D01*
X002223Y011487D01*
X002213Y011441D01*
X002200Y011396D01*
X002182Y011353D01*
X002161Y011311D01*
X002137Y011271D01*
X002109Y011234D01*
X002078Y011199D01*
X002044Y011166D01*
X002008Y011137D01*
X001969Y011111D01*
X001928Y011088D01*
X001885Y011069D01*
X001841Y011053D01*
X001796Y011041D01*
X001750Y011033D01*
X001703Y011029D01*
X001657Y011029D01*
X001610Y011033D01*
X001564Y011041D01*
X001519Y011053D01*
X001475Y011069D01*
X001432Y011088D01*
X001391Y011111D01*
X001352Y011137D01*
X001316Y011166D01*
X001282Y011199D01*
X001251Y011234D01*
X001223Y011271D01*
X001199Y011311D01*
X001178Y011353D01*
X001160Y011396D01*
X001147Y011441D01*
X001137Y011487D01*
X001131Y011533D01*
X001129Y011580D01*
X014604Y011580D02*
X014606Y011627D01*
X014612Y011673D01*
X014622Y011719D01*
X014635Y011764D01*
X014653Y011807D01*
X014674Y011849D01*
X014698Y011889D01*
X014726Y011926D01*
X014757Y011961D01*
X014791Y011994D01*
X014827Y012023D01*
X014866Y012049D01*
X014907Y012072D01*
X014950Y012091D01*
X014994Y012107D01*
X015039Y012119D01*
X015085Y012127D01*
X015132Y012131D01*
X015178Y012131D01*
X015225Y012127D01*
X015271Y012119D01*
X015316Y012107D01*
X015360Y012091D01*
X015403Y012072D01*
X015444Y012049D01*
X015483Y012023D01*
X015519Y011994D01*
X015553Y011961D01*
X015584Y011926D01*
X015612Y011889D01*
X015636Y011849D01*
X015657Y011807D01*
X015675Y011764D01*
X015688Y011719D01*
X015698Y011673D01*
X015704Y011627D01*
X015706Y011580D01*
X015704Y011533D01*
X015698Y011487D01*
X015688Y011441D01*
X015675Y011396D01*
X015657Y011353D01*
X015636Y011311D01*
X015612Y011271D01*
X015584Y011234D01*
X015553Y011199D01*
X015519Y011166D01*
X015483Y011137D01*
X015444Y011111D01*
X015403Y011088D01*
X015360Y011069D01*
X015316Y011053D01*
X015271Y011041D01*
X015225Y011033D01*
X015178Y011029D01*
X015132Y011029D01*
X015085Y011033D01*
X015039Y011041D01*
X014994Y011053D01*
X014950Y011069D01*
X014907Y011088D01*
X014866Y011111D01*
X014827Y011137D01*
X014791Y011166D01*
X014757Y011199D01*
X014726Y011234D01*
X014698Y011271D01*
X014674Y011311D01*
X014653Y011353D01*
X014635Y011396D01*
X014622Y011441D01*
X014612Y011487D01*
X014606Y011533D01*
X014604Y011580D01*
X014604Y001680D02*
X014606Y001727D01*
X014612Y001773D01*
X014622Y001819D01*
X014635Y001864D01*
X014653Y001907D01*
X014674Y001949D01*
X014698Y001989D01*
X014726Y002026D01*
X014757Y002061D01*
X014791Y002094D01*
X014827Y002123D01*
X014866Y002149D01*
X014907Y002172D01*
X014950Y002191D01*
X014994Y002207D01*
X015039Y002219D01*
X015085Y002227D01*
X015132Y002231D01*
X015178Y002231D01*
X015225Y002227D01*
X015271Y002219D01*
X015316Y002207D01*
X015360Y002191D01*
X015403Y002172D01*
X015444Y002149D01*
X015483Y002123D01*
X015519Y002094D01*
X015553Y002061D01*
X015584Y002026D01*
X015612Y001989D01*
X015636Y001949D01*
X015657Y001907D01*
X015675Y001864D01*
X015688Y001819D01*
X015698Y001773D01*
X015704Y001727D01*
X015706Y001680D01*
X015704Y001633D01*
X015698Y001587D01*
X015688Y001541D01*
X015675Y001496D01*
X015657Y001453D01*
X015636Y001411D01*
X015612Y001371D01*
X015584Y001334D01*
X015553Y001299D01*
X015519Y001266D01*
X015483Y001237D01*
X015444Y001211D01*
X015403Y001188D01*
X015360Y001169D01*
X015316Y001153D01*
X015271Y001141D01*
X015225Y001133D01*
X015178Y001129D01*
X015132Y001129D01*
X015085Y001133D01*
X015039Y001141D01*
X014994Y001153D01*
X014950Y001169D01*
X014907Y001188D01*
X014866Y001211D01*
X014827Y001237D01*
X014791Y001266D01*
X014757Y001299D01*
X014726Y001334D01*
X014698Y001371D01*
X014674Y001411D01*
X014653Y001453D01*
X014635Y001496D01*
X014622Y001541D01*
X014612Y001587D01*
X014606Y001633D01*
X014604Y001680D01*
D11*
X005089Y008215D02*
X005089Y008352D01*
X005021Y008420D01*
X004815Y008420D01*
X004815Y008557D02*
X004815Y008146D01*
X005021Y008146D01*
X005089Y008215D01*
X004675Y008215D02*
X004675Y008352D01*
X004606Y008420D01*
X004469Y008420D01*
X004401Y008352D01*
X004401Y008283D01*
X004675Y008283D01*
X004675Y008215D02*
X004606Y008146D01*
X004469Y008146D01*
X004260Y008420D02*
X004123Y008146D01*
X003987Y008420D01*
X003846Y008420D02*
X003778Y008420D01*
X003778Y008146D01*
X003846Y008146D02*
X003709Y008146D01*
X003570Y008215D02*
X003570Y008352D01*
X003501Y008420D01*
X003296Y008420D01*
X003155Y008420D02*
X003019Y008420D01*
X003087Y008488D02*
X003087Y008215D01*
X003019Y008146D01*
X002879Y008215D02*
X002879Y008352D01*
X002811Y008420D01*
X002674Y008420D01*
X002606Y008352D01*
X002606Y008283D01*
X002879Y008283D01*
X002879Y008215D02*
X002811Y008146D01*
X002674Y008146D01*
X002465Y008146D02*
X002465Y008420D01*
X002465Y008283D02*
X002328Y008420D01*
X002260Y008420D01*
X002119Y008215D02*
X002051Y008215D01*
X002051Y008146D01*
X002119Y008146D01*
X002119Y008215D01*
X001912Y008283D02*
X001775Y008420D01*
X001707Y008420D01*
X001567Y008420D02*
X001567Y008215D01*
X001499Y008146D01*
X001293Y008146D01*
X001293Y008420D01*
X001912Y008420D02*
X001912Y008146D01*
X003296Y008146D02*
X003501Y008146D01*
X003570Y008215D01*
X003778Y008557D02*
X003778Y008625D01*
D12*
X003856Y009885D02*
X003475Y009885D01*
X003475Y010392D01*
X003191Y010392D02*
X003064Y010392D01*
X003064Y009885D01*
X003191Y009885D02*
X002937Y009885D01*
X002663Y009885D02*
X002663Y010392D01*
X002282Y010392D01*
X002156Y010265D01*
X002156Y009885D01*
X001871Y010012D02*
X001744Y009885D01*
X001490Y009885D01*
X001364Y010012D01*
X001364Y010265D01*
X001490Y010392D01*
X001744Y010392D01*
X001871Y010265D01*
X001871Y010012D01*
X003064Y010646D02*
X003064Y010772D01*
X003982Y010392D02*
X003982Y010012D01*
X003856Y009885D01*
X004267Y010012D02*
X004267Y010519D01*
X004394Y010646D01*
X004774Y010646D01*
X004774Y009885D01*
X004394Y009885D01*
X004267Y010012D01*
X005059Y010392D02*
X005313Y009885D01*
X005566Y010392D01*
X005851Y010265D02*
X005851Y010138D01*
X006358Y010138D01*
X006358Y010012D02*
X006358Y010265D01*
X006231Y010392D01*
X005978Y010392D01*
X005851Y010265D01*
X005978Y009885D02*
X006231Y009885D01*
X006358Y010012D01*
X006643Y009885D02*
X007023Y009885D01*
X007150Y010012D01*
X007150Y010265D01*
X007023Y010392D01*
X006643Y010392D01*
X006643Y010646D02*
X006643Y009885D01*
X014345Y009393D02*
X014470Y009393D01*
X014470Y009456D01*
D13*
X006045Y002533D02*
X005983Y002595D01*
X005860Y002595D01*
X005798Y002533D01*
X005798Y002471D01*
X005860Y002409D01*
X005798Y002348D01*
X005798Y002286D01*
X005860Y002224D01*
X005983Y002224D01*
X006045Y002286D01*
X005922Y002409D02*
X005860Y002409D01*
X005677Y002471D02*
X005553Y002595D01*
X005553Y002224D01*
X005430Y002224D02*
X005677Y002224D01*
X005308Y002224D02*
X005062Y002595D01*
X004940Y002533D02*
X004878Y002595D01*
X004755Y002595D01*
X004693Y002533D01*
X004940Y002286D01*
X004878Y002224D01*
X004755Y002224D01*
X004693Y002286D01*
X004693Y002533D01*
X004572Y002533D02*
X004510Y002595D01*
X004387Y002595D01*
X004325Y002533D01*
X004325Y002471D01*
X004387Y002409D01*
X004325Y002348D01*
X004325Y002286D01*
X004387Y002224D01*
X004510Y002224D01*
X004572Y002286D01*
X004448Y002409D02*
X004387Y002409D01*
X004203Y002224D02*
X003957Y002595D01*
X003835Y002533D02*
X003773Y002595D01*
X003650Y002595D01*
X003588Y002533D01*
X003588Y002471D01*
X003835Y002224D01*
X003588Y002224D01*
X003467Y002286D02*
X003220Y002533D01*
X003220Y002286D01*
X003282Y002224D01*
X003405Y002224D01*
X003467Y002286D01*
X003467Y002533D01*
X003405Y002595D01*
X003282Y002595D01*
X003220Y002533D01*
X003099Y002471D02*
X002975Y002595D01*
X002975Y002224D01*
X002852Y002224D02*
X003099Y002224D01*
X002730Y002409D02*
X002483Y002409D01*
X002545Y002224D02*
X002545Y002595D01*
X002730Y002409D01*
X002763Y003092D02*
X002578Y003092D01*
X002516Y003154D01*
X002516Y003339D01*
X002763Y003339D01*
X002701Y003460D02*
X002763Y003522D01*
X002763Y003707D01*
X002763Y003829D02*
X002763Y003952D01*
X002824Y003890D02*
X002578Y003890D01*
X002516Y003952D01*
X002578Y004074D02*
X002516Y004136D01*
X002516Y004321D01*
X002701Y004321D01*
X002763Y004259D01*
X002763Y004136D01*
X002639Y004136D02*
X002639Y004321D01*
X002701Y004442D02*
X002763Y004504D01*
X002763Y004689D01*
X002824Y004811D02*
X002578Y004811D01*
X002516Y004872D01*
X002516Y004996D01*
X002578Y005058D01*
X002639Y004996D02*
X002763Y004996D01*
X002763Y004872D01*
X002639Y004872D01*
X002639Y004996D01*
X002701Y005058D01*
X002824Y005058D01*
X002886Y004996D01*
X002886Y004872D01*
X002824Y004811D01*
X002639Y004628D02*
X002639Y004504D01*
X002701Y004442D01*
X002516Y004442D02*
X002516Y004628D01*
X002578Y004689D01*
X002639Y004628D01*
X002639Y004136D02*
X002578Y004074D01*
X002578Y003707D02*
X002639Y003645D01*
X002639Y003522D01*
X002701Y003460D01*
X002516Y003460D02*
X002516Y003645D01*
X002578Y003707D01*
X002516Y005179D02*
X002763Y005179D01*
X002763Y005364D01*
X002701Y005426D01*
X002516Y005426D01*
X002516Y005547D02*
X002516Y005732D01*
X002578Y005794D01*
X002701Y005794D01*
X002763Y005732D01*
X002763Y005547D01*
X002886Y005547D02*
X002516Y005547D01*
X002516Y005916D02*
X002516Y006039D01*
X002516Y005977D02*
X002886Y005977D01*
X002886Y005916D01*
X002763Y006161D02*
X002516Y006408D01*
X002516Y006529D02*
X002516Y006591D01*
X002578Y006591D01*
X002578Y006529D01*
X002516Y006529D01*
X002516Y006714D02*
X002763Y006714D01*
X002763Y006837D02*
X002763Y006899D01*
X002763Y006837D02*
X002639Y006714D01*
X002578Y007021D02*
X002516Y007082D01*
X002516Y007267D01*
X002763Y007267D01*
X002763Y007021D02*
X002578Y007021D01*
X002763Y006408D02*
X002516Y006161D01*
X004940Y002533D02*
X004940Y002286D01*
D14*
X014376Y009362D03*
D15*
X014064Y009612D03*
X014689Y009675D03*
D16*
X014095Y009643D03*
X014283Y009018D03*
X014658Y008956D03*
D17*
X014470Y009456D02*
X014658Y009643D01*
X014220Y009456D02*
X014033Y009643D01*
D18*
X014658Y009643D03*
X014845Y009206D03*
D19*
X014345Y009331D03*
D20*
X010479Y009932D02*
X010479Y012137D01*
X007881Y012137D01*
X007881Y009932D01*
X008944Y009713D02*
X009416Y009713D01*
X009180Y009477D02*
X009180Y009950D01*
X005304Y009377D02*
X005304Y009274D01*
X005200Y009170D01*
X004993Y009170D01*
X004890Y009067D01*
X004890Y008963D01*
X004993Y008860D01*
X005200Y008860D01*
X005304Y008963D01*
X005304Y009377D02*
X005200Y009480D01*
X004993Y009480D01*
X004890Y009377D01*
X004659Y009480D02*
X004245Y008860D01*
X004245Y009480D01*
X004659Y009480D02*
X004659Y008860D01*
X003370Y009274D02*
X003163Y008860D01*
X002956Y009274D01*
X002725Y009274D02*
X002518Y009480D01*
X002518Y008860D01*
X002312Y008860D02*
X002725Y008860D01*
X002081Y008860D02*
X001977Y008860D01*
X001977Y008963D01*
X002081Y008963D01*
X002081Y008860D01*
X001758Y008963D02*
X001655Y008860D01*
X001448Y008860D01*
X001345Y008963D01*
X001345Y009067D01*
X001448Y009170D01*
X001552Y009170D01*
X001448Y009170D02*
X001345Y009274D01*
X001345Y009377D01*
X001448Y009480D01*
X001655Y009480D01*
X001758Y009377D01*
X004731Y005680D02*
X004736Y005898D01*
X004752Y006116D01*
X004779Y006333D01*
X004816Y006548D01*
X004864Y006761D01*
X004923Y006971D01*
X004991Y007179D01*
X005070Y007383D01*
X005158Y007582D01*
X005256Y007777D01*
X005364Y007967D01*
X005481Y008152D01*
X005607Y008330D01*
X005741Y008502D01*
X005884Y008668D01*
X006034Y008826D01*
X006192Y008976D01*
X006358Y009119D01*
X006530Y009253D01*
X006708Y009379D01*
X006893Y009496D01*
X007083Y009604D01*
X007278Y009702D01*
X007477Y009790D01*
X007681Y009869D01*
X007889Y009937D01*
X008099Y009996D01*
X008312Y010044D01*
X008527Y010081D01*
X008744Y010108D01*
X008962Y010124D01*
X009180Y010129D01*
X009398Y010124D01*
X009616Y010108D01*
X009833Y010081D01*
X010048Y010044D01*
X010261Y009996D01*
X010471Y009937D01*
X010679Y009869D01*
X010883Y009790D01*
X011082Y009702D01*
X011277Y009604D01*
X011467Y009496D01*
X011652Y009379D01*
X011830Y009253D01*
X012002Y009119D01*
X012168Y008976D01*
X012326Y008826D01*
X012476Y008668D01*
X012619Y008502D01*
X012753Y008330D01*
X012879Y008152D01*
X012996Y007967D01*
X013104Y007777D01*
X013202Y007582D01*
X013290Y007383D01*
X013369Y007179D01*
X013437Y006971D01*
X013496Y006761D01*
X013544Y006548D01*
X013581Y006333D01*
X013608Y006116D01*
X013624Y005898D01*
X013629Y005680D01*
X013624Y005462D01*
X013608Y005244D01*
X013581Y005027D01*
X013544Y004812D01*
X013496Y004599D01*
X013437Y004389D01*
X013369Y004181D01*
X013290Y003977D01*
X013202Y003778D01*
X013104Y003583D01*
X012996Y003393D01*
X012879Y003208D01*
X012753Y003030D01*
X012619Y002858D01*
X012476Y002692D01*
X012326Y002534D01*
X012168Y002384D01*
X012002Y002241D01*
X011830Y002107D01*
X011652Y001981D01*
X011467Y001864D01*
X011277Y001756D01*
X011082Y001658D01*
X010883Y001570D01*
X010679Y001491D01*
X010471Y001423D01*
X010261Y001364D01*
X010048Y001316D01*
X009833Y001279D01*
X009616Y001252D01*
X009398Y001236D01*
X009180Y001231D01*
X008962Y001236D01*
X008744Y001252D01*
X008527Y001279D01*
X008312Y001316D01*
X008099Y001364D01*
X007889Y001423D01*
X007681Y001491D01*
X007477Y001570D01*
X007278Y001658D01*
X007083Y001756D01*
X006893Y001864D01*
X006708Y001981D01*
X006530Y002107D01*
X006358Y002241D01*
X006192Y002384D01*
X006034Y002534D01*
X005884Y002692D01*
X005741Y002858D01*
X005607Y003030D01*
X005481Y003208D01*
X005364Y003393D01*
X005256Y003583D01*
X005158Y003778D01*
X005070Y003977D01*
X004991Y004181D01*
X004923Y004389D01*
X004864Y004599D01*
X004816Y004812D01*
X004779Y005027D01*
X004752Y005244D01*
X004736Y005462D01*
X004731Y005680D01*
X008944Y001717D02*
X009416Y001717D01*
D21*
X013553Y003210D02*
X013553Y003450D01*
X013871Y003482D01*
X013905Y003589D01*
X013956Y003689D01*
X013754Y003936D01*
X013924Y004106D01*
X014171Y003904D01*
X014271Y003955D01*
X014378Y003989D01*
X014410Y004307D01*
X014650Y004307D01*
X014682Y003989D01*
X014789Y003955D01*
X014889Y003904D01*
X015136Y004106D01*
X015306Y003936D01*
X015104Y003689D01*
X015155Y003589D01*
X015189Y003482D01*
X015507Y003450D01*
X015507Y003210D01*
X015189Y003178D01*
X015155Y003071D01*
X015104Y002971D01*
X015306Y002724D01*
X015136Y002554D01*
X014889Y002756D01*
X014789Y002705D01*
X014648Y003046D01*
X014701Y003074D01*
X014748Y003112D01*
X014786Y003159D01*
X014814Y003212D01*
X014832Y003270D01*
X014838Y003330D01*
X014831Y003393D01*
X014812Y003453D01*
X014781Y003508D01*
X014739Y003555D01*
X014689Y003593D01*
X014632Y003620D01*
X014570Y003635D01*
X014507Y003637D01*
X014445Y003626D01*
X014386Y003602D01*
X014334Y003567D01*
X014290Y003522D01*
X014255Y003469D01*
X014233Y003410D01*
X014223Y003347D01*
X014226Y003284D01*
X014242Y003223D01*
X014270Y003166D01*
X014308Y003117D01*
X014357Y003076D01*
X014412Y003046D01*
X014271Y002705D01*
X014171Y002756D01*
X013924Y002554D01*
X013754Y002724D01*
X013956Y002971D01*
X013905Y003071D01*
X013871Y003178D01*
X013553Y003210D01*
X013565Y003209D02*
X014249Y003209D01*
X014230Y003266D02*
X013553Y003266D01*
X013553Y003324D02*
X014224Y003324D01*
X014228Y003382D02*
X013553Y003382D01*
X013553Y003439D02*
X014244Y003439D01*
X014273Y003497D02*
X013875Y003497D01*
X013894Y003554D02*
X014321Y003554D01*
X014411Y003612D02*
X013917Y003612D01*
X013946Y003669D02*
X015114Y003669D01*
X015135Y003727D02*
X013925Y003727D01*
X013878Y003784D02*
X015182Y003784D01*
X015229Y003842D02*
X013831Y003842D01*
X013784Y003900D02*
X015276Y003900D01*
X015284Y003957D02*
X014954Y003957D01*
X015024Y004015D02*
X015227Y004015D01*
X015169Y004072D02*
X015095Y004072D01*
X014783Y003957D02*
X014277Y003957D01*
X014380Y004015D02*
X014680Y004015D01*
X014674Y004072D02*
X014386Y004072D01*
X014392Y004130D02*
X014668Y004130D01*
X014662Y004187D02*
X014398Y004187D01*
X014404Y004245D02*
X014656Y004245D01*
X014650Y004302D02*
X014410Y004302D01*
X014106Y003957D02*
X013776Y003957D01*
X013833Y004015D02*
X014036Y004015D01*
X013965Y004072D02*
X013891Y004072D01*
X014650Y003612D02*
X015143Y003612D01*
X015166Y003554D02*
X014740Y003554D01*
X014787Y003497D02*
X015185Y003497D01*
X015507Y003439D02*
X014816Y003439D01*
X014832Y003382D02*
X015507Y003382D01*
X015507Y003324D02*
X014837Y003324D01*
X014831Y003266D02*
X015507Y003266D01*
X015495Y003209D02*
X014812Y003209D01*
X014779Y003151D02*
X015181Y003151D01*
X015162Y003094D02*
X014725Y003094D01*
X014652Y003036D02*
X015137Y003036D01*
X015108Y002979D02*
X014676Y002979D01*
X014699Y002921D02*
X015145Y002921D01*
X015192Y002864D02*
X014723Y002864D01*
X014747Y002806D02*
X015239Y002806D01*
X015286Y002748D02*
X014898Y002748D01*
X014874Y002748D02*
X014771Y002748D01*
X014969Y002691D02*
X015272Y002691D01*
X015215Y002633D02*
X015039Y002633D01*
X015110Y002576D02*
X015157Y002576D01*
X014384Y002979D02*
X013952Y002979D01*
X013923Y003036D02*
X014408Y003036D01*
X014336Y003094D02*
X013898Y003094D01*
X013879Y003151D02*
X014281Y003151D01*
X014361Y002921D02*
X013915Y002921D01*
X013868Y002864D02*
X014337Y002864D01*
X014313Y002806D02*
X013821Y002806D01*
X013774Y002748D02*
X014162Y002748D01*
X014186Y002748D02*
X014289Y002748D01*
X014091Y002691D02*
X013788Y002691D01*
X013845Y002633D02*
X014021Y002633D01*
X013950Y002576D02*
X013903Y002576D01*
M02*
