G75*
G70*
%OFA0B0*%
%FSLAX24Y24*%
%IPPOS*%
%LPD*%
%AMOC8*
5,1,8,0,0,1.08239X$1,22.5*
%
%ADD10C,0.0000*%
%ADD11C,0.1142*%
%ADD12R,0.0260X0.0540*%
%ADD13R,0.0540X0.0260*%
%ADD14R,0.0788X0.0591*%
%ADD15R,0.0631X0.0552*%
%ADD16C,0.0496*%
%ADD17R,0.0552X0.0631*%
%ADD18R,0.0434X0.0591*%
%ADD19R,0.0512X0.0512*%
%ADD20C,0.0780*%
%ADD21R,0.0700X0.0700*%
%ADD22C,0.0700*%
%ADD23R,0.0780X0.0780*%
%ADD24OC8,0.0780*%
%ADD25R,0.0594X0.0594*%
%ADD26C,0.0594*%
%ADD27R,0.0555X0.0555*%
%ADD28C,0.0555*%
D10*
X000680Y000680D02*
X000680Y012550D01*
X016147Y012550D01*
X016147Y000680D01*
X000680Y000680D01*
X001129Y001680D02*
X001131Y001727D01*
X001137Y001773D01*
X001147Y001819D01*
X001160Y001864D01*
X001178Y001907D01*
X001199Y001949D01*
X001223Y001989D01*
X001251Y002026D01*
X001282Y002061D01*
X001316Y002094D01*
X001352Y002123D01*
X001391Y002149D01*
X001432Y002172D01*
X001475Y002191D01*
X001519Y002207D01*
X001564Y002219D01*
X001610Y002227D01*
X001657Y002231D01*
X001703Y002231D01*
X001750Y002227D01*
X001796Y002219D01*
X001841Y002207D01*
X001885Y002191D01*
X001928Y002172D01*
X001969Y002149D01*
X002008Y002123D01*
X002044Y002094D01*
X002078Y002061D01*
X002109Y002026D01*
X002137Y001989D01*
X002161Y001949D01*
X002182Y001907D01*
X002200Y001864D01*
X002213Y001819D01*
X002223Y001773D01*
X002229Y001727D01*
X002231Y001680D01*
X002229Y001633D01*
X002223Y001587D01*
X002213Y001541D01*
X002200Y001496D01*
X002182Y001453D01*
X002161Y001411D01*
X002137Y001371D01*
X002109Y001334D01*
X002078Y001299D01*
X002044Y001266D01*
X002008Y001237D01*
X001969Y001211D01*
X001928Y001188D01*
X001885Y001169D01*
X001841Y001153D01*
X001796Y001141D01*
X001750Y001133D01*
X001703Y001129D01*
X001657Y001129D01*
X001610Y001133D01*
X001564Y001141D01*
X001519Y001153D01*
X001475Y001169D01*
X001432Y001188D01*
X001391Y001211D01*
X001352Y001237D01*
X001316Y001266D01*
X001282Y001299D01*
X001251Y001334D01*
X001223Y001371D01*
X001199Y001411D01*
X001178Y001453D01*
X001160Y001496D01*
X001147Y001541D01*
X001137Y001587D01*
X001131Y001633D01*
X001129Y001680D01*
X001129Y011580D02*
X001131Y011627D01*
X001137Y011673D01*
X001147Y011719D01*
X001160Y011764D01*
X001178Y011807D01*
X001199Y011849D01*
X001223Y011889D01*
X001251Y011926D01*
X001282Y011961D01*
X001316Y011994D01*
X001352Y012023D01*
X001391Y012049D01*
X001432Y012072D01*
X001475Y012091D01*
X001519Y012107D01*
X001564Y012119D01*
X001610Y012127D01*
X001657Y012131D01*
X001703Y012131D01*
X001750Y012127D01*
X001796Y012119D01*
X001841Y012107D01*
X001885Y012091D01*
X001928Y012072D01*
X001969Y012049D01*
X002008Y012023D01*
X002044Y011994D01*
X002078Y011961D01*
X002109Y011926D01*
X002137Y011889D01*
X002161Y011849D01*
X002182Y011807D01*
X002200Y011764D01*
X002213Y011719D01*
X002223Y011673D01*
X002229Y011627D01*
X002231Y011580D01*
X002229Y011533D01*
X002223Y011487D01*
X002213Y011441D01*
X002200Y011396D01*
X002182Y011353D01*
X002161Y011311D01*
X002137Y011271D01*
X002109Y011234D01*
X002078Y011199D01*
X002044Y011166D01*
X002008Y011137D01*
X001969Y011111D01*
X001928Y011088D01*
X001885Y011069D01*
X001841Y011053D01*
X001796Y011041D01*
X001750Y011033D01*
X001703Y011029D01*
X001657Y011029D01*
X001610Y011033D01*
X001564Y011041D01*
X001519Y011053D01*
X001475Y011069D01*
X001432Y011088D01*
X001391Y011111D01*
X001352Y011137D01*
X001316Y011166D01*
X001282Y011199D01*
X001251Y011234D01*
X001223Y011271D01*
X001199Y011311D01*
X001178Y011353D01*
X001160Y011396D01*
X001147Y011441D01*
X001137Y011487D01*
X001131Y011533D01*
X001129Y011580D01*
X014604Y011580D02*
X014606Y011627D01*
X014612Y011673D01*
X014622Y011719D01*
X014635Y011764D01*
X014653Y011807D01*
X014674Y011849D01*
X014698Y011889D01*
X014726Y011926D01*
X014757Y011961D01*
X014791Y011994D01*
X014827Y012023D01*
X014866Y012049D01*
X014907Y012072D01*
X014950Y012091D01*
X014994Y012107D01*
X015039Y012119D01*
X015085Y012127D01*
X015132Y012131D01*
X015178Y012131D01*
X015225Y012127D01*
X015271Y012119D01*
X015316Y012107D01*
X015360Y012091D01*
X015403Y012072D01*
X015444Y012049D01*
X015483Y012023D01*
X015519Y011994D01*
X015553Y011961D01*
X015584Y011926D01*
X015612Y011889D01*
X015636Y011849D01*
X015657Y011807D01*
X015675Y011764D01*
X015688Y011719D01*
X015698Y011673D01*
X015704Y011627D01*
X015706Y011580D01*
X015704Y011533D01*
X015698Y011487D01*
X015688Y011441D01*
X015675Y011396D01*
X015657Y011353D01*
X015636Y011311D01*
X015612Y011271D01*
X015584Y011234D01*
X015553Y011199D01*
X015519Y011166D01*
X015483Y011137D01*
X015444Y011111D01*
X015403Y011088D01*
X015360Y011069D01*
X015316Y011053D01*
X015271Y011041D01*
X015225Y011033D01*
X015178Y011029D01*
X015132Y011029D01*
X015085Y011033D01*
X015039Y011041D01*
X014994Y011053D01*
X014950Y011069D01*
X014907Y011088D01*
X014866Y011111D01*
X014827Y011137D01*
X014791Y011166D01*
X014757Y011199D01*
X014726Y011234D01*
X014698Y011271D01*
X014674Y011311D01*
X014653Y011353D01*
X014635Y011396D01*
X014622Y011441D01*
X014612Y011487D01*
X014606Y011533D01*
X014604Y011580D01*
X014604Y001680D02*
X014606Y001727D01*
X014612Y001773D01*
X014622Y001819D01*
X014635Y001864D01*
X014653Y001907D01*
X014674Y001949D01*
X014698Y001989D01*
X014726Y002026D01*
X014757Y002061D01*
X014791Y002094D01*
X014827Y002123D01*
X014866Y002149D01*
X014907Y002172D01*
X014950Y002191D01*
X014994Y002207D01*
X015039Y002219D01*
X015085Y002227D01*
X015132Y002231D01*
X015178Y002231D01*
X015225Y002227D01*
X015271Y002219D01*
X015316Y002207D01*
X015360Y002191D01*
X015403Y002172D01*
X015444Y002149D01*
X015483Y002123D01*
X015519Y002094D01*
X015553Y002061D01*
X015584Y002026D01*
X015612Y001989D01*
X015636Y001949D01*
X015657Y001907D01*
X015675Y001864D01*
X015688Y001819D01*
X015698Y001773D01*
X015704Y001727D01*
X015706Y001680D01*
X015704Y001633D01*
X015698Y001587D01*
X015688Y001541D01*
X015675Y001496D01*
X015657Y001453D01*
X015636Y001411D01*
X015612Y001371D01*
X015584Y001334D01*
X015553Y001299D01*
X015519Y001266D01*
X015483Y001237D01*
X015444Y001211D01*
X015403Y001188D01*
X015360Y001169D01*
X015316Y001153D01*
X015271Y001141D01*
X015225Y001133D01*
X015178Y001129D01*
X015132Y001129D01*
X015085Y001133D01*
X015039Y001141D01*
X014994Y001153D01*
X014950Y001169D01*
X014907Y001188D01*
X014866Y001211D01*
X014827Y001237D01*
X014791Y001266D01*
X014757Y001299D01*
X014726Y001334D01*
X014698Y001371D01*
X014674Y001411D01*
X014653Y001453D01*
X014635Y001496D01*
X014622Y001541D01*
X014612Y001587D01*
X014606Y001633D01*
X014604Y001680D01*
D11*
X015155Y001680D03*
X015155Y011580D03*
X001680Y011580D03*
X001680Y001680D03*
D12*
X008578Y005490D03*
X008893Y005490D03*
X009208Y005490D03*
X009523Y005490D03*
X009837Y005490D03*
X010152Y005490D03*
X010467Y005490D03*
X010782Y005490D03*
X010782Y008870D03*
X010467Y008870D03*
X010152Y008870D03*
X009837Y008870D03*
X009523Y008870D03*
X009208Y008870D03*
X008893Y008870D03*
X008578Y008870D03*
D13*
X007990Y008282D03*
X007990Y007967D03*
X007990Y007652D03*
X007990Y007337D03*
X007990Y007023D03*
X007990Y006708D03*
X007990Y006393D03*
X007990Y006078D03*
X011370Y006078D03*
X011370Y006393D03*
X011370Y006708D03*
X011370Y007023D03*
X011370Y007337D03*
X011370Y007652D03*
X011370Y007967D03*
X011370Y008282D03*
D14*
X011339Y003502D03*
X011339Y002558D03*
X013071Y002558D03*
X013071Y003502D03*
D15*
X014280Y003231D03*
X014280Y003979D03*
X012493Y005056D03*
X012493Y005804D03*
X010180Y003304D03*
X010180Y002556D03*
X010205Y010856D03*
X010205Y011604D03*
D16*
X009180Y011380D02*
X009180Y010924D01*
X009180Y003506D02*
X009180Y003050D01*
D17*
X005304Y005180D03*
X004556Y005180D03*
X003679Y005180D03*
X002931Y005180D03*
X002956Y008880D03*
X003704Y008880D03*
X007306Y009680D03*
X008054Y009680D03*
X008054Y010680D03*
X007306Y010680D03*
X007306Y011680D03*
X008054Y011680D03*
X009481Y009755D03*
X010229Y009755D03*
X014006Y009130D03*
X014754Y009130D03*
D18*
X006061Y008642D03*
X005313Y008642D03*
X005687Y009509D03*
D19*
X008517Y004180D03*
X009343Y004180D03*
D20*
X005495Y003985D03*
X003715Y003985D03*
X003715Y001425D03*
X005495Y001425D03*
D21*
X001680Y007180D03*
D22*
X001680Y006180D03*
X001680Y005180D03*
X001680Y004180D03*
X001680Y003180D03*
D23*
X011455Y010430D03*
D24*
X012455Y010430D03*
X013455Y010430D03*
X013455Y011430D03*
X012455Y011430D03*
X011455Y011430D03*
D25*
X013743Y008118D03*
D26*
X014743Y008118D03*
X014743Y007118D03*
X013743Y007118D03*
X013743Y006118D03*
X014743Y006118D03*
X014743Y005118D03*
X013743Y005118D03*
D27*
X007430Y004180D03*
X005680Y006680D03*
X005680Y011180D03*
D28*
X004893Y011180D03*
X004105Y011180D03*
X003318Y011180D03*
X003318Y006680D03*
X004105Y006680D03*
X004893Y006680D03*
X007430Y003393D03*
X007430Y002605D03*
X007430Y001818D03*
M02*
