G75*
G70*
%OFA0B0*%
%FSLAX24Y24*%
%IPPOS*%
%LPD*%
%AMOC8*
5,1,8,0,0,1.08239X$1,22.5*
%
%ADD10C,0.0000*%
%ADD11C,0.0456*%
%ADD12C,0.0740*%
%ADD13R,0.0660X0.0660*%
%ADD14C,0.0660*%
%ADD15R,0.0740X0.0740*%
%ADD16OC8,0.0740*%
%ADD17R,0.0554X0.0554*%
%ADD18C,0.0554*%
%ADD19R,0.0515X0.0515*%
%ADD20C,0.0515*%
%ADD21C,0.0160*%
%ADD22C,0.0277*%
D10*
X000680Y000680D02*
X000680Y012550D01*
X016147Y012550D01*
X016147Y000680D01*
X000680Y000680D01*
X001129Y001680D02*
X001131Y001727D01*
X001137Y001773D01*
X001147Y001819D01*
X001160Y001864D01*
X001178Y001907D01*
X001199Y001949D01*
X001223Y001989D01*
X001251Y002026D01*
X001282Y002061D01*
X001316Y002094D01*
X001352Y002123D01*
X001391Y002149D01*
X001432Y002172D01*
X001475Y002191D01*
X001519Y002207D01*
X001564Y002219D01*
X001610Y002227D01*
X001657Y002231D01*
X001703Y002231D01*
X001750Y002227D01*
X001796Y002219D01*
X001841Y002207D01*
X001885Y002191D01*
X001928Y002172D01*
X001969Y002149D01*
X002008Y002123D01*
X002044Y002094D01*
X002078Y002061D01*
X002109Y002026D01*
X002137Y001989D01*
X002161Y001949D01*
X002182Y001907D01*
X002200Y001864D01*
X002213Y001819D01*
X002223Y001773D01*
X002229Y001727D01*
X002231Y001680D01*
X002229Y001633D01*
X002223Y001587D01*
X002213Y001541D01*
X002200Y001496D01*
X002182Y001453D01*
X002161Y001411D01*
X002137Y001371D01*
X002109Y001334D01*
X002078Y001299D01*
X002044Y001266D01*
X002008Y001237D01*
X001969Y001211D01*
X001928Y001188D01*
X001885Y001169D01*
X001841Y001153D01*
X001796Y001141D01*
X001750Y001133D01*
X001703Y001129D01*
X001657Y001129D01*
X001610Y001133D01*
X001564Y001141D01*
X001519Y001153D01*
X001475Y001169D01*
X001432Y001188D01*
X001391Y001211D01*
X001352Y001237D01*
X001316Y001266D01*
X001282Y001299D01*
X001251Y001334D01*
X001223Y001371D01*
X001199Y001411D01*
X001178Y001453D01*
X001160Y001496D01*
X001147Y001541D01*
X001137Y001587D01*
X001131Y001633D01*
X001129Y001680D01*
X001129Y011580D02*
X001131Y011627D01*
X001137Y011673D01*
X001147Y011719D01*
X001160Y011764D01*
X001178Y011807D01*
X001199Y011849D01*
X001223Y011889D01*
X001251Y011926D01*
X001282Y011961D01*
X001316Y011994D01*
X001352Y012023D01*
X001391Y012049D01*
X001432Y012072D01*
X001475Y012091D01*
X001519Y012107D01*
X001564Y012119D01*
X001610Y012127D01*
X001657Y012131D01*
X001703Y012131D01*
X001750Y012127D01*
X001796Y012119D01*
X001841Y012107D01*
X001885Y012091D01*
X001928Y012072D01*
X001969Y012049D01*
X002008Y012023D01*
X002044Y011994D01*
X002078Y011961D01*
X002109Y011926D01*
X002137Y011889D01*
X002161Y011849D01*
X002182Y011807D01*
X002200Y011764D01*
X002213Y011719D01*
X002223Y011673D01*
X002229Y011627D01*
X002231Y011580D01*
X002229Y011533D01*
X002223Y011487D01*
X002213Y011441D01*
X002200Y011396D01*
X002182Y011353D01*
X002161Y011311D01*
X002137Y011271D01*
X002109Y011234D01*
X002078Y011199D01*
X002044Y011166D01*
X002008Y011137D01*
X001969Y011111D01*
X001928Y011088D01*
X001885Y011069D01*
X001841Y011053D01*
X001796Y011041D01*
X001750Y011033D01*
X001703Y011029D01*
X001657Y011029D01*
X001610Y011033D01*
X001564Y011041D01*
X001519Y011053D01*
X001475Y011069D01*
X001432Y011088D01*
X001391Y011111D01*
X001352Y011137D01*
X001316Y011166D01*
X001282Y011199D01*
X001251Y011234D01*
X001223Y011271D01*
X001199Y011311D01*
X001178Y011353D01*
X001160Y011396D01*
X001147Y011441D01*
X001137Y011487D01*
X001131Y011533D01*
X001129Y011580D01*
X014604Y011580D02*
X014606Y011627D01*
X014612Y011673D01*
X014622Y011719D01*
X014635Y011764D01*
X014653Y011807D01*
X014674Y011849D01*
X014698Y011889D01*
X014726Y011926D01*
X014757Y011961D01*
X014791Y011994D01*
X014827Y012023D01*
X014866Y012049D01*
X014907Y012072D01*
X014950Y012091D01*
X014994Y012107D01*
X015039Y012119D01*
X015085Y012127D01*
X015132Y012131D01*
X015178Y012131D01*
X015225Y012127D01*
X015271Y012119D01*
X015316Y012107D01*
X015360Y012091D01*
X015403Y012072D01*
X015444Y012049D01*
X015483Y012023D01*
X015519Y011994D01*
X015553Y011961D01*
X015584Y011926D01*
X015612Y011889D01*
X015636Y011849D01*
X015657Y011807D01*
X015675Y011764D01*
X015688Y011719D01*
X015698Y011673D01*
X015704Y011627D01*
X015706Y011580D01*
X015704Y011533D01*
X015698Y011487D01*
X015688Y011441D01*
X015675Y011396D01*
X015657Y011353D01*
X015636Y011311D01*
X015612Y011271D01*
X015584Y011234D01*
X015553Y011199D01*
X015519Y011166D01*
X015483Y011137D01*
X015444Y011111D01*
X015403Y011088D01*
X015360Y011069D01*
X015316Y011053D01*
X015271Y011041D01*
X015225Y011033D01*
X015178Y011029D01*
X015132Y011029D01*
X015085Y011033D01*
X015039Y011041D01*
X014994Y011053D01*
X014950Y011069D01*
X014907Y011088D01*
X014866Y011111D01*
X014827Y011137D01*
X014791Y011166D01*
X014757Y011199D01*
X014726Y011234D01*
X014698Y011271D01*
X014674Y011311D01*
X014653Y011353D01*
X014635Y011396D01*
X014622Y011441D01*
X014612Y011487D01*
X014606Y011533D01*
X014604Y011580D01*
X014604Y001680D02*
X014606Y001727D01*
X014612Y001773D01*
X014622Y001819D01*
X014635Y001864D01*
X014653Y001907D01*
X014674Y001949D01*
X014698Y001989D01*
X014726Y002026D01*
X014757Y002061D01*
X014791Y002094D01*
X014827Y002123D01*
X014866Y002149D01*
X014907Y002172D01*
X014950Y002191D01*
X014994Y002207D01*
X015039Y002219D01*
X015085Y002227D01*
X015132Y002231D01*
X015178Y002231D01*
X015225Y002227D01*
X015271Y002219D01*
X015316Y002207D01*
X015360Y002191D01*
X015403Y002172D01*
X015444Y002149D01*
X015483Y002123D01*
X015519Y002094D01*
X015553Y002061D01*
X015584Y002026D01*
X015612Y001989D01*
X015636Y001949D01*
X015657Y001907D01*
X015675Y001864D01*
X015688Y001819D01*
X015698Y001773D01*
X015704Y001727D01*
X015706Y001680D01*
X015704Y001633D01*
X015698Y001587D01*
X015688Y001541D01*
X015675Y001496D01*
X015657Y001453D01*
X015636Y001411D01*
X015612Y001371D01*
X015584Y001334D01*
X015553Y001299D01*
X015519Y001266D01*
X015483Y001237D01*
X015444Y001211D01*
X015403Y001188D01*
X015360Y001169D01*
X015316Y001153D01*
X015271Y001141D01*
X015225Y001133D01*
X015178Y001129D01*
X015132Y001129D01*
X015085Y001133D01*
X015039Y001141D01*
X014994Y001153D01*
X014950Y001169D01*
X014907Y001188D01*
X014866Y001211D01*
X014827Y001237D01*
X014791Y001266D01*
X014757Y001299D01*
X014726Y001334D01*
X014698Y001371D01*
X014674Y001411D01*
X014653Y001453D01*
X014635Y001496D01*
X014622Y001541D01*
X014612Y001587D01*
X014606Y001633D01*
X014604Y001680D01*
D11*
X009180Y003050D02*
X009180Y003506D01*
X009180Y010924D02*
X009180Y011380D01*
D12*
X005495Y003985D03*
X003715Y003985D03*
X003715Y001425D03*
X005495Y001425D03*
D13*
X001680Y007180D03*
D14*
X001680Y006180D03*
X001680Y005180D03*
X001680Y004180D03*
X001680Y003180D03*
D15*
X011455Y010430D03*
D16*
X012455Y010430D03*
X013455Y010430D03*
X013455Y011430D03*
X012455Y011430D03*
X011455Y011430D03*
D17*
X013743Y008118D03*
D18*
X014743Y008118D03*
X014743Y007118D03*
X013743Y007118D03*
X013743Y006118D03*
X014743Y006118D03*
X014743Y005118D03*
X013743Y005118D03*
D19*
X007430Y004180D03*
X005680Y006680D03*
X005680Y011180D03*
D20*
X004893Y011180D03*
X004105Y011180D03*
X003318Y011180D03*
X003318Y006680D03*
X004105Y006680D03*
X004893Y006680D03*
X007430Y003393D03*
X007430Y002605D03*
X007430Y001818D03*
D21*
X007867Y001818D01*
X007867Y001852D01*
X007857Y001920D01*
X007835Y001986D01*
X007804Y002047D01*
X007764Y002103D01*
X007715Y002151D01*
X007686Y002173D01*
X007712Y002183D01*
X007852Y002323D01*
X007927Y002506D01*
X007927Y002704D01*
X007852Y002887D01*
X007740Y002999D01*
X007852Y003111D01*
X007927Y003294D01*
X007927Y003492D01*
X007852Y003674D01*
X007812Y003714D01*
X007823Y003719D01*
X007891Y003787D01*
X007927Y003875D01*
X007927Y004360D01*
X008214Y004360D01*
X008215Y004359D01*
X008355Y004301D01*
X008505Y004301D01*
X008645Y004359D01*
X008751Y004465D01*
X008809Y004605D01*
X008809Y004755D01*
X008751Y004895D01*
X008645Y005001D01*
X008505Y005059D01*
X008355Y005059D01*
X008215Y005001D01*
X008214Y005000D01*
X006880Y005000D01*
X006934Y005130D01*
X006934Y005280D01*
X006876Y005420D01*
X006770Y005526D01*
X006630Y005584D01*
X006480Y005584D01*
X006340Y005526D01*
X006338Y005524D01*
X002391Y005500D01*
X002164Y005500D01*
X002163Y005503D01*
X002003Y005663D01*
X001962Y005680D01*
X002003Y005697D01*
X002163Y005857D01*
X002164Y005860D01*
X006614Y005860D01*
X006615Y005859D01*
X006755Y005801D01*
X006905Y005801D01*
X007045Y005859D01*
X007151Y005965D01*
X007209Y006105D01*
X007209Y006255D01*
X007151Y006395D01*
X007045Y006501D01*
X006905Y006559D01*
X006755Y006559D01*
X006615Y006501D01*
X006614Y006500D01*
X006177Y006500D01*
X006177Y006985D01*
X006141Y007073D01*
X006073Y007141D01*
X005985Y007177D01*
X005375Y007177D01*
X005287Y007141D01*
X005219Y007073D01*
X005214Y007062D01*
X005174Y007102D01*
X004992Y007177D01*
X004794Y007177D01*
X004611Y007102D01*
X004499Y006990D01*
X004387Y007102D01*
X004204Y007177D01*
X004060Y007177D01*
X003498Y007740D01*
X003498Y010115D01*
X004065Y010683D01*
X004204Y010683D01*
X004387Y010758D01*
X004499Y010870D01*
X004611Y010758D01*
X004794Y010683D01*
X004992Y010683D01*
X005174Y010758D01*
X005214Y010798D01*
X005219Y010787D01*
X005287Y010719D01*
X005375Y010683D01*
X005985Y010683D01*
X006073Y010719D01*
X006141Y010787D01*
X006171Y010860D01*
X008339Y010860D01*
X008340Y010859D01*
X008480Y010801D01*
X008630Y010801D01*
X008712Y010835D01*
X008712Y010831D01*
X008783Y010659D01*
X008915Y010528D01*
X009087Y010457D01*
X009273Y010457D01*
X009445Y010528D01*
X009577Y010659D01*
X009648Y010831D01*
X009648Y011110D01*
X010912Y011110D01*
X010998Y011024D01*
X010949Y011003D01*
X010882Y010936D01*
X010845Y010848D01*
X010845Y010012D01*
X010882Y009924D01*
X010949Y009857D01*
X011037Y009820D01*
X011873Y009820D01*
X011961Y009857D01*
X012028Y009924D01*
X012049Y009973D01*
X012202Y009820D01*
X012708Y009820D01*
X012955Y010067D01*
X013135Y009887D01*
X013135Y009138D01*
X012997Y009000D01*
X012819Y009000D01*
X012834Y009035D01*
X012834Y009185D01*
X012776Y009325D01*
X012670Y009431D01*
X012530Y009489D01*
X012380Y009489D01*
X012240Y009431D01*
X012239Y009430D01*
X011781Y009430D01*
X011780Y009431D01*
X011640Y009489D01*
X011490Y009489D01*
X011350Y009431D01*
X011244Y009325D01*
X011186Y009185D01*
X011186Y009059D01*
X011105Y009059D01*
X010965Y009001D01*
X010859Y008895D01*
X010801Y008755D01*
X010801Y008605D01*
X010834Y008526D01*
X010755Y008559D01*
X010605Y008559D01*
X010465Y008501D01*
X010464Y008500D01*
X009896Y008500D01*
X009895Y008501D01*
X009755Y008559D01*
X009605Y008559D01*
X009465Y008501D01*
X009359Y008395D01*
X009301Y008255D01*
X009301Y008105D01*
X009359Y007965D01*
X009465Y007859D01*
X009605Y007801D01*
X009755Y007801D01*
X009895Y007859D01*
X009896Y007860D01*
X010464Y007860D01*
X010465Y007859D01*
X010605Y007801D01*
X010755Y007801D01*
X010895Y007859D01*
X011001Y007965D01*
X011059Y008105D01*
X011059Y008255D01*
X011026Y008334D01*
X011105Y008301D01*
X011255Y008301D01*
X011395Y008359D01*
X011396Y008360D01*
X013194Y008360D01*
X013285Y008398D01*
X013285Y008126D01*
X013734Y008126D01*
X013734Y008109D01*
X013285Y008109D01*
X013285Y008000D01*
X012383Y008000D01*
X012382Y008001D01*
X012243Y008059D01*
X012092Y008059D01*
X011953Y008001D01*
X011846Y007895D01*
X011789Y007755D01*
X011789Y007605D01*
X011846Y007465D01*
X011953Y007359D01*
X011977Y007349D01*
X011965Y007344D01*
X011859Y007237D01*
X011801Y007098D01*
X011801Y007037D01*
X011715Y007001D01*
X011609Y006895D01*
X011551Y006755D01*
X011551Y006605D01*
X011556Y006594D01*
X011481Y006625D01*
X009308Y006625D01*
X009307Y006626D01*
X009168Y006684D01*
X009017Y006684D01*
X008878Y006626D01*
X008771Y006520D01*
X008714Y006380D01*
X008714Y006230D01*
X008771Y006090D01*
X008878Y005984D01*
X009017Y005926D01*
X009168Y005926D01*
X009307Y005984D01*
X009308Y005985D01*
X011285Y005985D01*
X011508Y005762D01*
X011455Y005784D01*
X011305Y005784D01*
X011165Y005726D01*
X011164Y005725D01*
X007721Y005725D01*
X007720Y005726D01*
X007580Y005784D01*
X007430Y005784D01*
X007290Y005726D01*
X007184Y005620D01*
X007126Y005480D01*
X007126Y005330D01*
X007184Y005190D01*
X007290Y005084D01*
X007430Y005026D01*
X007580Y005026D01*
X007720Y005084D01*
X007721Y005085D01*
X011164Y005085D01*
X011165Y005084D01*
X011305Y005026D01*
X011455Y005026D01*
X011595Y005084D01*
X011701Y005190D01*
X011759Y005330D01*
X011759Y005480D01*
X011737Y005533D01*
X012336Y004934D01*
X012230Y004934D01*
X012090Y004876D01*
X012089Y004875D01*
X010021Y004875D01*
X010020Y004876D01*
X009880Y004934D01*
X009730Y004934D01*
X009590Y004876D01*
X009484Y004770D01*
X009426Y004630D01*
X009426Y004480D01*
X009484Y004340D01*
X009590Y004234D01*
X009730Y004176D01*
X009880Y004176D01*
X010020Y004234D01*
X010021Y004235D01*
X012089Y004235D01*
X012090Y004234D01*
X012230Y004176D01*
X012380Y004176D01*
X012520Y004234D01*
X012626Y004340D01*
X012684Y004480D01*
X012684Y004586D01*
X013149Y004121D01*
X013266Y004073D01*
X014081Y004073D01*
X014199Y004121D01*
X014289Y004211D01*
X014678Y004600D01*
X014845Y004600D01*
X015035Y004679D01*
X015181Y004825D01*
X015260Y005015D01*
X015260Y005220D01*
X015181Y005410D01*
X015035Y005556D01*
X014887Y005618D01*
X015035Y005679D01*
X015181Y005825D01*
X015260Y006015D01*
X015260Y006052D01*
X015483Y006280D01*
X015526Y006324D01*
X015527Y006325D01*
X015528Y006327D01*
X015551Y006384D01*
X015575Y006441D01*
X015575Y006443D01*
X015576Y006445D01*
X015575Y006507D01*
X015575Y007419D01*
X015526Y007536D01*
X015436Y007626D01*
X015198Y007865D01*
X015260Y008015D01*
X015260Y008220D01*
X015181Y008410D01*
X015035Y008556D01*
X014845Y008635D01*
X014640Y008635D01*
X014600Y008618D01*
X014600Y011016D01*
X014707Y010909D01*
X014998Y010789D01*
X015312Y010789D01*
X015603Y010909D01*
X015826Y011132D01*
X015907Y011328D01*
X015907Y001932D01*
X015826Y002128D01*
X015603Y002351D01*
X015312Y002471D01*
X014998Y002471D01*
X014707Y002351D01*
X014484Y002128D01*
X014364Y001837D01*
X014364Y001523D01*
X014484Y001232D01*
X014707Y001009D01*
X014922Y000920D01*
X005853Y000920D01*
X006012Y001079D01*
X006105Y001304D01*
X006105Y001546D01*
X006012Y001771D01*
X005841Y001942D01*
X005616Y002035D01*
X005374Y002035D01*
X005149Y001942D01*
X004978Y001771D01*
X004885Y001546D01*
X004885Y001304D01*
X004978Y001079D01*
X005137Y000920D01*
X003935Y000920D01*
X004003Y000955D01*
X004073Y001005D01*
X004135Y001067D01*
X004185Y001137D01*
X004225Y001214D01*
X004251Y001296D01*
X004265Y001382D01*
X004265Y001405D01*
X003735Y001405D01*
X003735Y001445D01*
X003695Y001445D01*
X003695Y001975D01*
X003672Y001975D01*
X003586Y001961D01*
X003504Y001935D01*
X003427Y001895D01*
X003357Y001845D01*
X003295Y001783D01*
X003245Y001713D01*
X003205Y001636D01*
X003179Y001554D01*
X003165Y001468D01*
X003165Y001445D01*
X003695Y001445D01*
X003695Y001405D01*
X003165Y001405D01*
X003165Y001382D01*
X003179Y001296D01*
X003205Y001214D01*
X003245Y001137D01*
X003295Y001067D01*
X003357Y001005D01*
X003427Y000955D01*
X003495Y000920D01*
X001913Y000920D01*
X002128Y001009D01*
X002351Y001232D01*
X002471Y001523D01*
X002471Y001837D01*
X002351Y002128D01*
X002128Y002351D01*
X001837Y002471D01*
X001523Y002471D01*
X001232Y002351D01*
X001009Y002128D01*
X000920Y001913D01*
X000920Y011347D01*
X001009Y011132D01*
X001232Y010909D01*
X001523Y010789D01*
X001837Y010789D01*
X002128Y010909D01*
X002351Y011132D01*
X002471Y011423D01*
X002471Y011737D01*
X002351Y012028D01*
X002128Y012251D01*
X001985Y012310D01*
X014850Y012310D01*
X014707Y012251D01*
X014484Y012028D01*
X014367Y011745D01*
X013861Y012251D01*
X013744Y012300D01*
X012941Y012300D01*
X012824Y012251D01*
X012734Y012161D01*
X012612Y012040D01*
X012202Y012040D01*
X011955Y011793D01*
X011708Y012040D01*
X011202Y012040D01*
X010912Y011750D01*
X009485Y011750D01*
X009477Y011753D01*
X009470Y011753D01*
X009445Y011777D01*
X009273Y011848D01*
X009087Y011848D01*
X008964Y011797D01*
X008939Y011821D01*
X008936Y011827D01*
X008893Y011865D01*
X008851Y011904D01*
X008845Y011906D01*
X008836Y011914D01*
X008799Y011951D01*
X008788Y011956D01*
X008780Y011963D01*
X008730Y011980D01*
X008681Y012000D01*
X008670Y012000D01*
X008659Y012004D01*
X008606Y012000D01*
X004598Y012000D01*
X004534Y012000D01*
X004534Y012000D01*
X004534Y012000D01*
X004475Y011976D01*
X004417Y011952D01*
X004416Y011951D01*
X004371Y011906D01*
X004141Y011677D01*
X004006Y011677D01*
X003823Y011602D01*
X003683Y011462D01*
X003673Y011436D01*
X003651Y011465D01*
X003603Y011514D01*
X003547Y011554D01*
X003486Y011585D01*
X003420Y011607D01*
X003352Y011617D01*
X003318Y011617D01*
X003318Y011180D01*
X003318Y011180D01*
X003318Y011617D01*
X003283Y011617D01*
X003215Y011607D01*
X003150Y011585D01*
X003089Y011554D01*
X003033Y011514D01*
X002984Y011465D01*
X002944Y011409D01*
X002912Y011348D01*
X002891Y011282D01*
X002880Y011214D01*
X002880Y011180D01*
X003318Y011180D01*
X002880Y011180D01*
X002880Y011146D01*
X002891Y011078D01*
X002912Y011012D01*
X002944Y010951D01*
X002984Y010895D01*
X003033Y010846D01*
X003089Y010806D01*
X003150Y010775D01*
X003215Y010753D01*
X003229Y010751D01*
X002996Y010519D01*
X002906Y010429D01*
X002858Y010311D01*
X002858Y007980D01*
X002195Y007980D01*
X002136Y007982D01*
X002131Y007980D01*
X002126Y007980D01*
X002072Y007957D01*
X002017Y007937D01*
X002013Y007933D01*
X002009Y007931D01*
X001967Y007890D01*
X001819Y007750D01*
X001302Y007750D01*
X001214Y007713D01*
X001147Y007646D01*
X001110Y007558D01*
X001110Y006802D01*
X001147Y006714D01*
X001214Y006647D01*
X001302Y006610D01*
X001304Y006610D01*
X001197Y006503D01*
X001110Y006293D01*
X001110Y006067D01*
X001197Y005857D01*
X001357Y005697D01*
X001398Y005680D01*
X001357Y005663D01*
X001197Y005503D01*
X001110Y005293D01*
X001110Y005067D01*
X001197Y004857D01*
X001357Y004697D01*
X001475Y004648D01*
X001413Y004616D01*
X001348Y004569D01*
X000920Y004569D01*
X000920Y004411D02*
X001225Y004411D01*
X001207Y004376D02*
X001183Y004299D01*
X001170Y004220D01*
X001170Y004180D01*
X001680Y004180D01*
X002190Y004180D01*
X002190Y004220D01*
X002177Y004299D01*
X002153Y004376D01*
X002116Y004447D01*
X002069Y004512D01*
X002012Y004569D01*
X005311Y004569D01*
X005374Y004595D02*
X005149Y004502D01*
X004978Y004331D01*
X004885Y004106D01*
X004885Y003864D01*
X004978Y003639D01*
X005149Y003468D01*
X005374Y003375D01*
X005616Y003375D01*
X005841Y003468D01*
X006012Y003639D01*
X006105Y003864D01*
X006105Y004106D01*
X006099Y004121D01*
X006338Y004360D01*
X006933Y004360D01*
X006933Y003875D01*
X006969Y003787D01*
X007037Y003719D01*
X007048Y003714D01*
X007008Y003674D01*
X006933Y003492D01*
X006933Y003294D01*
X007008Y003111D01*
X007120Y002999D01*
X007008Y002887D01*
X006933Y002704D01*
X006933Y002506D01*
X007008Y002323D01*
X007148Y002183D01*
X007174Y002173D01*
X007145Y002151D01*
X007096Y002103D01*
X007056Y002047D01*
X007025Y001986D01*
X007003Y001920D01*
X006993Y001852D01*
X006993Y001818D01*
X007430Y001818D01*
X007430Y001818D01*
X007430Y001818D01*
X007867Y001818D01*
X007867Y001783D01*
X007857Y001715D01*
X007835Y001650D01*
X007804Y001589D01*
X007764Y001533D01*
X007715Y001484D01*
X007659Y001444D01*
X007598Y001412D01*
X007532Y001391D01*
X007464Y001380D01*
X007430Y001380D01*
X007430Y001818D01*
X006993Y001818D01*
X006993Y001783D01*
X007003Y001715D01*
X007025Y001650D01*
X007056Y001589D01*
X007096Y001533D01*
X007145Y001484D01*
X007201Y001444D01*
X007262Y001412D01*
X007328Y001391D01*
X007396Y001380D01*
X007430Y001380D01*
X007430Y001818D01*
X007430Y001818D01*
X007430Y001716D02*
X007430Y001716D01*
X007430Y001558D02*
X007430Y001558D01*
X007430Y001399D02*
X007430Y001399D01*
X007557Y001399D02*
X014415Y001399D01*
X014364Y001558D02*
X007782Y001558D01*
X007857Y001716D02*
X014364Y001716D01*
X014379Y001875D02*
X007864Y001875D01*
X007811Y002033D02*
X014445Y002033D01*
X014548Y002192D02*
X007720Y002192D01*
X007863Y002350D02*
X014706Y002350D01*
X015604Y002350D02*
X015907Y002350D01*
X015907Y002192D02*
X015762Y002192D01*
X015865Y002033D02*
X015907Y002033D01*
X015907Y002509D02*
X007927Y002509D01*
X007927Y002667D02*
X009040Y002667D01*
X009023Y002672D02*
X009084Y002653D01*
X009148Y002643D01*
X009180Y002643D01*
X009212Y002643D01*
X009276Y002653D01*
X009337Y002672D01*
X009394Y002702D01*
X009446Y002739D01*
X009491Y002785D01*
X009529Y002837D01*
X009558Y002894D01*
X009578Y002955D01*
X009588Y003018D01*
X009588Y003278D01*
X009180Y003278D01*
X009180Y002643D01*
X009180Y003278D01*
X009180Y003278D01*
X009180Y003278D01*
X008772Y003278D01*
X008772Y003018D01*
X008782Y002955D01*
X008802Y002894D01*
X008831Y002837D01*
X008869Y002785D01*
X008914Y002739D01*
X008966Y002702D01*
X009023Y002672D01*
X009180Y002667D02*
X009180Y002667D01*
X009320Y002667D02*
X015907Y002667D01*
X015907Y002826D02*
X009521Y002826D01*
X009583Y002984D02*
X015907Y002984D01*
X015907Y003143D02*
X009588Y003143D01*
X009588Y003278D02*
X009588Y003538D01*
X009578Y003602D01*
X009558Y003663D01*
X009529Y003720D01*
X009491Y003772D01*
X009446Y003818D01*
X009394Y003855D01*
X009337Y003884D01*
X009276Y003904D01*
X009212Y003914D01*
X009180Y003914D01*
X009148Y003914D01*
X009084Y003904D01*
X009023Y003884D01*
X008966Y003855D01*
X008914Y003818D01*
X008869Y003772D01*
X008831Y003720D01*
X008802Y003663D01*
X008782Y003602D01*
X008772Y003538D01*
X008772Y003278D01*
X009180Y003278D01*
X009180Y003278D01*
X009588Y003278D01*
X009588Y003301D02*
X015907Y003301D01*
X015907Y003460D02*
X009588Y003460D01*
X009573Y003618D02*
X015907Y003618D01*
X015907Y003777D02*
X009487Y003777D01*
X009180Y003777D02*
X009180Y003777D01*
X009180Y003914D02*
X009180Y003278D01*
X009180Y003278D01*
X009180Y003914D01*
X009180Y003618D02*
X009180Y003618D01*
X009180Y003460D02*
X009180Y003460D01*
X009180Y003301D02*
X009180Y003301D01*
X009180Y003143D02*
X009180Y003143D01*
X009180Y002984D02*
X009180Y002984D01*
X009180Y002826D02*
X009180Y002826D01*
X008839Y002826D02*
X007877Y002826D01*
X007755Y002984D02*
X008777Y002984D01*
X008772Y003143D02*
X007865Y003143D01*
X007927Y003301D02*
X008772Y003301D01*
X008772Y003460D02*
X007927Y003460D01*
X007875Y003618D02*
X008787Y003618D01*
X008873Y003777D02*
X007881Y003777D01*
X007927Y003935D02*
X015907Y003935D01*
X015907Y004094D02*
X014132Y004094D01*
X014330Y004252D02*
X015907Y004252D01*
X015907Y004411D02*
X014488Y004411D01*
X014647Y004569D02*
X015907Y004569D01*
X015907Y004728D02*
X015084Y004728D01*
X015206Y004886D02*
X015907Y004886D01*
X015907Y005045D02*
X015260Y005045D01*
X015260Y005203D02*
X015907Y005203D01*
X015907Y005362D02*
X015201Y005362D01*
X015071Y005520D02*
X015907Y005520D01*
X015907Y005679D02*
X015034Y005679D01*
X015186Y005837D02*
X015907Y005837D01*
X015907Y005996D02*
X015252Y005996D01*
X015359Y006154D02*
X015907Y006154D01*
X015907Y006313D02*
X015515Y006313D01*
X015575Y006471D02*
X015907Y006471D01*
X015907Y006630D02*
X015575Y006630D01*
X015575Y006788D02*
X015907Y006788D01*
X015907Y006947D02*
X015575Y006947D01*
X015575Y007105D02*
X015907Y007105D01*
X015907Y007264D02*
X015575Y007264D01*
X015574Y007422D02*
X015907Y007422D01*
X015907Y007581D02*
X015482Y007581D01*
X015255Y007355D02*
X015255Y006505D01*
X014874Y006116D01*
X014743Y006118D01*
X014305Y006680D02*
X011930Y006680D01*
X011661Y006947D02*
X006177Y006947D01*
X006177Y006788D02*
X011565Y006788D01*
X011551Y006630D02*
X009299Y006630D01*
X009093Y006305D02*
X011418Y006305D01*
X013330Y004393D01*
X014018Y004393D01*
X014743Y005118D01*
X013216Y004094D02*
X007927Y004094D01*
X007927Y004252D02*
X009572Y004252D01*
X009455Y004411D02*
X008696Y004411D01*
X008794Y004569D02*
X009426Y004569D01*
X009467Y004728D02*
X008809Y004728D01*
X008755Y004886D02*
X009614Y004886D01*
X009996Y004886D02*
X012114Y004886D01*
X012225Y005045D02*
X011499Y005045D01*
X011706Y005203D02*
X012067Y005203D01*
X011908Y005362D02*
X011759Y005362D01*
X011742Y005520D02*
X011750Y005520D01*
X011380Y005405D02*
X007505Y005405D01*
X007243Y005679D02*
X001966Y005679D01*
X002143Y005837D02*
X006668Y005837D01*
X006992Y005837D02*
X011433Y005837D01*
X011261Y005045D02*
X008540Y005045D01*
X008320Y005045D02*
X007624Y005045D01*
X007386Y005045D02*
X006898Y005045D01*
X006934Y005203D02*
X007179Y005203D01*
X007126Y005362D02*
X006900Y005362D01*
X006776Y005520D02*
X007143Y005520D01*
X007164Y005996D02*
X008866Y005996D01*
X008745Y006154D02*
X007209Y006154D01*
X007185Y006313D02*
X008714Y006313D01*
X008751Y006471D02*
X007075Y006471D01*
X006830Y006180D02*
X001680Y006180D01*
X001110Y006154D02*
X000920Y006154D01*
X000920Y005996D02*
X001139Y005996D01*
X001217Y005837D02*
X000920Y005837D01*
X000920Y005679D02*
X001394Y005679D01*
X001214Y005520D02*
X000920Y005520D01*
X000920Y005362D02*
X001138Y005362D01*
X001110Y005203D02*
X000920Y005203D01*
X000920Y005045D02*
X001119Y005045D01*
X001185Y004886D02*
X000920Y004886D01*
X000920Y004728D02*
X001326Y004728D01*
X001348Y004569D02*
X001291Y004512D01*
X001244Y004447D01*
X001207Y004376D01*
X001175Y004252D02*
X000920Y004252D01*
X000920Y004094D02*
X001177Y004094D01*
X001183Y004061D02*
X001170Y004140D01*
X001170Y004180D01*
X001680Y004180D01*
X001680Y004180D01*
X002190Y004180D01*
X002190Y004140D01*
X002177Y004061D01*
X002153Y003984D01*
X002116Y003913D01*
X002069Y003848D01*
X002012Y003791D01*
X001947Y003744D01*
X001885Y003712D01*
X002003Y003663D01*
X002163Y003503D01*
X002250Y003293D01*
X002250Y003067D01*
X002163Y002857D01*
X002003Y002697D01*
X001793Y002610D01*
X001567Y002610D01*
X001357Y002697D01*
X001197Y002857D01*
X001110Y003067D01*
X001110Y003293D01*
X001197Y003503D01*
X001357Y003663D01*
X001475Y003712D01*
X001413Y003744D01*
X001348Y003791D01*
X001291Y003848D01*
X001244Y003913D01*
X001207Y003984D01*
X001183Y004061D01*
X001232Y003935D02*
X000920Y003935D01*
X000920Y003777D02*
X001368Y003777D01*
X001312Y003618D02*
X000920Y003618D01*
X000920Y003460D02*
X001179Y003460D01*
X001113Y003301D02*
X000920Y003301D01*
X000920Y003143D02*
X001110Y003143D01*
X001144Y002984D02*
X000920Y002984D01*
X000920Y002826D02*
X001228Y002826D01*
X001429Y002667D02*
X000920Y002667D01*
X000920Y002509D02*
X006933Y002509D01*
X006933Y002667D02*
X001931Y002667D01*
X002132Y002826D02*
X006983Y002826D01*
X007105Y002984D02*
X002216Y002984D01*
X002250Y003143D02*
X006995Y003143D01*
X006933Y003301D02*
X002247Y003301D01*
X002181Y003460D02*
X003552Y003460D01*
X003586Y003449D02*
X003672Y003435D01*
X003695Y003435D01*
X003695Y003965D01*
X003165Y003965D01*
X003165Y003942D01*
X003179Y003856D01*
X003205Y003774D01*
X003245Y003697D01*
X003295Y003627D01*
X003357Y003565D01*
X003427Y003515D01*
X003504Y003475D01*
X003586Y003449D01*
X003695Y003460D02*
X003735Y003460D01*
X003735Y003435D02*
X003758Y003435D01*
X003844Y003449D01*
X003926Y003475D01*
X004003Y003515D01*
X004073Y003565D01*
X004135Y003627D01*
X004185Y003697D01*
X004225Y003774D01*
X004251Y003856D01*
X004265Y003942D01*
X004265Y003965D01*
X003735Y003965D01*
X003735Y004005D01*
X003695Y004005D01*
X003695Y004535D01*
X003672Y004535D01*
X003586Y004521D01*
X003504Y004495D01*
X003427Y004455D01*
X003357Y004405D01*
X003295Y004343D01*
X003245Y004273D01*
X003205Y004196D01*
X003179Y004114D01*
X003165Y004028D01*
X003165Y004005D01*
X003695Y004005D01*
X003695Y003965D01*
X003735Y003965D01*
X003735Y003435D01*
X003878Y003460D02*
X005170Y003460D01*
X004999Y003618D02*
X004126Y003618D01*
X004226Y003777D02*
X004921Y003777D01*
X004885Y003935D02*
X004264Y003935D01*
X004265Y004005D02*
X004265Y004028D01*
X004251Y004114D01*
X004225Y004196D01*
X004185Y004273D01*
X004135Y004343D01*
X004073Y004405D01*
X004003Y004455D01*
X003926Y004495D01*
X003844Y004521D01*
X003758Y004535D01*
X003735Y004535D01*
X003735Y004005D01*
X004265Y004005D01*
X004255Y004094D02*
X004885Y004094D01*
X004945Y004252D02*
X004196Y004252D01*
X004065Y004411D02*
X005058Y004411D01*
X005374Y004595D02*
X005616Y004595D01*
X005652Y004580D01*
X005934Y004861D01*
X005934Y004861D01*
X005954Y004881D01*
X002457Y004860D01*
X002456Y004860D01*
X002393Y004860D01*
X002331Y004860D01*
X002330Y004860D01*
X002164Y004860D01*
X002163Y004857D01*
X002003Y004697D01*
X001885Y004648D01*
X001947Y004616D01*
X002012Y004569D01*
X002135Y004411D02*
X003365Y004411D01*
X003234Y004252D02*
X002185Y004252D01*
X002183Y004094D02*
X003175Y004094D01*
X003166Y003935D02*
X002128Y003935D01*
X001992Y003777D02*
X003204Y003777D01*
X003304Y003618D02*
X002048Y003618D01*
X001680Y004180D02*
X001680Y004180D01*
X002034Y004728D02*
X005800Y004728D01*
X006205Y004680D02*
X005591Y004066D01*
X005495Y003985D01*
X006069Y003777D02*
X006979Y003777D01*
X006985Y003618D02*
X005991Y003618D01*
X005820Y003460D02*
X006933Y003460D01*
X006933Y003935D02*
X006105Y003935D01*
X006105Y004094D02*
X006933Y004094D01*
X006933Y004252D02*
X006230Y004252D01*
X006205Y004680D02*
X008430Y004680D01*
X009805Y004555D02*
X012305Y004555D01*
X012655Y004411D02*
X012859Y004411D01*
X012701Y004569D02*
X012684Y004569D01*
X012538Y004252D02*
X013018Y004252D01*
X014305Y006680D02*
X014743Y007118D01*
X015255Y007355D02*
X014930Y007680D01*
X014280Y007680D01*
X012168Y007680D01*
X011890Y007422D02*
X003816Y007422D01*
X003974Y007264D02*
X011885Y007264D01*
X011804Y007105D02*
X006109Y007105D01*
X006177Y006630D02*
X008886Y006630D01*
X009427Y007898D02*
X003498Y007898D01*
X003498Y008056D02*
X009321Y008056D01*
X009301Y008215D02*
X003498Y008215D01*
X003498Y008373D02*
X009350Y008373D01*
X009539Y008532D02*
X003498Y008532D01*
X003498Y008690D02*
X006884Y008690D01*
X006859Y008715D02*
X006965Y008609D01*
X007105Y008551D01*
X007255Y008551D01*
X007395Y008609D01*
X007396Y008610D01*
X007964Y008610D01*
X007965Y008609D01*
X008105Y008551D01*
X008255Y008551D01*
X008395Y008609D01*
X008501Y008715D01*
X008559Y008855D01*
X008559Y009005D01*
X008501Y009145D01*
X008395Y009251D01*
X008255Y009309D01*
X008105Y009309D01*
X007965Y009251D01*
X007964Y009250D01*
X007396Y009250D01*
X007395Y009251D01*
X007255Y009309D01*
X007105Y009309D01*
X006965Y009251D01*
X006859Y009145D01*
X006801Y009005D01*
X006801Y008855D01*
X006859Y008715D01*
X006804Y008849D02*
X003498Y008849D01*
X003498Y009007D02*
X006802Y009007D01*
X006880Y009166D02*
X003498Y009166D01*
X003498Y009324D02*
X011244Y009324D01*
X011186Y009166D02*
X008480Y009166D01*
X008558Y009007D02*
X010980Y009007D01*
X010840Y008849D02*
X008556Y008849D01*
X008476Y008690D02*
X010801Y008690D01*
X010821Y008532D02*
X010832Y008532D01*
X010539Y008532D02*
X009821Y008532D01*
X009680Y008180D02*
X010680Y008180D01*
X010933Y007898D02*
X011849Y007898D01*
X011789Y007739D02*
X003499Y007739D01*
X003657Y007581D02*
X011799Y007581D01*
X012086Y008056D02*
X011039Y008056D01*
X011059Y008215D02*
X013285Y008215D01*
X013285Y008373D02*
X013225Y008373D01*
X013285Y008056D02*
X012249Y008056D01*
X013130Y008680D02*
X013455Y009005D01*
X013455Y010430D01*
X013960Y010072D02*
X013960Y008575D01*
X013751Y008575D01*
X013751Y008126D01*
X013734Y008126D01*
X013734Y008575D01*
X013477Y008575D01*
X013726Y008824D01*
X013775Y008941D01*
X013775Y009887D01*
X013960Y010072D01*
X013960Y009958D02*
X013846Y009958D01*
X013775Y009800D02*
X013960Y009800D01*
X013960Y009641D02*
X013775Y009641D01*
X013775Y009483D02*
X013960Y009483D01*
X013960Y009324D02*
X013775Y009324D01*
X013775Y009166D02*
X013960Y009166D01*
X013960Y009007D02*
X013775Y009007D01*
X013737Y008849D02*
X013960Y008849D01*
X013960Y008690D02*
X013593Y008690D01*
X013734Y008532D02*
X013751Y008532D01*
X013734Y008373D02*
X013751Y008373D01*
X013734Y008215D02*
X013751Y008215D01*
X014280Y007680D02*
X014280Y011380D01*
X013680Y011980D01*
X013005Y011980D01*
X012455Y011430D01*
X012022Y011860D02*
X011888Y011860D01*
X011729Y012019D02*
X012181Y012019D01*
X012749Y012177D02*
X002202Y012177D01*
X002355Y012019D02*
X011181Y012019D01*
X011022Y011860D02*
X008898Y011860D01*
X008677Y011628D02*
X009180Y011152D01*
X009430Y011430D01*
X011455Y011430D01*
X010955Y011068D02*
X009648Y011068D01*
X009648Y010909D02*
X010870Y010909D01*
X010845Y010751D02*
X009614Y010751D01*
X009509Y010592D02*
X010845Y010592D01*
X010845Y010434D02*
X003816Y010434D01*
X003975Y010592D02*
X008851Y010592D01*
X008746Y010751D02*
X006105Y010751D01*
X005680Y011180D02*
X008555Y011180D01*
X008677Y011628D02*
X008618Y011680D01*
X004597Y011680D01*
X004285Y011369D01*
X004105Y011180D01*
X003930Y011000D01*
X003178Y010248D01*
X003178Y007608D01*
X003125Y007660D01*
X002190Y007660D01*
X001680Y007180D01*
X001110Y007105D02*
X000920Y007105D01*
X000920Y007264D02*
X001110Y007264D01*
X001110Y007422D02*
X000920Y007422D01*
X000920Y007581D02*
X001119Y007581D01*
X001276Y007739D02*
X000920Y007739D01*
X000920Y007898D02*
X001975Y007898D01*
X002317Y007340D02*
X002993Y007340D01*
X002996Y007336D01*
X003224Y007108D01*
X003215Y007107D01*
X003150Y007085D01*
X003089Y007054D01*
X003033Y007014D01*
X002984Y006965D01*
X002944Y006909D01*
X002912Y006848D01*
X002891Y006782D01*
X002880Y006714D01*
X002880Y006680D01*
X003318Y006680D01*
X002880Y006680D01*
X002880Y006646D01*
X002891Y006578D01*
X002912Y006512D01*
X002919Y006500D01*
X002164Y006500D01*
X002163Y006503D01*
X002056Y006610D01*
X002058Y006610D01*
X002146Y006647D01*
X002213Y006714D01*
X002250Y006802D01*
X002250Y007277D01*
X002317Y007340D01*
X002250Y007264D02*
X003069Y007264D01*
X003210Y007105D02*
X002250Y007105D01*
X002250Y006947D02*
X002971Y006947D01*
X002893Y006788D02*
X002244Y006788D01*
X002105Y006630D02*
X002883Y006630D01*
X003318Y006680D02*
X003318Y006680D01*
X004105Y006680D02*
X003178Y007608D01*
X002858Y008056D02*
X000920Y008056D01*
X000920Y008215D02*
X002858Y008215D01*
X002858Y008373D02*
X000920Y008373D01*
X000920Y008532D02*
X002858Y008532D01*
X002858Y008690D02*
X000920Y008690D01*
X000920Y008849D02*
X002858Y008849D01*
X002858Y009007D02*
X000920Y009007D01*
X000920Y009166D02*
X002858Y009166D01*
X002858Y009324D02*
X000920Y009324D01*
X000920Y009483D02*
X002858Y009483D01*
X002858Y009641D02*
X000920Y009641D01*
X000920Y009800D02*
X002858Y009800D01*
X002858Y009958D02*
X000920Y009958D01*
X000920Y010117D02*
X002858Y010117D01*
X002858Y010275D02*
X000920Y010275D01*
X000920Y010434D02*
X002911Y010434D01*
X003069Y010592D02*
X000920Y010592D01*
X000920Y010751D02*
X003228Y010751D01*
X002974Y010909D02*
X002128Y010909D01*
X002286Y011068D02*
X002894Y011068D01*
X002882Y011226D02*
X002390Y011226D01*
X002455Y011385D02*
X002931Y011385D01*
X003073Y011543D02*
X002471Y011543D01*
X002471Y011702D02*
X004165Y011702D01*
X004325Y011860D02*
X002420Y011860D01*
X003318Y011543D02*
X003318Y011543D01*
X003562Y011543D02*
X003765Y011543D01*
X003318Y011385D02*
X003318Y011385D01*
X003318Y011226D02*
X003318Y011226D01*
X003318Y011180D02*
X003318Y011180D01*
X004368Y010751D02*
X004629Y010751D01*
X005156Y010751D02*
X005255Y010751D01*
X004416Y011951D02*
X004416Y011951D01*
X003658Y010275D02*
X010845Y010275D01*
X010845Y010117D02*
X003499Y010117D01*
X003498Y009958D02*
X010867Y009958D01*
X011475Y009483D02*
X003498Y009483D01*
X003498Y009641D02*
X013135Y009641D01*
X013135Y009483D02*
X012545Y009483D01*
X012365Y009483D02*
X011655Y009483D01*
X011565Y009110D02*
X012455Y009110D01*
X012822Y009007D02*
X013004Y009007D01*
X013135Y009166D02*
X012834Y009166D01*
X012776Y009324D02*
X013135Y009324D01*
X013135Y009800D02*
X003498Y009800D01*
X001232Y010909D02*
X000920Y010909D01*
X000920Y011068D02*
X001074Y011068D01*
X000970Y011226D02*
X000920Y011226D01*
X004379Y007105D02*
X004619Y007105D01*
X005167Y007105D02*
X005251Y007105D01*
X005724Y005520D02*
X002146Y005520D01*
X002393Y005180D02*
X001680Y005180D01*
X002393Y005180D02*
X006555Y005205D01*
X003735Y004411D02*
X003695Y004411D01*
X003695Y004252D02*
X003735Y004252D01*
X003735Y004094D02*
X003695Y004094D01*
X003695Y003935D02*
X003735Y003935D01*
X003735Y003777D02*
X003695Y003777D01*
X003695Y003618D02*
X003735Y003618D01*
X002129Y002350D02*
X006997Y002350D01*
X007140Y002192D02*
X002287Y002192D01*
X002390Y002033D02*
X005369Y002033D01*
X005621Y002033D02*
X007049Y002033D01*
X006996Y001875D02*
X005908Y001875D01*
X006035Y001716D02*
X007003Y001716D01*
X007078Y001558D02*
X006100Y001558D01*
X006105Y001399D02*
X007303Y001399D01*
X006079Y001241D02*
X014481Y001241D01*
X014634Y001082D02*
X006013Y001082D01*
X005856Y000924D02*
X014914Y000924D01*
X013655Y007020D02*
X012180Y007023D01*
X013655Y007020D02*
X013743Y007118D01*
X015211Y007898D02*
X015907Y007898D01*
X015907Y008056D02*
X015260Y008056D01*
X015260Y008215D02*
X015907Y008215D01*
X015907Y008373D02*
X015196Y008373D01*
X015060Y008532D02*
X015907Y008532D01*
X015907Y008690D02*
X014600Y008690D01*
X014600Y008849D02*
X015907Y008849D01*
X015907Y009007D02*
X014600Y009007D01*
X014600Y009166D02*
X015907Y009166D01*
X015907Y009324D02*
X014600Y009324D01*
X014600Y009483D02*
X015907Y009483D01*
X015907Y009641D02*
X014600Y009641D01*
X014600Y009800D02*
X015907Y009800D01*
X015907Y009958D02*
X014600Y009958D01*
X014600Y010117D02*
X015907Y010117D01*
X015907Y010275D02*
X014600Y010275D01*
X014600Y010434D02*
X015907Y010434D01*
X015907Y010592D02*
X014600Y010592D01*
X014600Y010751D02*
X015907Y010751D01*
X015907Y010909D02*
X015603Y010909D01*
X015761Y011068D02*
X015907Y011068D01*
X015907Y011226D02*
X015865Y011226D01*
X014707Y010909D02*
X014600Y010909D01*
X014415Y011860D02*
X014253Y011860D01*
X014094Y012019D02*
X014480Y012019D01*
X014633Y012177D02*
X013936Y012177D01*
X013064Y009958D02*
X012846Y009958D01*
X012064Y009958D02*
X012043Y009958D01*
X011180Y008680D02*
X013130Y008680D01*
X015324Y007739D02*
X015907Y007739D01*
X008180Y008930D02*
X007180Y008930D01*
X001255Y006630D02*
X000920Y006630D01*
X000920Y006788D02*
X001116Y006788D01*
X001110Y006947D02*
X000920Y006947D01*
X000920Y006471D02*
X001184Y006471D01*
X001118Y006313D02*
X000920Y006313D01*
X000920Y002350D02*
X001231Y002350D01*
X001073Y002192D02*
X000920Y002192D01*
X000920Y002033D02*
X000970Y002033D01*
X002201Y001082D02*
X003284Y001082D01*
X003197Y001241D02*
X002354Y001241D01*
X002420Y001399D02*
X003165Y001399D01*
X003180Y001558D02*
X002471Y001558D01*
X002471Y001716D02*
X003247Y001716D01*
X003398Y001875D02*
X002456Y001875D01*
X001921Y000924D02*
X003488Y000924D01*
X003942Y000924D02*
X005134Y000924D01*
X004977Y001082D02*
X004146Y001082D01*
X004233Y001241D02*
X004911Y001241D01*
X004885Y001399D02*
X004265Y001399D01*
X004265Y001445D02*
X004265Y001468D01*
X004251Y001554D01*
X004225Y001636D01*
X004185Y001713D01*
X004135Y001783D01*
X004073Y001845D01*
X004003Y001895D01*
X003926Y001935D01*
X003844Y001961D01*
X003758Y001975D01*
X003735Y001975D01*
X003735Y001445D01*
X004265Y001445D01*
X004250Y001558D02*
X004890Y001558D01*
X004955Y001716D02*
X004183Y001716D01*
X004032Y001875D02*
X005082Y001875D01*
X003735Y001875D02*
X003695Y001875D01*
X003695Y001716D02*
X003735Y001716D01*
X003735Y001558D02*
X003695Y001558D01*
D22*
X006555Y005205D03*
X007505Y005405D03*
X006830Y006180D03*
X008430Y004680D03*
X009805Y004555D03*
X011380Y005405D03*
X012305Y004555D03*
X011930Y006680D03*
X012180Y007023D03*
X012168Y007680D03*
X011180Y008680D03*
X011565Y009110D03*
X012455Y009110D03*
X010680Y008180D03*
X009680Y008180D03*
X009680Y007180D03*
X009093Y006305D03*
X008180Y008930D03*
X007180Y008930D03*
X008905Y009755D03*
X008555Y011180D03*
X015455Y009830D03*
M02*
