%
M48
M72
T01C0.0157
T02C0.0256
T03C0.0315
T04C0.0320
T05C0.0354
T06C0.0400
T07C0.1102
%
T01
X6555Y5205
X7505Y5405
X6830Y6180
X8430Y4680
X9805Y4555
X11380Y5405
X12305Y4555
X11930Y6680
X12180Y7023
X12168Y7680
X11180Y8680
X11565Y9110
X12455Y9110
X10680Y8180
X9680Y8180
X9680Y7180
X9093Y6305
X8180Y8930
X7180Y8930
X8905Y9755
X8555Y11180
X15455Y9830
T02
X9180Y11152
X9180Y3278
T03
X7430Y3393
X7430Y4180
X7430Y2605
X7430Y1818
X5680Y6680
X4893Y6680
X4105Y6680
X3318Y6680
X3318Y11180
X4105Y11180
X4893Y11180
X5680Y11180
T04
X1680Y7180
X1680Y6180
X1680Y5180
X1680Y4180
X1680Y3180
T05
X13743Y5118
X14743Y5118
X14743Y6118
X13743Y6118
X13743Y7118
X14743Y7118
X14743Y8118
X13743Y8118
T06
X13455Y10430
X12455Y10430
X11455Y10430
X11455Y11430
X12455Y11430
X13455Y11430
X5495Y3985
X3715Y3985
X3715Y1425
X5495Y1425
T07
X1680Y1680
X1680Y11580
X15155Y11580
X15155Y1680
M30
