G75*
G70*
%OFA0B0*%
%FSLAX24Y24*%
%IPPOS*%
%LPD*%
%AMOC8*
5,1,8,0,0,1.08239X$1,22.5*
%
%ADD10C,0.0000*%
%ADD11R,0.0220X0.0500*%
%ADD12R,0.0500X0.0220*%
%ADD13R,0.0748X0.0551*%
%ADD14R,0.0591X0.0512*%
%ADD15C,0.0456*%
%ADD16R,0.0512X0.0591*%
%ADD17R,0.0394X0.0551*%
%ADD18R,0.0472X0.0472*%
%ADD19C,0.0740*%
%ADD20R,0.0660X0.0660*%
%ADD21C,0.0660*%
%ADD22R,0.0740X0.0740*%
%ADD23OC8,0.0740*%
%ADD24R,0.0554X0.0554*%
%ADD25C,0.0554*%
%ADD26R,0.0515X0.0515*%
%ADD27C,0.0515*%
%ADD28C,0.0160*%
%ADD29C,0.0100*%
%ADD30C,0.0277*%
D10*
X000680Y000680D02*
X000680Y012550D01*
X016147Y012550D01*
X016147Y000680D01*
X000680Y000680D01*
X001129Y001680D02*
X001131Y001727D01*
X001137Y001773D01*
X001147Y001819D01*
X001160Y001864D01*
X001178Y001907D01*
X001199Y001949D01*
X001223Y001989D01*
X001251Y002026D01*
X001282Y002061D01*
X001316Y002094D01*
X001352Y002123D01*
X001391Y002149D01*
X001432Y002172D01*
X001475Y002191D01*
X001519Y002207D01*
X001564Y002219D01*
X001610Y002227D01*
X001657Y002231D01*
X001703Y002231D01*
X001750Y002227D01*
X001796Y002219D01*
X001841Y002207D01*
X001885Y002191D01*
X001928Y002172D01*
X001969Y002149D01*
X002008Y002123D01*
X002044Y002094D01*
X002078Y002061D01*
X002109Y002026D01*
X002137Y001989D01*
X002161Y001949D01*
X002182Y001907D01*
X002200Y001864D01*
X002213Y001819D01*
X002223Y001773D01*
X002229Y001727D01*
X002231Y001680D01*
X002229Y001633D01*
X002223Y001587D01*
X002213Y001541D01*
X002200Y001496D01*
X002182Y001453D01*
X002161Y001411D01*
X002137Y001371D01*
X002109Y001334D01*
X002078Y001299D01*
X002044Y001266D01*
X002008Y001237D01*
X001969Y001211D01*
X001928Y001188D01*
X001885Y001169D01*
X001841Y001153D01*
X001796Y001141D01*
X001750Y001133D01*
X001703Y001129D01*
X001657Y001129D01*
X001610Y001133D01*
X001564Y001141D01*
X001519Y001153D01*
X001475Y001169D01*
X001432Y001188D01*
X001391Y001211D01*
X001352Y001237D01*
X001316Y001266D01*
X001282Y001299D01*
X001251Y001334D01*
X001223Y001371D01*
X001199Y001411D01*
X001178Y001453D01*
X001160Y001496D01*
X001147Y001541D01*
X001137Y001587D01*
X001131Y001633D01*
X001129Y001680D01*
X001129Y011580D02*
X001131Y011627D01*
X001137Y011673D01*
X001147Y011719D01*
X001160Y011764D01*
X001178Y011807D01*
X001199Y011849D01*
X001223Y011889D01*
X001251Y011926D01*
X001282Y011961D01*
X001316Y011994D01*
X001352Y012023D01*
X001391Y012049D01*
X001432Y012072D01*
X001475Y012091D01*
X001519Y012107D01*
X001564Y012119D01*
X001610Y012127D01*
X001657Y012131D01*
X001703Y012131D01*
X001750Y012127D01*
X001796Y012119D01*
X001841Y012107D01*
X001885Y012091D01*
X001928Y012072D01*
X001969Y012049D01*
X002008Y012023D01*
X002044Y011994D01*
X002078Y011961D01*
X002109Y011926D01*
X002137Y011889D01*
X002161Y011849D01*
X002182Y011807D01*
X002200Y011764D01*
X002213Y011719D01*
X002223Y011673D01*
X002229Y011627D01*
X002231Y011580D01*
X002229Y011533D01*
X002223Y011487D01*
X002213Y011441D01*
X002200Y011396D01*
X002182Y011353D01*
X002161Y011311D01*
X002137Y011271D01*
X002109Y011234D01*
X002078Y011199D01*
X002044Y011166D01*
X002008Y011137D01*
X001969Y011111D01*
X001928Y011088D01*
X001885Y011069D01*
X001841Y011053D01*
X001796Y011041D01*
X001750Y011033D01*
X001703Y011029D01*
X001657Y011029D01*
X001610Y011033D01*
X001564Y011041D01*
X001519Y011053D01*
X001475Y011069D01*
X001432Y011088D01*
X001391Y011111D01*
X001352Y011137D01*
X001316Y011166D01*
X001282Y011199D01*
X001251Y011234D01*
X001223Y011271D01*
X001199Y011311D01*
X001178Y011353D01*
X001160Y011396D01*
X001147Y011441D01*
X001137Y011487D01*
X001131Y011533D01*
X001129Y011580D01*
X014604Y011580D02*
X014606Y011627D01*
X014612Y011673D01*
X014622Y011719D01*
X014635Y011764D01*
X014653Y011807D01*
X014674Y011849D01*
X014698Y011889D01*
X014726Y011926D01*
X014757Y011961D01*
X014791Y011994D01*
X014827Y012023D01*
X014866Y012049D01*
X014907Y012072D01*
X014950Y012091D01*
X014994Y012107D01*
X015039Y012119D01*
X015085Y012127D01*
X015132Y012131D01*
X015178Y012131D01*
X015225Y012127D01*
X015271Y012119D01*
X015316Y012107D01*
X015360Y012091D01*
X015403Y012072D01*
X015444Y012049D01*
X015483Y012023D01*
X015519Y011994D01*
X015553Y011961D01*
X015584Y011926D01*
X015612Y011889D01*
X015636Y011849D01*
X015657Y011807D01*
X015675Y011764D01*
X015688Y011719D01*
X015698Y011673D01*
X015704Y011627D01*
X015706Y011580D01*
X015704Y011533D01*
X015698Y011487D01*
X015688Y011441D01*
X015675Y011396D01*
X015657Y011353D01*
X015636Y011311D01*
X015612Y011271D01*
X015584Y011234D01*
X015553Y011199D01*
X015519Y011166D01*
X015483Y011137D01*
X015444Y011111D01*
X015403Y011088D01*
X015360Y011069D01*
X015316Y011053D01*
X015271Y011041D01*
X015225Y011033D01*
X015178Y011029D01*
X015132Y011029D01*
X015085Y011033D01*
X015039Y011041D01*
X014994Y011053D01*
X014950Y011069D01*
X014907Y011088D01*
X014866Y011111D01*
X014827Y011137D01*
X014791Y011166D01*
X014757Y011199D01*
X014726Y011234D01*
X014698Y011271D01*
X014674Y011311D01*
X014653Y011353D01*
X014635Y011396D01*
X014622Y011441D01*
X014612Y011487D01*
X014606Y011533D01*
X014604Y011580D01*
X014604Y001680D02*
X014606Y001727D01*
X014612Y001773D01*
X014622Y001819D01*
X014635Y001864D01*
X014653Y001907D01*
X014674Y001949D01*
X014698Y001989D01*
X014726Y002026D01*
X014757Y002061D01*
X014791Y002094D01*
X014827Y002123D01*
X014866Y002149D01*
X014907Y002172D01*
X014950Y002191D01*
X014994Y002207D01*
X015039Y002219D01*
X015085Y002227D01*
X015132Y002231D01*
X015178Y002231D01*
X015225Y002227D01*
X015271Y002219D01*
X015316Y002207D01*
X015360Y002191D01*
X015403Y002172D01*
X015444Y002149D01*
X015483Y002123D01*
X015519Y002094D01*
X015553Y002061D01*
X015584Y002026D01*
X015612Y001989D01*
X015636Y001949D01*
X015657Y001907D01*
X015675Y001864D01*
X015688Y001819D01*
X015698Y001773D01*
X015704Y001727D01*
X015706Y001680D01*
X015704Y001633D01*
X015698Y001587D01*
X015688Y001541D01*
X015675Y001496D01*
X015657Y001453D01*
X015636Y001411D01*
X015612Y001371D01*
X015584Y001334D01*
X015553Y001299D01*
X015519Y001266D01*
X015483Y001237D01*
X015444Y001211D01*
X015403Y001188D01*
X015360Y001169D01*
X015316Y001153D01*
X015271Y001141D01*
X015225Y001133D01*
X015178Y001129D01*
X015132Y001129D01*
X015085Y001133D01*
X015039Y001141D01*
X014994Y001153D01*
X014950Y001169D01*
X014907Y001188D01*
X014866Y001211D01*
X014827Y001237D01*
X014791Y001266D01*
X014757Y001299D01*
X014726Y001334D01*
X014698Y001371D01*
X014674Y001411D01*
X014653Y001453D01*
X014635Y001496D01*
X014622Y001541D01*
X014612Y001587D01*
X014606Y001633D01*
X014604Y001680D01*
D11*
X010782Y005490D03*
X010467Y005490D03*
X010152Y005490D03*
X009837Y005490D03*
X009523Y005490D03*
X009208Y005490D03*
X008893Y005490D03*
X008578Y005490D03*
X008578Y008870D03*
X008893Y008870D03*
X009208Y008870D03*
X009523Y008870D03*
X009837Y008870D03*
X010152Y008870D03*
X010467Y008870D03*
X010782Y008870D03*
D12*
X011370Y008282D03*
X011370Y007967D03*
X011370Y007652D03*
X011370Y007337D03*
X011370Y007023D03*
X011370Y006708D03*
X011370Y006393D03*
X011370Y006078D03*
X007990Y006078D03*
X007990Y006393D03*
X007990Y006708D03*
X007990Y007023D03*
X007990Y007337D03*
X007990Y007652D03*
X007990Y007967D03*
X007990Y008282D03*
D13*
X011339Y003502D03*
X011339Y002558D03*
X013071Y002558D03*
X013071Y003502D03*
D14*
X014280Y003231D03*
X014280Y003979D03*
X012493Y005056D03*
X012493Y005804D03*
X010180Y003304D03*
X010180Y002556D03*
X010205Y010856D03*
X010205Y011604D03*
D15*
X009180Y011380D02*
X009180Y010924D01*
X009180Y003506D02*
X009180Y003050D01*
D16*
X005304Y005180D03*
X004556Y005180D03*
X003679Y005180D03*
X002931Y005180D03*
X002956Y008880D03*
X003704Y008880D03*
X007306Y009680D03*
X008054Y009680D03*
X008054Y010680D03*
X007306Y010680D03*
X007306Y011680D03*
X008054Y011680D03*
X009481Y009755D03*
X010229Y009755D03*
X014006Y009130D03*
X014754Y009130D03*
D17*
X006061Y008642D03*
X005313Y008642D03*
X005687Y009509D03*
D18*
X008517Y004180D03*
X009343Y004180D03*
D19*
X005495Y003985D03*
X003715Y003985D03*
X003715Y001425D03*
X005495Y001425D03*
D20*
X001680Y007180D03*
D21*
X001680Y006180D03*
X001680Y005180D03*
X001680Y004180D03*
X001680Y003180D03*
D22*
X011455Y010430D03*
D23*
X012455Y010430D03*
X013455Y010430D03*
X013455Y011430D03*
X012455Y011430D03*
X011455Y011430D03*
D24*
X013743Y008118D03*
D25*
X014743Y008118D03*
X014743Y007118D03*
X013743Y007118D03*
X013743Y006118D03*
X014743Y006118D03*
X014743Y005118D03*
X013743Y005118D03*
D26*
X007430Y004180D03*
X005680Y006680D03*
X005680Y011180D03*
D27*
X004893Y011180D03*
X004105Y011180D03*
X003318Y011180D03*
X003318Y006680D03*
X004105Y006680D03*
X004893Y006680D03*
X007430Y003393D03*
X007430Y002605D03*
X007430Y001818D03*
D28*
X007867Y001818D01*
X007867Y001852D01*
X007857Y001920D01*
X007835Y001986D01*
X007804Y002047D01*
X007764Y002103D01*
X007715Y002151D01*
X007686Y002173D01*
X007712Y002183D01*
X007814Y002285D01*
X008347Y002285D01*
X009309Y001324D01*
X009309Y001324D01*
X009399Y001234D01*
X009516Y001185D01*
X013719Y001185D01*
X013836Y001234D01*
X014364Y001761D01*
X014364Y001523D01*
X014484Y001232D01*
X014707Y001009D01*
X014922Y000920D01*
X005853Y000920D01*
X006012Y001079D01*
X006105Y001304D01*
X006105Y001546D01*
X006012Y001771D01*
X005841Y001942D01*
X005815Y001953D01*
X005815Y003457D01*
X005841Y003468D01*
X006012Y003639D01*
X006105Y003864D01*
X006105Y004106D01*
X006012Y004331D01*
X005841Y004502D01*
X005616Y004595D01*
X005374Y004595D01*
X005244Y004541D01*
X005347Y004645D01*
X005608Y004645D01*
X005696Y004681D01*
X005763Y004749D01*
X005800Y004837D01*
X005800Y005353D01*
X006472Y006054D01*
X006509Y005965D01*
X006615Y005859D01*
X006715Y005818D01*
X006481Y005584D01*
X006480Y005584D01*
X006340Y005526D01*
X006234Y005420D01*
X006176Y005280D01*
X006176Y005130D01*
X006234Y004990D01*
X006340Y004884D01*
X006475Y004828D01*
X006409Y004761D01*
X006360Y004644D01*
X006360Y003716D01*
X006409Y003599D01*
X006499Y003509D01*
X006813Y003195D01*
X006815Y003189D01*
X006858Y003150D01*
X006899Y003109D01*
X006904Y003106D01*
X006909Y003102D01*
X006963Y003082D01*
X007016Y003060D01*
X007022Y003060D01*
X007028Y003058D01*
X007060Y003059D01*
X007120Y002999D01*
X007008Y002887D01*
X006933Y002704D01*
X006933Y002506D01*
X007008Y002323D01*
X007148Y002183D01*
X007174Y002173D01*
X007145Y002151D01*
X007096Y002103D01*
X007056Y002047D01*
X007025Y001986D01*
X007003Y001920D01*
X006993Y001852D01*
X006993Y001818D01*
X007430Y001818D01*
X007430Y001818D01*
X007430Y001818D01*
X007867Y001818D01*
X007867Y001783D01*
X007857Y001715D01*
X007835Y001650D01*
X007804Y001589D01*
X007764Y001533D01*
X007715Y001484D01*
X007659Y001444D01*
X007598Y001412D01*
X007532Y001391D01*
X007464Y001380D01*
X007430Y001380D01*
X007430Y001818D01*
X006993Y001818D01*
X006993Y001783D01*
X007003Y001715D01*
X007025Y001650D01*
X007056Y001589D01*
X007096Y001533D01*
X007145Y001484D01*
X007201Y001444D01*
X007262Y001412D01*
X007328Y001391D01*
X007396Y001380D01*
X007430Y001380D01*
X007430Y001818D01*
X007430Y001818D01*
X007430Y001716D02*
X007430Y001716D01*
X007430Y001558D02*
X007430Y001558D01*
X007430Y001399D02*
X007430Y001399D01*
X007557Y001399D02*
X009233Y001399D01*
X009075Y001558D02*
X007782Y001558D01*
X007857Y001716D02*
X008916Y001716D01*
X008758Y001875D02*
X007864Y001875D01*
X007811Y002033D02*
X008599Y002033D01*
X008441Y002192D02*
X007720Y002192D01*
X007430Y002605D02*
X008480Y002605D01*
X009580Y001505D01*
X013655Y001505D01*
X015330Y003180D01*
X015330Y007530D01*
X014743Y008118D01*
X014743Y009893D01*
X014330Y010305D01*
X014330Y011430D01*
X013705Y012055D01*
X012080Y012055D01*
X011455Y011430D01*
X011205Y011430D01*
X010805Y011055D01*
X010801Y009555D01*
X010480Y009230D01*
X010467Y009221D01*
X010467Y008870D01*
X010430Y008680D02*
X010430Y008430D01*
X010180Y008180D01*
X010180Y006155D01*
X009523Y006155D01*
X009523Y005490D01*
X009837Y005490D02*
X009837Y004937D01*
X009830Y004930D01*
X009205Y004930D01*
X009205Y005487D01*
X009208Y005490D01*
X008893Y005490D02*
X008887Y005137D01*
X008430Y004680D01*
X008680Y004405D02*
X009205Y004930D01*
X009158Y004956D02*
X009182Y005012D01*
X009202Y005060D01*
X009208Y005060D01*
X009253Y005060D01*
X009277Y005037D01*
X009365Y005000D01*
X009680Y005000D01*
X009768Y005037D01*
X009792Y005060D01*
X009837Y005060D01*
X009837Y005108D01*
X009837Y005108D01*
X009837Y005108D01*
X009837Y005060D01*
X009883Y005060D01*
X009906Y005037D01*
X009995Y005000D01*
X010148Y005000D01*
X010148Y004892D01*
X010148Y004717D01*
X010126Y004770D01*
X010020Y004876D01*
X009880Y004934D01*
X009730Y004934D01*
X009590Y004876D01*
X009484Y004770D01*
X009437Y004656D01*
X009059Y004656D01*
X008971Y004620D01*
X008904Y004552D01*
X008894Y004529D01*
X008863Y004560D01*
X008822Y004584D01*
X008802Y004589D01*
X008809Y004605D01*
X008809Y004606D01*
X009111Y004909D01*
X009155Y004951D01*
X009156Y004954D01*
X009158Y004956D01*
X009196Y005045D02*
X009269Y005045D01*
X009208Y005060D02*
X009208Y005108D01*
X009208Y005108D01*
X009208Y005108D01*
X009208Y005060D01*
X009089Y004886D02*
X009614Y004886D01*
X009467Y004728D02*
X008930Y004728D01*
X008921Y004569D02*
X008848Y004569D01*
X008680Y004405D02*
X008680Y004180D01*
X008555Y004218D02*
X008867Y004218D01*
X008867Y004142D01*
X008555Y004142D01*
X008555Y004218D01*
X008555Y004142D02*
X008555Y003764D01*
X008777Y003764D01*
X008822Y003776D01*
X008863Y003800D01*
X008894Y003831D01*
X008904Y003808D01*
X008904Y003807D01*
X008869Y003772D01*
X008831Y003720D01*
X008802Y003663D01*
X008782Y003602D01*
X008772Y003538D01*
X008772Y003278D01*
X008772Y003018D01*
X008782Y002955D01*
X008802Y002894D01*
X008831Y002837D01*
X008869Y002785D01*
X008914Y002739D01*
X008966Y002702D01*
X009023Y002672D01*
X009084Y002653D01*
X009148Y002643D01*
X009180Y002643D01*
X009212Y002643D01*
X009276Y002653D01*
X009337Y002672D01*
X009394Y002702D01*
X009446Y002739D01*
X009491Y002785D01*
X009529Y002837D01*
X009558Y002894D01*
X009578Y002955D01*
X009588Y003018D01*
X009588Y003278D01*
X009180Y003278D01*
X009180Y002643D01*
X009180Y003278D01*
X009180Y003278D01*
X009180Y003278D01*
X008772Y003278D01*
X009180Y003278D01*
X009180Y003278D01*
X009588Y003278D01*
X009588Y003538D01*
X009578Y003602D01*
X009558Y003663D01*
X009537Y003704D01*
X009627Y003704D01*
X009716Y003740D01*
X009783Y003808D01*
X009820Y003896D01*
X009820Y004117D01*
X009879Y004176D01*
X009880Y004176D01*
X010020Y004234D01*
X010126Y004340D01*
X010148Y004393D01*
X010148Y004000D01*
X009999Y003851D01*
X009947Y003800D01*
X009837Y003800D01*
X009749Y003763D01*
X009681Y003696D01*
X009645Y003608D01*
X009645Y003000D01*
X009681Y002912D01*
X009716Y002877D01*
X009705Y002836D01*
X009705Y002604D01*
X010132Y002604D01*
X010132Y002508D01*
X009705Y002508D01*
X009705Y002276D01*
X009717Y002231D01*
X009741Y002190D01*
X009774Y002156D01*
X009815Y002132D01*
X009861Y002120D01*
X010132Y002120D01*
X010132Y002508D01*
X010228Y002508D01*
X010228Y002604D01*
X010604Y002604D01*
X010725Y002483D01*
X010725Y002234D01*
X010761Y002146D01*
X010829Y002079D01*
X010917Y002042D01*
X011761Y002042D01*
X011849Y002079D01*
X011916Y002146D01*
X011953Y002234D01*
X011953Y002881D01*
X011916Y002969D01*
X011855Y003030D01*
X011916Y003091D01*
X011953Y003179D01*
X011953Y003785D01*
X012336Y003785D01*
X012457Y003664D01*
X012457Y003179D01*
X012494Y003091D01*
X012555Y003030D01*
X012494Y002969D01*
X012457Y002881D01*
X012457Y002234D01*
X012494Y002146D01*
X012561Y002079D01*
X012649Y002042D01*
X013493Y002042D01*
X013581Y002079D01*
X013649Y002146D01*
X013685Y002234D01*
X013685Y002881D01*
X013649Y002969D01*
X013588Y003030D01*
X013649Y003091D01*
X013685Y003179D01*
X013685Y003258D01*
X013751Y003324D01*
X013805Y003377D01*
X013805Y003279D01*
X014232Y003279D01*
X014232Y003183D01*
X013805Y003183D01*
X013805Y002951D01*
X013817Y002906D01*
X013841Y002865D01*
X013874Y002831D01*
X013915Y002807D01*
X013961Y002795D01*
X014232Y002795D01*
X014232Y003183D01*
X014328Y003183D01*
X014328Y003279D01*
X014755Y003279D01*
X014755Y003511D01*
X014744Y003552D01*
X014779Y003587D01*
X014815Y003675D01*
X014815Y004283D01*
X014779Y004371D01*
X014711Y004438D01*
X014623Y004475D01*
X013937Y004475D01*
X013849Y004438D01*
X013781Y004371D01*
X013745Y004283D01*
X013745Y004222D01*
X013527Y004004D01*
X013493Y004018D01*
X013008Y004018D01*
X012650Y004376D01*
X012642Y004379D01*
X012684Y004480D01*
X012684Y004481D01*
X012763Y004560D01*
X012836Y004560D01*
X012924Y004597D01*
X012991Y004664D01*
X013028Y004752D01*
X013028Y005360D01*
X013014Y005394D01*
X013225Y005182D01*
X013225Y005015D01*
X013304Y004825D01*
X013450Y004679D01*
X013640Y004600D01*
X013845Y004600D01*
X014035Y004679D01*
X014181Y004825D01*
X014242Y004973D01*
X014304Y004825D01*
X014450Y004679D01*
X014640Y004600D01*
X014845Y004600D01*
X015010Y004669D01*
X015010Y003313D01*
X014755Y003058D01*
X014755Y003183D01*
X014328Y003183D01*
X014328Y002795D01*
X014493Y002795D01*
X013522Y001825D01*
X009713Y001825D01*
X008751Y002786D01*
X008751Y002786D01*
X008661Y002876D01*
X008543Y002925D01*
X007814Y002925D01*
X007740Y002999D01*
X007852Y003111D01*
X007927Y003294D01*
X007927Y003492D01*
X007852Y003674D01*
X007812Y003714D01*
X007823Y003719D01*
X007891Y003787D01*
X007927Y003875D01*
X007927Y004407D01*
X008074Y004550D01*
X008108Y004468D01*
X008100Y004440D01*
X008100Y004218D01*
X008478Y004218D01*
X008478Y004142D01*
X008100Y004142D01*
X008100Y003920D01*
X008113Y003874D01*
X008136Y003833D01*
X008170Y003800D01*
X008211Y003776D01*
X008257Y003764D01*
X008479Y003764D01*
X008479Y004142D01*
X008555Y004142D01*
X008555Y004094D02*
X008479Y004094D01*
X008479Y003935D02*
X008555Y003935D01*
X008555Y003777D02*
X008479Y003777D01*
X008210Y003777D02*
X007881Y003777D01*
X007875Y003618D02*
X008787Y003618D01*
X008772Y003460D02*
X007927Y003460D01*
X007927Y003301D02*
X008772Y003301D01*
X008772Y003143D02*
X007865Y003143D01*
X007755Y002984D02*
X008777Y002984D01*
X008839Y002826D02*
X008712Y002826D01*
X008871Y002667D02*
X009040Y002667D01*
X009180Y002667D02*
X009180Y002667D01*
X009320Y002667D02*
X009705Y002667D01*
X009705Y002826D02*
X009521Y002826D01*
X009583Y002984D02*
X009652Y002984D01*
X009645Y003143D02*
X009588Y003143D01*
X009588Y003301D02*
X009645Y003301D01*
X009645Y003460D02*
X009588Y003460D01*
X009573Y003618D02*
X009649Y003618D01*
X009752Y003777D02*
X009780Y003777D01*
X009820Y003935D02*
X010082Y003935D01*
X010148Y004094D02*
X009820Y004094D01*
X010038Y004252D02*
X010148Y004252D01*
X009805Y004555D02*
X009430Y004180D01*
X009343Y004180D01*
X008873Y003777D02*
X008823Y003777D01*
X008100Y003935D02*
X007927Y003935D01*
X007927Y004094D02*
X008100Y004094D01*
X008100Y004252D02*
X007927Y004252D01*
X007932Y004411D02*
X008100Y004411D01*
X007443Y004380D02*
X008578Y005490D01*
X008862Y006074D02*
X007990Y006078D01*
X007978Y006078D01*
X007990Y006393D02*
X007746Y006396D01*
X006555Y005205D01*
X006176Y005203D02*
X005800Y005203D01*
X005800Y005045D02*
X006212Y005045D01*
X006338Y004886D02*
X005800Y004886D01*
X005742Y004728D02*
X006395Y004728D01*
X006360Y004569D02*
X005679Y004569D01*
X005932Y004411D02*
X006360Y004411D01*
X006360Y004252D02*
X006045Y004252D01*
X006105Y004094D02*
X006360Y004094D01*
X006360Y003935D02*
X006105Y003935D01*
X006069Y003777D02*
X006360Y003777D01*
X006401Y003618D02*
X005991Y003618D01*
X005820Y003460D02*
X006548Y003460D01*
X006706Y003301D02*
X005815Y003301D01*
X005815Y003143D02*
X006865Y003143D01*
X007105Y002984D02*
X005815Y002984D01*
X005815Y002826D02*
X006983Y002826D01*
X006933Y002667D02*
X005815Y002667D01*
X005815Y002509D02*
X006933Y002509D01*
X006997Y002350D02*
X005815Y002350D01*
X005815Y002192D02*
X007140Y002192D01*
X007049Y002033D02*
X005815Y002033D01*
X005908Y001875D02*
X006996Y001875D01*
X007003Y001716D02*
X006035Y001716D01*
X006100Y001558D02*
X007078Y001558D01*
X007303Y001399D02*
X006105Y001399D01*
X006079Y001241D02*
X009392Y001241D01*
X009663Y001875D02*
X013572Y001875D01*
X013730Y002033D02*
X009505Y002033D01*
X009346Y002192D02*
X009740Y002192D01*
X009705Y002350D02*
X009188Y002350D01*
X009029Y002509D02*
X010132Y002509D01*
X010228Y002508D02*
X010228Y002120D01*
X010499Y002120D01*
X010545Y002132D01*
X010586Y002156D01*
X010619Y002190D01*
X010643Y002231D01*
X010655Y002276D01*
X010655Y002508D01*
X010228Y002508D01*
X010228Y002509D02*
X010699Y002509D01*
X010725Y002350D02*
X010655Y002350D01*
X010620Y002192D02*
X010743Y002192D01*
X011105Y002555D02*
X011341Y002555D01*
X011339Y002558D01*
X011341Y002555D02*
X011380Y002555D01*
X011105Y002555D02*
X010356Y003304D01*
X010180Y003304D01*
X010180Y003580D01*
X010468Y003868D01*
X010468Y004892D01*
X010467Y005490D01*
X010180Y005462D02*
X010152Y005490D01*
X010180Y005680D02*
X010180Y006155D01*
X009860Y006475D02*
X009523Y006475D01*
X009459Y006475D01*
X009436Y006465D01*
X009414Y006520D01*
X009307Y006626D01*
X009168Y006684D01*
X009017Y006684D01*
X008878Y006626D01*
X008771Y006520D01*
X008720Y006395D01*
X008480Y006396D01*
X008480Y006550D01*
X008480Y006707D01*
X008525Y006707D01*
X008587Y006707D01*
X008589Y006708D01*
X008590Y006708D01*
X008647Y006732D01*
X008705Y006756D01*
X008706Y006757D01*
X008707Y006758D01*
X008751Y006802D01*
X009753Y007801D01*
X009755Y007801D01*
X009860Y007845D01*
X009860Y006475D01*
X009860Y006630D02*
X009299Y006630D01*
X009434Y006471D02*
X009449Y006471D01*
X009459Y006475D02*
X009459Y006475D01*
X009459Y006475D01*
X009093Y006305D02*
X008862Y006074D01*
X008751Y006471D02*
X008480Y006471D01*
X008480Y006630D02*
X008886Y006630D01*
X008737Y006788D02*
X009860Y006788D01*
X009860Y006947D02*
X008896Y006947D01*
X009055Y007105D02*
X009860Y007105D01*
X009860Y007264D02*
X009214Y007264D01*
X009373Y007422D02*
X009860Y007422D01*
X009860Y007581D02*
X009532Y007581D01*
X009691Y007739D02*
X009860Y007739D01*
X009680Y008180D02*
X008524Y007027D01*
X007990Y007023D01*
X007742Y006993D01*
X006930Y006993D01*
X005430Y005430D01*
X005430Y005180D01*
X004830Y004580D01*
X004168Y004580D01*
X003805Y004930D01*
X003805Y005180D01*
X004117Y005632D02*
X004071Y005679D01*
X003983Y005715D01*
X003375Y005715D01*
X003305Y005686D01*
X003235Y005715D01*
X002627Y005715D01*
X002539Y005679D01*
X002472Y005611D01*
X002435Y005523D01*
X002435Y005138D01*
X002169Y004872D01*
X002250Y005067D01*
X002250Y005293D01*
X002163Y005503D01*
X002003Y005663D01*
X001962Y005680D01*
X002003Y005697D01*
X002163Y005857D01*
X002250Y006067D01*
X002250Y006293D01*
X002163Y006503D01*
X002056Y006610D01*
X002058Y006610D01*
X002146Y006647D01*
X002213Y006714D01*
X002250Y006802D01*
X002250Y007558D01*
X002213Y007646D01*
X002146Y007713D01*
X002058Y007750D01*
X001302Y007750D01*
X001214Y007713D01*
X001147Y007646D01*
X001110Y007558D01*
X001110Y006802D01*
X001147Y006714D01*
X001214Y006647D01*
X001302Y006610D01*
X001304Y006610D01*
X001197Y006503D01*
X001110Y006293D01*
X001110Y006067D01*
X001197Y005857D01*
X001357Y005697D01*
X001398Y005680D01*
X001357Y005663D01*
X001197Y005503D01*
X001110Y005293D01*
X001110Y005067D01*
X001197Y004857D01*
X001357Y004697D01*
X001475Y004648D01*
X001413Y004616D01*
X001348Y004569D01*
X000920Y004569D01*
X000920Y004411D02*
X001225Y004411D01*
X001207Y004376D02*
X001183Y004299D01*
X001170Y004220D01*
X001170Y004180D01*
X001680Y004180D01*
X001680Y004180D01*
X001170Y004180D01*
X001170Y004140D01*
X001183Y004061D01*
X001207Y003984D01*
X001244Y003913D01*
X001291Y003848D01*
X001348Y003791D01*
X001413Y003744D01*
X001475Y003712D01*
X001357Y003663D01*
X001197Y003503D01*
X001110Y003293D01*
X001110Y003067D01*
X001197Y002857D01*
X001357Y002697D01*
X001567Y002610D01*
X001793Y002610D01*
X002003Y002697D01*
X002163Y002857D01*
X002169Y002870D01*
X002261Y002909D01*
X002611Y003259D01*
X002701Y003349D01*
X002750Y003466D01*
X002750Y004547D01*
X002847Y004645D01*
X003235Y004645D01*
X003305Y004674D01*
X003375Y004645D01*
X003640Y004645D01*
X003753Y004535D01*
X003735Y004535D01*
X003735Y004005D01*
X004265Y004005D01*
X004265Y004028D01*
X004251Y004114D01*
X004225Y004196D01*
X004192Y004260D01*
X004894Y004260D01*
X004960Y004288D01*
X004885Y004106D01*
X004885Y003864D01*
X004978Y003639D01*
X005149Y003468D01*
X005175Y003457D01*
X005175Y001953D01*
X005149Y001942D01*
X004978Y001771D01*
X004885Y001546D01*
X004885Y001304D01*
X004978Y001079D01*
X005137Y000920D01*
X003935Y000920D01*
X004003Y000955D01*
X004073Y001005D01*
X004135Y001067D01*
X004185Y001137D01*
X004225Y001214D01*
X004251Y001296D01*
X004265Y001382D01*
X004265Y001405D01*
X003735Y001405D01*
X003735Y001445D01*
X003695Y001445D01*
X003695Y001975D01*
X003672Y001975D01*
X003586Y001961D01*
X003504Y001935D01*
X003427Y001895D01*
X003357Y001845D01*
X003295Y001783D01*
X003245Y001713D01*
X003205Y001636D01*
X003179Y001554D01*
X003165Y001468D01*
X003165Y001445D01*
X003695Y001445D01*
X003695Y001405D01*
X003165Y001405D01*
X003165Y001382D01*
X003179Y001296D01*
X003205Y001214D01*
X003245Y001137D01*
X003295Y001067D01*
X003357Y001005D01*
X003427Y000955D01*
X003495Y000920D01*
X001913Y000920D01*
X002128Y001009D01*
X002351Y001232D01*
X002471Y001523D01*
X002471Y001837D01*
X002351Y002128D01*
X002128Y002351D01*
X001837Y002471D01*
X001523Y002471D01*
X001232Y002351D01*
X001009Y002128D01*
X000920Y001913D01*
X000920Y011347D01*
X001009Y011132D01*
X001232Y010909D01*
X001523Y010789D01*
X001837Y010789D01*
X002128Y010909D01*
X002351Y011132D01*
X002471Y011423D01*
X002471Y011737D01*
X002351Y012028D01*
X002128Y012251D01*
X001985Y012310D01*
X011883Y012310D01*
X011612Y012040D01*
X011202Y012040D01*
X010845Y011683D01*
X010845Y011531D01*
X010740Y011433D01*
X010740Y011908D01*
X010704Y011996D01*
X010636Y012063D01*
X010548Y012100D01*
X009862Y012100D01*
X009774Y012063D01*
X009706Y011996D01*
X009670Y011908D01*
X009670Y011750D01*
X009472Y011750D01*
X009445Y011777D01*
X009273Y011848D01*
X009087Y011848D01*
X008975Y011802D01*
X008868Y011907D01*
X008824Y011951D01*
X008822Y011952D01*
X008821Y011953D01*
X008763Y011976D01*
X008706Y012000D01*
X008704Y012000D01*
X008703Y012001D01*
X008641Y012000D01*
X008550Y012000D01*
X008550Y012023D01*
X008513Y012111D01*
X008446Y012179D01*
X008358Y012215D01*
X007750Y012215D01*
X007680Y012186D01*
X007610Y012215D01*
X007002Y012215D01*
X006914Y012179D01*
X006847Y012111D01*
X006810Y012023D01*
X006810Y011337D01*
X006847Y011249D01*
X006914Y011181D01*
X006996Y011147D01*
X006981Y011143D01*
X006940Y011119D01*
X006906Y011086D01*
X006882Y011045D01*
X006870Y010999D01*
X006870Y010728D01*
X007258Y010728D01*
X007258Y010632D01*
X007354Y010632D01*
X007354Y010205D01*
X007586Y010205D01*
X007627Y010216D01*
X007662Y010181D01*
X007665Y010180D01*
X007662Y010179D01*
X007627Y010144D01*
X007586Y010155D01*
X007354Y010155D01*
X007354Y009728D01*
X007258Y009728D01*
X007258Y010155D01*
X007026Y010155D01*
X006981Y010143D01*
X006940Y010119D01*
X006906Y010086D01*
X006882Y010045D01*
X006870Y009999D01*
X006870Y009728D01*
X007258Y009728D01*
X007258Y009632D01*
X006931Y009632D01*
X005880Y010683D01*
X005985Y010683D01*
X006073Y010719D01*
X006141Y010787D01*
X006177Y010875D01*
X006177Y011485D01*
X006141Y011573D01*
X006073Y011641D01*
X005985Y011677D01*
X005375Y011677D01*
X005287Y011641D01*
X005219Y011573D01*
X005214Y011562D01*
X005174Y011602D01*
X004992Y011677D01*
X004794Y011677D01*
X004611Y011602D01*
X004499Y011490D01*
X004387Y011602D01*
X004204Y011677D01*
X004006Y011677D01*
X003823Y011602D01*
X003683Y011462D01*
X003673Y011436D01*
X003651Y011465D01*
X003603Y011514D01*
X003547Y011554D01*
X003486Y011585D01*
X003420Y011607D01*
X003352Y011617D01*
X003318Y011617D01*
X003318Y011180D01*
X003318Y011180D01*
X003318Y010743D01*
X003352Y010743D01*
X003420Y010753D01*
X003486Y010775D01*
X003547Y010806D01*
X003603Y010846D01*
X003651Y010895D01*
X003673Y010924D01*
X003683Y010898D01*
X003823Y010758D01*
X004006Y010683D01*
X004204Y010683D01*
X004387Y010758D01*
X004499Y010870D01*
X004611Y010758D01*
X004676Y010731D01*
X004706Y010700D01*
X004708Y010700D01*
X005159Y010249D01*
X005159Y010249D01*
X005249Y010159D01*
X005298Y010138D01*
X005366Y010110D01*
X005547Y010110D01*
X005706Y009952D01*
X005706Y009527D01*
X006064Y009527D01*
X006064Y009594D01*
X006801Y008856D01*
X006801Y008855D01*
X006859Y008715D01*
X006965Y008609D01*
X007105Y008551D01*
X007255Y008551D01*
X007385Y008605D01*
X007385Y008565D01*
X007385Y008502D01*
X007385Y008501D01*
X007410Y008443D01*
X007434Y008384D01*
X007434Y008383D01*
X007479Y008339D01*
X007500Y008318D01*
X007500Y008291D01*
X006629Y008290D01*
X006498Y008418D01*
X006498Y008966D01*
X006461Y009054D01*
X006394Y009121D01*
X006306Y009158D01*
X006049Y009158D01*
X006052Y009164D01*
X006064Y009209D01*
X006064Y009490D01*
X005706Y009490D01*
X005706Y009527D01*
X005669Y009527D01*
X005669Y009964D01*
X005467Y009964D01*
X005421Y009952D01*
X005380Y009928D01*
X005346Y009895D01*
X005323Y009854D01*
X005310Y009808D01*
X005310Y009527D01*
X005669Y009527D01*
X005669Y009490D01*
X005310Y009490D01*
X005310Y009209D01*
X005323Y009164D01*
X005326Y009158D01*
X005068Y009158D01*
X004980Y009121D01*
X004913Y009054D01*
X004887Y008992D01*
X004209Y008992D01*
X004200Y009000D01*
X004200Y009223D01*
X004163Y009311D01*
X004096Y009379D01*
X004008Y009415D01*
X003400Y009415D01*
X003312Y009379D01*
X003277Y009344D01*
X003236Y009355D01*
X003004Y009355D01*
X003004Y008928D01*
X002908Y008928D01*
X002908Y009355D01*
X002676Y009355D01*
X002631Y009343D01*
X002590Y009319D01*
X002556Y009286D01*
X002532Y009245D01*
X002520Y009199D01*
X002520Y008928D01*
X002908Y008928D01*
X002908Y008832D01*
X003004Y008832D01*
X003004Y008405D01*
X003236Y008405D01*
X003277Y008416D01*
X003312Y008381D01*
X003400Y008345D01*
X003780Y008345D01*
X003780Y007058D01*
X003683Y006962D01*
X003673Y006936D01*
X003651Y006965D01*
X003603Y007014D01*
X003547Y007054D01*
X003486Y007085D01*
X003420Y007107D01*
X003352Y007117D01*
X003318Y007117D01*
X003318Y006680D01*
X003318Y006243D01*
X003352Y006243D01*
X003420Y006253D01*
X003486Y006275D01*
X003547Y006306D01*
X003603Y006346D01*
X003651Y006395D01*
X003673Y006424D01*
X003683Y006398D01*
X003823Y006258D01*
X004006Y006183D01*
X004147Y006183D01*
X004231Y006098D01*
X004230Y005706D01*
X004164Y005679D01*
X004117Y005632D01*
X004071Y005679D02*
X004164Y005679D01*
X004230Y005837D02*
X002143Y005837D01*
X002221Y005996D02*
X004231Y005996D01*
X004175Y006154D02*
X002250Y006154D01*
X002242Y006313D02*
X003079Y006313D01*
X003089Y006306D02*
X003033Y006346D01*
X002984Y006395D01*
X002944Y006451D01*
X002912Y006512D01*
X002891Y006578D01*
X002880Y006646D01*
X002880Y006680D01*
X003318Y006680D01*
X003318Y006680D01*
X003318Y006680D01*
X003318Y006243D01*
X003283Y006243D01*
X003215Y006253D01*
X003150Y006275D01*
X003089Y006306D01*
X002933Y006471D02*
X002176Y006471D01*
X002105Y006630D02*
X002883Y006630D01*
X002880Y006680D02*
X003318Y006680D01*
X003318Y007117D01*
X003283Y007117D01*
X003215Y007107D01*
X003150Y007085D01*
X003089Y007054D01*
X003033Y007014D01*
X002984Y006965D01*
X002944Y006909D01*
X002912Y006848D01*
X002891Y006782D01*
X002880Y006714D01*
X002880Y006680D01*
X002893Y006788D02*
X002244Y006788D01*
X002250Y006947D02*
X002971Y006947D01*
X003210Y007105D02*
X002250Y007105D01*
X002250Y007264D02*
X003780Y007264D01*
X003780Y007422D02*
X002250Y007422D01*
X002241Y007581D02*
X003780Y007581D01*
X003780Y007739D02*
X002084Y007739D01*
X001276Y007739D02*
X000920Y007739D01*
X000920Y007898D02*
X003780Y007898D01*
X003780Y008056D02*
X000920Y008056D01*
X000920Y008215D02*
X003780Y008215D01*
X003332Y008373D02*
X000920Y008373D01*
X000920Y008532D02*
X002528Y008532D01*
X002532Y008515D02*
X002520Y008561D01*
X002520Y008832D01*
X002908Y008832D01*
X002908Y008405D01*
X002676Y008405D01*
X002631Y008417D01*
X002590Y008441D01*
X002556Y008474D01*
X002532Y008515D01*
X002520Y008690D02*
X000920Y008690D01*
X000920Y008849D02*
X002908Y008849D01*
X002908Y009007D02*
X003004Y009007D01*
X003004Y009166D02*
X002908Y009166D01*
X002908Y009324D02*
X003004Y009324D01*
X002598Y009324D02*
X000920Y009324D01*
X000920Y009483D02*
X005310Y009483D01*
X005310Y009641D02*
X000920Y009641D01*
X000920Y009800D02*
X005310Y009800D01*
X005444Y009958D02*
X000920Y009958D01*
X000920Y010117D02*
X005351Y010117D01*
X005132Y010275D02*
X000920Y010275D01*
X000920Y010434D02*
X004974Y010434D01*
X004815Y010592D02*
X000920Y010592D01*
X000920Y010751D02*
X003233Y010751D01*
X003215Y010753D02*
X003283Y010743D01*
X003318Y010743D01*
X003318Y011180D01*
X003318Y011180D01*
X003318Y011617D01*
X003283Y011617D01*
X003215Y011607D01*
X003150Y011585D01*
X003089Y011554D01*
X003033Y011514D01*
X002984Y011465D01*
X002944Y011409D01*
X002912Y011348D01*
X002891Y011282D01*
X002880Y011214D01*
X002880Y011180D01*
X003318Y011180D01*
X002880Y011180D01*
X002880Y011146D01*
X002891Y011078D01*
X002912Y011012D01*
X002944Y010951D01*
X002984Y010895D01*
X003033Y010846D01*
X003089Y010806D01*
X003150Y010775D01*
X003215Y010753D01*
X003318Y010751D02*
X003318Y010751D01*
X003403Y010751D02*
X003842Y010751D01*
X003679Y010909D02*
X003662Y010909D01*
X003318Y010909D02*
X003318Y010909D01*
X003318Y011068D02*
X003318Y011068D01*
X003318Y011180D02*
X003318Y011180D01*
X003318Y011226D02*
X003318Y011226D01*
X003318Y011385D02*
X003318Y011385D01*
X003318Y011543D02*
X003318Y011543D01*
X003562Y011543D02*
X003765Y011543D01*
X004446Y011543D02*
X004552Y011543D01*
X004893Y011180D02*
X004890Y010970D01*
X005430Y010430D01*
X005680Y010430D01*
X007180Y008930D01*
X006884Y008690D02*
X006498Y008690D01*
X006498Y008532D02*
X007385Y008532D01*
X007385Y008501D02*
X007385Y008501D01*
X007434Y008384D02*
X007434Y008384D01*
X007445Y008373D02*
X006544Y008373D01*
X006499Y007970D02*
X006039Y008420D01*
X006498Y008849D02*
X006804Y008849D01*
X006650Y009007D02*
X006481Y009007D01*
X006492Y009166D02*
X006052Y009166D01*
X006064Y009324D02*
X006333Y009324D01*
X006175Y009483D02*
X006064Y009483D01*
X005706Y009641D02*
X005669Y009641D01*
X005669Y009800D02*
X005706Y009800D01*
X005699Y009958D02*
X005669Y009958D01*
X006288Y010275D02*
X006906Y010275D01*
X006906Y010274D02*
X006940Y010241D01*
X006981Y010217D01*
X007026Y010205D01*
X007258Y010205D01*
X007258Y010632D01*
X006870Y010632D01*
X006870Y010361D01*
X006882Y010315D01*
X006906Y010274D01*
X006937Y010117D02*
X006446Y010117D01*
X006605Y009958D02*
X006870Y009958D01*
X006870Y009800D02*
X006763Y009800D01*
X006922Y009641D02*
X007258Y009641D01*
X007306Y009680D02*
X007306Y009931D01*
X007258Y009958D02*
X007354Y009958D01*
X007354Y009800D02*
X007258Y009800D01*
X007258Y010117D02*
X007354Y010117D01*
X007354Y010275D02*
X007258Y010275D01*
X007258Y010434D02*
X007354Y010434D01*
X007354Y010592D02*
X007258Y010592D01*
X006870Y010592D02*
X005971Y010592D01*
X006129Y010434D02*
X006870Y010434D01*
X006870Y010751D02*
X006105Y010751D01*
X006177Y010909D02*
X006870Y010909D01*
X006895Y011068D02*
X006177Y011068D01*
X006177Y011226D02*
X006869Y011226D01*
X006810Y011385D02*
X006177Y011385D01*
X006154Y011543D02*
X006810Y011543D01*
X006810Y011702D02*
X002471Y011702D01*
X002471Y011543D02*
X003073Y011543D01*
X002931Y011385D02*
X002455Y011385D01*
X002390Y011226D02*
X002882Y011226D01*
X002894Y011068D02*
X002286Y011068D01*
X002128Y010909D02*
X002974Y010909D01*
X002420Y011860D02*
X006810Y011860D01*
X006810Y012019D02*
X002355Y012019D01*
X002202Y012177D02*
X006912Y012177D01*
X007306Y011680D02*
X007480Y011680D01*
X007480Y011430D01*
X008055Y010855D01*
X008055Y009705D01*
X008155Y009705D01*
X007955Y009480D01*
X007705Y009205D01*
X007705Y008565D01*
X007990Y008282D01*
X007990Y007967D02*
X007810Y007971D01*
X006499Y007970D01*
X006380Y007368D02*
X007722Y007368D01*
X007990Y007337D01*
X007990Y007652D02*
X007729Y007680D01*
X005580Y007680D01*
X004896Y007000D01*
X004893Y006680D01*
X004551Y006229D02*
X004105Y006680D01*
X004100Y006680D02*
X004100Y008660D01*
X004100Y008672D01*
X005210Y008672D01*
X005265Y008537D01*
X004893Y009007D02*
X004200Y009007D01*
X004200Y009166D02*
X005322Y009166D01*
X005310Y009324D02*
X004151Y009324D01*
X003855Y008880D02*
X003704Y008880D01*
X003855Y008880D02*
X004100Y008660D01*
X003004Y008690D02*
X002908Y008690D01*
X002908Y008532D02*
X003004Y008532D01*
X002520Y009007D02*
X000920Y009007D01*
X000920Y009166D02*
X002520Y009166D01*
X001119Y007581D02*
X000920Y007581D01*
X000920Y007422D02*
X001110Y007422D01*
X001110Y007264D02*
X000920Y007264D01*
X000920Y007105D02*
X001110Y007105D01*
X001110Y006947D02*
X000920Y006947D01*
X000920Y006788D02*
X001116Y006788D01*
X001255Y006630D02*
X000920Y006630D01*
X000920Y006471D02*
X001184Y006471D01*
X001118Y006313D02*
X000920Y006313D01*
X000920Y006154D02*
X001110Y006154D01*
X001139Y005996D02*
X000920Y005996D01*
X000920Y005837D02*
X001217Y005837D01*
X001394Y005679D02*
X000920Y005679D01*
X000920Y005520D02*
X001214Y005520D01*
X001138Y005362D02*
X000920Y005362D01*
X000920Y005203D02*
X001110Y005203D01*
X001119Y005045D02*
X000920Y005045D01*
X000920Y004886D02*
X001185Y004886D01*
X001326Y004728D02*
X000920Y004728D01*
X001244Y004447D02*
X001291Y004512D01*
X001348Y004569D01*
X001244Y004447D02*
X001207Y004376D01*
X001175Y004252D02*
X000920Y004252D01*
X000920Y004094D02*
X001177Y004094D01*
X001232Y003935D02*
X000920Y003935D01*
X000920Y003777D02*
X001368Y003777D01*
X001312Y003618D02*
X000920Y003618D01*
X000920Y003460D02*
X001179Y003460D01*
X001113Y003301D02*
X000920Y003301D01*
X000920Y003143D02*
X001110Y003143D01*
X001144Y002984D02*
X000920Y002984D01*
X000920Y002826D02*
X001228Y002826D01*
X001429Y002667D02*
X000920Y002667D01*
X000920Y002509D02*
X005175Y002509D01*
X005175Y002667D02*
X001931Y002667D01*
X002132Y002826D02*
X005175Y002826D01*
X005175Y002984D02*
X002337Y002984D01*
X002495Y003143D02*
X005175Y003143D01*
X005175Y003301D02*
X002654Y003301D01*
X002747Y003460D02*
X003552Y003460D01*
X003586Y003449D02*
X003672Y003435D01*
X003695Y003435D01*
X003695Y003965D01*
X003735Y003965D01*
X003735Y004005D01*
X003695Y004005D01*
X003695Y004535D01*
X003672Y004535D01*
X003586Y004521D01*
X003504Y004495D01*
X003427Y004455D01*
X003357Y004405D01*
X003295Y004343D01*
X003245Y004273D01*
X003205Y004196D01*
X003179Y004114D01*
X003165Y004028D01*
X003165Y004005D01*
X003695Y004005D01*
X003695Y003965D01*
X003165Y003965D01*
X003165Y003942D01*
X003179Y003856D01*
X003205Y003774D01*
X003245Y003697D01*
X003295Y003627D01*
X003357Y003565D01*
X003427Y003515D01*
X003504Y003475D01*
X003586Y003449D01*
X003695Y003460D02*
X003735Y003460D01*
X003735Y003435D02*
X003758Y003435D01*
X003844Y003449D01*
X003926Y003475D01*
X004003Y003515D01*
X004073Y003565D01*
X004135Y003627D01*
X004185Y003697D01*
X004225Y003774D01*
X004251Y003856D01*
X004265Y003942D01*
X004265Y003965D01*
X003735Y003965D01*
X003735Y003435D01*
X003878Y003460D02*
X005170Y003460D01*
X004999Y003618D02*
X004126Y003618D01*
X004226Y003777D02*
X004921Y003777D01*
X004885Y003935D02*
X004264Y003935D01*
X004255Y004094D02*
X004885Y004094D01*
X004945Y004252D02*
X004196Y004252D01*
X003735Y004252D02*
X003695Y004252D01*
X003695Y004094D02*
X003735Y004094D01*
X003735Y003935D02*
X003695Y003935D01*
X003695Y003777D02*
X003735Y003777D01*
X003735Y003618D02*
X003695Y003618D01*
X003304Y003618D02*
X002750Y003618D01*
X002750Y003777D02*
X003204Y003777D01*
X003166Y003935D02*
X002750Y003935D01*
X002750Y004094D02*
X003175Y004094D01*
X003234Y004252D02*
X002750Y004252D01*
X002750Y004411D02*
X003365Y004411D01*
X003695Y004411D02*
X003735Y004411D01*
X003718Y004569D02*
X002772Y004569D01*
X002430Y004680D02*
X002930Y005180D01*
X002435Y005203D02*
X002250Y005203D01*
X002241Y005045D02*
X002342Y005045D01*
X002183Y004886D02*
X002175Y004886D01*
X002430Y004680D02*
X002430Y003530D01*
X002080Y003180D01*
X001680Y003180D01*
X001231Y002350D02*
X000920Y002350D01*
X000920Y002192D02*
X001073Y002192D01*
X000970Y002033D02*
X000920Y002033D01*
X002129Y002350D02*
X005175Y002350D01*
X005175Y002192D02*
X002287Y002192D01*
X002390Y002033D02*
X005175Y002033D01*
X005082Y001875D02*
X004032Y001875D01*
X004003Y001895D02*
X003926Y001935D01*
X003844Y001961D01*
X003758Y001975D01*
X003735Y001975D01*
X003735Y001445D01*
X004265Y001445D01*
X004265Y001468D01*
X004251Y001554D01*
X004225Y001636D01*
X004185Y001713D01*
X004135Y001783D01*
X004073Y001845D01*
X004003Y001895D01*
X004183Y001716D02*
X004955Y001716D01*
X004890Y001558D02*
X004250Y001558D01*
X004265Y001399D02*
X004885Y001399D01*
X004911Y001241D02*
X004233Y001241D01*
X004146Y001082D02*
X004977Y001082D01*
X005134Y000924D02*
X003942Y000924D01*
X003488Y000924D02*
X001921Y000924D01*
X002201Y001082D02*
X003284Y001082D01*
X003197Y001241D02*
X002354Y001241D01*
X002420Y001399D02*
X003165Y001399D01*
X003180Y001558D02*
X002471Y001558D01*
X002471Y001716D02*
X003247Y001716D01*
X003398Y001875D02*
X002456Y001875D01*
X003695Y001875D02*
X003735Y001875D01*
X003735Y001716D02*
X003695Y001716D01*
X003695Y001558D02*
X003735Y001558D01*
X005495Y001425D02*
X005495Y003985D01*
X005311Y004569D02*
X005272Y004569D01*
X004550Y005070D02*
X004551Y006229D01*
X003769Y006313D02*
X003556Y006313D01*
X003318Y006313D02*
X003318Y006313D01*
X003318Y006471D02*
X003318Y006471D01*
X003318Y006630D02*
X003318Y006630D01*
X003318Y006680D02*
X003318Y006680D01*
X003318Y006788D02*
X003318Y006788D01*
X003318Y006947D02*
X003318Y006947D01*
X003318Y007105D02*
X003318Y007105D01*
X003425Y007105D02*
X003780Y007105D01*
X003677Y006947D02*
X003665Y006947D01*
X002539Y005679D02*
X001966Y005679D01*
X002146Y005520D02*
X002435Y005520D01*
X002435Y005362D02*
X002222Y005362D01*
X004430Y005180D02*
X004550Y005070D01*
X005808Y005362D02*
X006210Y005362D01*
X006334Y005520D02*
X005960Y005520D01*
X006112Y005679D02*
X006576Y005679D01*
X006668Y005837D02*
X006264Y005837D01*
X006416Y005996D02*
X006496Y005996D01*
X006830Y006180D02*
X007330Y006680D01*
X007802Y006680D01*
X007990Y006708D01*
X006380Y007368D02*
X005830Y006818D01*
X005680Y006680D01*
X007505Y005405D02*
X006680Y004580D01*
X006680Y003780D01*
X007080Y003380D01*
X007430Y003393D01*
X007430Y004180D02*
X007430Y004355D01*
X007443Y004380D01*
X009180Y003143D02*
X009180Y003143D01*
X009180Y002984D02*
X009180Y002984D01*
X009180Y002826D02*
X009180Y002826D01*
X010132Y002350D02*
X010228Y002350D01*
X010228Y002192D02*
X010132Y002192D01*
X011935Y002192D02*
X012475Y002192D01*
X012457Y002350D02*
X011953Y002350D01*
X011953Y002509D02*
X012457Y002509D01*
X012457Y002667D02*
X011953Y002667D01*
X011953Y002826D02*
X012457Y002826D01*
X012509Y002984D02*
X011901Y002984D01*
X011938Y003143D02*
X012472Y003143D01*
X012457Y003301D02*
X011953Y003301D01*
X011953Y003460D02*
X012457Y003460D01*
X012457Y003618D02*
X011953Y003618D01*
X011953Y003777D02*
X012345Y003777D01*
X012469Y004105D02*
X011880Y004105D01*
X010782Y005203D01*
X010782Y005490D01*
X011380Y005405D02*
X011370Y006078D01*
X011370Y006708D02*
X011618Y006682D01*
X011930Y006680D01*
X012180Y007023D02*
X011370Y007023D01*
X011370Y007337D02*
X011614Y007368D01*
X012305Y007368D01*
X012493Y007180D01*
X012493Y005804D01*
X012555Y005743D01*
X013027Y005362D02*
X013046Y005362D01*
X013028Y005203D02*
X013204Y005203D01*
X013225Y005045D02*
X013028Y005045D01*
X013028Y004886D02*
X013279Y004886D01*
X013401Y004728D02*
X013017Y004728D01*
X012857Y004569D02*
X015010Y004569D01*
X015010Y004411D02*
X014739Y004411D01*
X014815Y004252D02*
X015010Y004252D01*
X015010Y004094D02*
X014815Y004094D01*
X014815Y003935D02*
X015010Y003935D01*
X015010Y003777D02*
X014815Y003777D01*
X014792Y003618D02*
X015010Y003618D01*
X015010Y003460D02*
X014755Y003460D01*
X014755Y003301D02*
X014998Y003301D01*
X014840Y003143D02*
X014755Y003143D01*
X014328Y003143D02*
X014232Y003143D01*
X014232Y002984D02*
X014328Y002984D01*
X014328Y002826D02*
X014232Y002826D01*
X014364Y002667D02*
X013685Y002667D01*
X013685Y002509D02*
X014206Y002509D01*
X014047Y002350D02*
X013685Y002350D01*
X013667Y002192D02*
X013889Y002192D01*
X014319Y001716D02*
X014364Y001716D01*
X014364Y001558D02*
X014160Y001558D01*
X014002Y001399D02*
X014415Y001399D01*
X014481Y001241D02*
X013843Y001241D01*
X014634Y001082D02*
X006013Y001082D01*
X005856Y000924D02*
X014914Y000924D01*
X015907Y001932D02*
X015826Y002128D01*
X015603Y002351D01*
X015312Y002471D01*
X015074Y002471D01*
X015511Y002909D01*
X015601Y002999D01*
X015650Y003116D01*
X015650Y007594D01*
X015601Y007711D01*
X015260Y008053D01*
X015260Y008220D01*
X015181Y008410D01*
X015074Y008517D01*
X015074Y008601D01*
X015146Y008631D01*
X015213Y008699D01*
X015250Y008787D01*
X015250Y009473D01*
X015213Y009561D01*
X015146Y009629D01*
X015062Y009663D01*
X015062Y009956D01*
X015014Y010074D01*
X014650Y010438D01*
X014650Y010966D01*
X014707Y010909D01*
X014998Y010789D01*
X015312Y010789D01*
X015603Y010909D01*
X015826Y011132D01*
X015907Y011328D01*
X015907Y001932D01*
X015907Y002033D02*
X015865Y002033D01*
X015907Y002192D02*
X015762Y002192D01*
X015907Y002350D02*
X015604Y002350D01*
X015907Y002509D02*
X015111Y002509D01*
X015270Y002667D02*
X015907Y002667D01*
X015907Y002826D02*
X015428Y002826D01*
X015587Y002984D02*
X015907Y002984D01*
X015907Y003143D02*
X015650Y003143D01*
X015650Y003301D02*
X015907Y003301D01*
X015907Y003460D02*
X015650Y003460D01*
X015650Y003618D02*
X015907Y003618D01*
X015907Y003777D02*
X015650Y003777D01*
X015650Y003935D02*
X015907Y003935D01*
X015907Y004094D02*
X015650Y004094D01*
X015650Y004252D02*
X015907Y004252D01*
X015907Y004411D02*
X015650Y004411D01*
X015650Y004569D02*
X015907Y004569D01*
X015907Y004728D02*
X015650Y004728D01*
X015650Y004886D02*
X015907Y004886D01*
X015907Y005045D02*
X015650Y005045D01*
X015650Y005203D02*
X015907Y005203D01*
X015907Y005362D02*
X015650Y005362D01*
X015650Y005520D02*
X015907Y005520D01*
X015907Y005679D02*
X015650Y005679D01*
X015650Y005837D02*
X015907Y005837D01*
X015907Y005996D02*
X015650Y005996D01*
X015650Y006154D02*
X015907Y006154D01*
X015907Y006313D02*
X015650Y006313D01*
X015650Y006471D02*
X015907Y006471D01*
X015907Y006630D02*
X015650Y006630D01*
X015650Y006788D02*
X015907Y006788D01*
X015907Y006947D02*
X015650Y006947D01*
X015650Y007105D02*
X015907Y007105D01*
X015907Y007264D02*
X015650Y007264D01*
X015650Y007422D02*
X015907Y007422D01*
X015907Y007581D02*
X015650Y007581D01*
X015574Y007739D02*
X015907Y007739D01*
X015907Y007898D02*
X015415Y007898D01*
X015260Y008056D02*
X015907Y008056D01*
X015907Y008215D02*
X015260Y008215D01*
X015196Y008373D02*
X015907Y008373D01*
X015907Y008532D02*
X015074Y008532D01*
X015205Y008690D02*
X015907Y008690D01*
X015907Y008849D02*
X015250Y008849D01*
X015250Y009007D02*
X015907Y009007D01*
X015907Y009166D02*
X015250Y009166D01*
X015250Y009324D02*
X015907Y009324D01*
X015907Y009483D02*
X015246Y009483D01*
X015116Y009641D02*
X015907Y009641D01*
X015907Y009800D02*
X015062Y009800D01*
X015062Y009958D02*
X015907Y009958D01*
X015907Y010117D02*
X014971Y010117D01*
X014813Y010275D02*
X015907Y010275D01*
X015907Y010434D02*
X014654Y010434D01*
X014650Y010592D02*
X015907Y010592D01*
X015907Y010751D02*
X014650Y010751D01*
X014650Y010909D02*
X014707Y010909D01*
X014030Y010855D02*
X014030Y009155D01*
X014054Y009178D02*
X013958Y009178D01*
X013958Y009605D01*
X013726Y009605D01*
X013681Y009593D01*
X013640Y009569D01*
X013606Y009536D01*
X013582Y009495D01*
X013570Y009449D01*
X013570Y009178D01*
X013958Y009178D01*
X013958Y009082D01*
X014054Y009082D01*
X014054Y008655D01*
X014286Y008655D01*
X014327Y008666D01*
X014362Y008631D01*
X014423Y008606D01*
X014423Y008529D01*
X014304Y008410D01*
X014225Y008220D01*
X014225Y008015D01*
X014304Y007825D01*
X014450Y007679D01*
X014598Y007618D01*
X014450Y007556D01*
X014304Y007410D01*
X014242Y007262D01*
X014181Y007410D01*
X014035Y007556D01*
X013845Y007635D01*
X013640Y007635D01*
X013450Y007556D01*
X013425Y007531D01*
X013425Y007665D01*
X013442Y007660D01*
X013734Y007660D01*
X013734Y008109D01*
X013751Y008109D01*
X013751Y007660D01*
X014043Y007660D01*
X014089Y007673D01*
X014130Y007696D01*
X014164Y007730D01*
X014187Y007771D01*
X014200Y007817D01*
X014200Y008109D01*
X013751Y008109D01*
X013751Y008126D01*
X013734Y008126D01*
X013734Y008575D01*
X013442Y008575D01*
X013406Y008565D01*
X013401Y008577D01*
X013377Y008635D01*
X013377Y008636D01*
X013376Y008636D01*
X013332Y008681D01*
X012834Y009183D01*
X012834Y009185D01*
X012776Y009325D01*
X012775Y009326D01*
X012775Y009887D01*
X012955Y010067D01*
X013202Y009820D01*
X013708Y009820D01*
X014045Y010157D01*
X014059Y010124D01*
X014149Y010034D01*
X014423Y009760D01*
X014423Y009654D01*
X014362Y009629D01*
X014327Y009594D01*
X014286Y009605D01*
X014054Y009605D01*
X014054Y009178D01*
X013958Y009166D02*
X012851Y009166D01*
X013008Y009007D02*
X013570Y009007D01*
X013570Y009082D02*
X013570Y008811D01*
X013582Y008765D01*
X013606Y008724D01*
X013640Y008691D01*
X013681Y008667D01*
X013726Y008655D01*
X013958Y008655D01*
X013958Y009082D01*
X013570Y009082D01*
X013570Y008849D02*
X013165Y008849D01*
X013323Y008690D02*
X013641Y008690D01*
X013751Y008575D02*
X013751Y008126D01*
X014200Y008126D01*
X014200Y008418D01*
X014187Y008464D01*
X014164Y008505D01*
X014130Y008539D01*
X014089Y008562D01*
X014043Y008575D01*
X013751Y008575D01*
X013751Y008532D02*
X013734Y008532D01*
X013958Y008690D02*
X014054Y008690D01*
X014054Y008849D02*
X013958Y008849D01*
X013958Y009007D02*
X014054Y009007D01*
X014054Y009324D02*
X013958Y009324D01*
X013958Y009483D02*
X014054Y009483D01*
X014392Y009641D02*
X012775Y009641D01*
X012775Y009483D02*
X013579Y009483D01*
X013570Y009324D02*
X012776Y009324D01*
X012455Y009110D02*
X013105Y008455D01*
X012455Y009105D01*
X012455Y010430D01*
X012846Y009958D02*
X013064Y009958D01*
X012775Y009800D02*
X014383Y009800D01*
X014224Y009958D02*
X013846Y009958D01*
X014004Y010117D02*
X014066Y010117D01*
X014030Y010855D02*
X013455Y011430D01*
X011749Y012177D02*
X008448Y012177D01*
X008550Y012019D02*
X009729Y012019D01*
X009670Y011860D02*
X008916Y011860D01*
X008643Y011680D02*
X009178Y011155D01*
X009180Y011152D01*
X009458Y011430D01*
X010205Y011430D01*
X010205Y011604D01*
X010740Y011543D02*
X010845Y011543D01*
X010864Y011702D02*
X010740Y011702D01*
X010740Y011860D02*
X011022Y011860D01*
X011181Y012019D02*
X010681Y012019D01*
X009730Y011110D02*
X009730Y010904D01*
X010157Y010904D01*
X010157Y010808D01*
X009730Y010808D01*
X009730Y010576D01*
X009742Y010531D01*
X009766Y010490D01*
X009799Y010456D01*
X009840Y010432D01*
X009886Y010420D01*
X010157Y010420D01*
X010157Y010808D01*
X010253Y010808D01*
X010253Y010420D01*
X010483Y010420D01*
X010483Y010290D01*
X009925Y010290D01*
X009837Y010254D01*
X009802Y010219D01*
X009761Y010230D01*
X009529Y010230D01*
X009529Y009803D01*
X009433Y009803D01*
X009433Y010230D01*
X009201Y010230D01*
X009156Y010218D01*
X009115Y010194D01*
X009081Y010161D01*
X009057Y010120D01*
X009045Y010074D01*
X009045Y009803D01*
X009433Y009803D01*
X009433Y009707D01*
X009529Y009707D01*
X009529Y009300D01*
X009523Y009300D01*
X009523Y009252D01*
X009523Y009252D01*
X009523Y009252D01*
X009523Y009300D01*
X009477Y009300D01*
X009454Y009323D01*
X009433Y009332D01*
X009433Y009707D01*
X009045Y009707D01*
X009045Y009542D01*
X008875Y009713D01*
X008875Y010568D01*
X008915Y010528D01*
X009087Y010457D01*
X009273Y010457D01*
X009445Y010528D01*
X009577Y010659D01*
X009648Y010831D01*
X009648Y011110D01*
X009730Y011110D01*
X009730Y011068D02*
X009648Y011068D01*
X009648Y010909D02*
X009730Y010909D01*
X009730Y010751D02*
X009614Y010751D01*
X009509Y010592D02*
X009730Y010592D01*
X009838Y010434D02*
X008875Y010434D01*
X008875Y010275D02*
X009889Y010275D01*
X010157Y010434D02*
X010253Y010434D01*
X010253Y010592D02*
X010157Y010592D01*
X010157Y010751D02*
X010253Y010751D01*
X009529Y010117D02*
X009433Y010117D01*
X009433Y009958D02*
X009529Y009958D01*
X009433Y009800D02*
X008875Y009800D01*
X008905Y009755D02*
X009480Y009755D01*
X009480Y009580D01*
X009530Y009580D01*
X009530Y008870D01*
X009523Y008870D01*
X009837Y008870D02*
X009837Y009137D01*
X010230Y009530D01*
X010230Y009754D01*
X010229Y009755D01*
X009529Y009641D02*
X009433Y009641D01*
X009433Y009483D02*
X009529Y009483D01*
X009529Y009324D02*
X009452Y009324D01*
X009045Y009641D02*
X008947Y009641D01*
X008875Y009958D02*
X009045Y009958D01*
X009056Y010117D02*
X008875Y010117D01*
X008555Y009580D02*
X008880Y009255D01*
X008888Y009229D01*
X008893Y008870D01*
X008578Y008870D02*
X008430Y008930D01*
X008180Y008930D01*
X008555Y009580D02*
X008555Y011180D01*
X008643Y011680D02*
X008054Y011680D01*
X011455Y010430D02*
X011455Y009805D01*
X012055Y009180D01*
X012055Y008305D01*
X012054Y008330D01*
X011980Y008306D01*
X012180Y008305D01*
X012793Y007693D01*
X012793Y006518D01*
X013168Y006143D01*
X013168Y005693D01*
X013743Y005118D01*
X014206Y004886D02*
X014279Y004886D01*
X014401Y004728D02*
X014084Y004728D01*
X013821Y004411D02*
X012655Y004411D01*
X012774Y004252D02*
X013745Y004252D01*
X013616Y004094D02*
X012933Y004094D01*
X012469Y004105D02*
X013071Y003502D01*
X013080Y003511D01*
X013080Y003530D01*
X013130Y003480D01*
X013155Y003505D01*
X013480Y003505D01*
X013954Y003979D01*
X014280Y003979D01*
X013805Y003301D02*
X013729Y003301D01*
X013670Y003143D02*
X013805Y003143D01*
X013805Y002984D02*
X013634Y002984D01*
X013685Y002826D02*
X013884Y002826D01*
X013098Y003529D02*
X013071Y003502D01*
X012305Y004555D02*
X012493Y004743D01*
X012493Y005056D01*
X013743Y006118D02*
X013105Y006730D01*
X013105Y008455D01*
X013734Y008373D02*
X013751Y008373D01*
X013734Y008215D02*
X013751Y008215D01*
X013734Y008056D02*
X013751Y008056D01*
X013734Y007898D02*
X013751Y007898D01*
X013734Y007739D02*
X013751Y007739D01*
X013976Y007581D02*
X014509Y007581D01*
X014316Y007422D02*
X014169Y007422D01*
X014242Y007264D02*
X014243Y007264D01*
X014169Y007739D02*
X014390Y007739D01*
X014274Y007898D02*
X014200Y007898D01*
X014200Y008056D02*
X014225Y008056D01*
X014225Y008215D02*
X014200Y008215D01*
X014200Y008373D02*
X014289Y008373D01*
X014423Y008532D02*
X014137Y008532D01*
X014754Y008154D02*
X014743Y008118D01*
X014754Y008154D02*
X014754Y009130D01*
X013509Y007581D02*
X013425Y007581D01*
X012168Y007680D02*
X011887Y007963D01*
X011370Y007967D01*
X011370Y008282D02*
X011609Y008307D01*
X011980Y008306D01*
X011180Y008680D02*
X010680Y008180D01*
X010782Y008870D02*
X011022Y009110D01*
X011565Y009110D01*
X015603Y010909D02*
X015907Y010909D01*
X015907Y011068D02*
X015761Y011068D01*
X015865Y011226D02*
X015907Y011226D01*
X009899Y005045D02*
X009776Y005045D01*
X009996Y004886D02*
X010148Y004886D01*
X010143Y004728D02*
X010148Y004728D01*
X004629Y010751D02*
X004368Y010751D01*
X001232Y010909D02*
X000920Y010909D01*
X000920Y011068D02*
X001074Y011068D01*
X000970Y011226D02*
X000920Y011226D01*
D29*
X005313Y008642D02*
X005265Y008537D01*
X006039Y008420D02*
X006061Y008642D01*
X008054Y009680D02*
X008155Y009705D01*
X008055Y009705D02*
X008054Y010680D01*
X010467Y008870D02*
X010430Y008680D01*
X010180Y005680D02*
X010152Y005490D01*
X008680Y004180D02*
X008517Y004180D01*
X005430Y005180D02*
X005304Y005180D01*
X004556Y005180D02*
X004430Y005180D01*
X003805Y005180D02*
X003679Y005180D01*
X002931Y005180D02*
X002930Y005180D01*
D30*
X006555Y005205D03*
X007505Y005405D03*
X006830Y006180D03*
X008430Y004680D03*
X009805Y004555D03*
X011380Y005405D03*
X012305Y004555D03*
X011930Y006680D03*
X012180Y007023D03*
X012168Y007680D03*
X011180Y008680D03*
X011565Y009110D03*
X012455Y009110D03*
X010680Y008180D03*
X009680Y008180D03*
X009680Y007180D03*
X009093Y006305D03*
X008180Y008930D03*
X007180Y008930D03*
X008905Y009755D03*
X008555Y011180D03*
X015455Y009830D03*
M02*
